<svg xmlns="http://www.w3.org/2000/svg" viewBox="0 0 750 500"><g id="freepik--background-simple--inject-2"><path d="M698.08,138.72C657.6,79.76,590.47,37,520.22,27.07l-1.57-.22C415,12.92,315.67,123.45,284.91,140S97.75,166.09,61.73,220.05,5.49,362.77,65.24,428.91s219.67,7.84,288.21,18.28C405.35,455.1,459,461.45,512,463.78c47,2.07,101.6,5.84,142.07-22.72,35.56-25.1,41.78-62.28,57-99.88,9.77-24.16,24.53-46.35,25.84-72.86C739.14,222.12,724.19,176.74,698.08,138.72Z" style="fill:#94006A"></path><path d="M698.08,138.72C657.6,79.76,590.47,37,520.22,27.07l-1.57-.22C415,12.92,315.67,123.45,284.91,140S97.75,166.09,61.73,220.05,5.49,362.77,65.24,428.91s219.67,7.84,288.21,18.28C405.35,455.1,459,461.45,512,463.78c47,2.07,101.6,5.84,142.07-22.72,35.56-25.1,41.78-62.28,57-99.88,9.77-24.16,24.53-46.35,25.84-72.86C739.14,222.12,724.19,176.74,698.08,138.72Z" style="fill:#fff;opacity:0.7000000000000001"></path></g><g id="freepik--Clouds--inject-2"><g style="opacity:0.30000000000000004"><path d="M645.14,149.49a8.41,8.41,0,0,1-3.33,1.64c-3.33.74-12.23.37-13.71,4.45a8.85,8.85,0,0,1-5.56,5.18s-7,.37-7.41,1.86-3,4.07-3,4.07H733.35s4.07-6.3-2.6-12.23c-5.83-5.18-16.49,2.68-17.83-3.71" style="fill:none;stroke:#000;stroke-linecap:round;stroke-linejoin:round"></path><path d="M711.83,141.31c-1.36-4.87-4.2-11.45-10-13.9-9.64-4.08-17.79,1.48-20,7s-3.71,9.27-12.23,4.45-15.94-4.45-18.53,1.85a28.8,28.8,0,0,1-2.75,5.23" style="fill:none;stroke:#000;stroke-linecap:round;stroke-linejoin:round"></path><path d="M266.67,127.12H298a4.24,4.24,0,0,0-1.17-5.51c-3-2.67-8.85,2.34-8-3.34,0,0-.66-7-5-8.84a7,7,0,0,0-6.93.63" style="fill:none;stroke:#000;stroke-linecap:round;stroke-linejoin:round"></path><path d="M274.81,112.6c-1,2.5-1.67,4.17-5.51,2s-7.17-2-8.34.84-2.67,4.34-4.18,4.67-5.5.17-6.17,2a4,4,0,0,1-2.51,2.34s-3.17.17-3.33.84a6.54,6.54,0,0,1-1.34,1.83h18.33" style="fill:none;stroke:#000;stroke-linecap:round;stroke-linejoin:round"></path><path d="M142,119.47h87.16s5.11-7.89-3.25-15.32-24.6,6.5-22.28-9.28c0,0-1.86-19.5-13.93-24.6C182.09,67,175.2,68.64,170.46,72" style="fill:none;stroke:#000;stroke-linecap:round;stroke-linejoin:round"></path><path d="M164.66,79.09c-2.78,7-4.64,11.6-15.32,5.57s-20-5.57-23.21,2.32-7.43,12.07-11.61,13-15.32.46-17.17,5.57a11.13,11.13,0,0,1-7,6.5s-8.82.46-9.28,2.32-3.72,5.1-3.72,5.1h51" style="fill:none;stroke:#000;stroke-linecap:round;stroke-linejoin:round"></path><path d="M628.44,145.6h14.81s1.83-2.83-1.17-5.5-8.85,2.33-8-3.34c0,0-.67-7-5-8.85a6.76,6.76,0,0,0-9,3.17c-1,2.51-1.67,4.17-5.51,2s-7.17-2-8.34.84-2.67,4.34-4.18,4.67-5.5.17-6.17,2a4,4,0,0,1-2.51,2.33s-3.17.17-3.33.84a6.38,6.38,0,0,1-1.34,1.83h34.87" style="fill:none;stroke:#000;stroke-linecap:round;stroke-linejoin:round"></path></g></g><g id="freepik--factories-2--inject-2"><g style="opacity:0.13"><ellipse cx="299.2" cy="162.39" rx="9.13" ry="6.96"></ellipse><path d="M316.38,159.34c-3.24,0-5.87-1.85-5.87-4.13s2.63-4.13,5.87-4.13,5.87,1.85,5.87,4.13S319.62,159.34,316.38,159.34Z"></path><path d="M333.78,160.21c-2.29,0-4.14-.78-4.14-1.74s1.85-1.74,4.14-1.74,4.13.78,4.13,1.74S336.06,160.21,333.78,160.21Z"></path><path d="M447.54,194.84c-3.48,0-6.3-1.94-6.3-4.33s2.82-4.33,6.3-4.33,6.3,1.94,6.3,4.33S451,194.84,447.54,194.84Z"></path><ellipse cx="583.37" cy="133.42" rx="8.27" ry="5.51"></ellipse><path d="M430.22,200.35c-2.61,0-4.73-1.41-4.73-3.15s2.12-3.15,4.73-3.15,4.72,1.41,4.72,3.15S432.83,200.35,430.22,200.35Z"></path><path d="M414.07,196.42c-4.56,0-8.26-2.47-8.26-5.52s3.7-5.51,8.26-5.51,8.27,2.47,8.27,5.51S418.64,196.42,414.07,196.42Z"></path><path d="M57.88,299.9V279.5H55V269.24h2.92v-59.7h1.71c-1.73-3-3.43-9-.24-19,5.12-16.15,10.64-9.85,18.12-10.24S79.19,166,92.91,156.41s25.92,1.4,33,7.7,8.66,7.49,17.72-6.69,22.06-14.18,27.58-9.06,6.3,15,7.88,18.91,7.09,13,17.33,4.72a30.57,30.57,0,0,1,14.47-6.06c.48-.64,1-1.3,1.61-2,7.89-9.15,28.71-4.73,36.59,0s14.2,3.15,21.77-1.26,21.45-1.26,17.35,9.15-10.73,17-27.45,15.77S233.66,173.71,233,176.86c-.56,2.82,15.5,6.91,11.25,16.75,6.81-.14,14.58-.67,14,9.11-.79,13.79-19.7,15.36-29.15,11-5.15-2.36-10.3-10-14.74-15.27-1.87,1.84-3.89,4.9-7.24,4.56a15,15,0,0,1-6.4-2.53,46.52,46.52,0,0,1-3,3.57v5H196.2v41.16h50.9v6.82h-2.24v88.7h22.25V244.47H322l-.32,39.35h64V213h15v70.87h74.74l10.52-130H500l10.52,130h38.12l10.53-130h.36a8.27,8.27,0,0,1-4.53-7c0-4.79,4.85-8.66,10.83-8.66a12.38,12.38,0,0,1,7.22,2.22,7.26,7.26,0,0,1,4.58-1.44c3.16,0,5.71,1.59,5.71,3.55s-2.55,3.54-5.71,3.54a8.94,8.94,0,0,1-1-.06,6,6,0,0,1,.06.85,8.27,8.27,0,0,1-4.53,7h1.11l21.1,260.69H41.63V299.9ZM94,191.69a27.29,27.29,0,0,1-2.22,5.63c6-3.93,12.2-4.11,16,.28a20.24,20.24,0,0,0,1.65,1.68C102.75,191.5,96.86,181.57,94,191.69Zm61.14,6.71c.83,3.38,1,5.65,6.61,3.93l.26-.09C159.53,200.78,157.24,199.47,155.16,198.4ZM92.63,224.74v2.36h1.93v10.26H92.63v59.76h22.25v-40h-2v-6.82h70.83v-38.8a17.57,17.57,0,0,1-5-.61c-1.64,7.41-9.61,15.86-25.19,12-22.06-5.51-27.57-15.36-29.54-9.06s-8.28,10.24-14.58,6.7-9.85-15.37-13-12.61,1.18,5.52-6.3,5.12c-2.72-.14-3.72.6-4,1.53h8.53v10.25Zm-25-15.2v59.7h2.73V279.5H67.61v19h13.9V237.36H79.18V227.1h2.33v-2.36H79.18V214.49h3.45a4.54,4.54,0,0,1,0-1.92s-4.17-1.15,2.78-9.41c-3,.86-6.45-.07-9.87-2.41-5.56-3.8-10.46,4.34-12.62,8.79Z"></path><path d="M385.74,204.29c0-4.78,4.84-8.66,10.82-8.66a12.35,12.35,0,0,1,7.22,2.22,7.28,7.28,0,0,1,4.59-1.43c3.15,0,5.7,1.58,5.7,3.54s-2.55,3.54-5.7,3.54a8.69,8.69,0,0,1-1-.06,7.92,7.92,0,0,1,.05.85c0,4.78-4.84,8.66-10.82,8.66S385.74,209.07,385.74,204.29Z"></path><path d="M599.51,136.57c2.61,0,4.73,1.41,4.73,3.15s-2.12,3.15-4.73,3.15-4.72-1.41-4.72-3.15S596.9,136.57,599.51,136.57Z"></path><path d="M616.84,128.7c3.48,0,6.3,1.94,6.3,4.33s-2.82,4.33-6.3,4.33-6.3-1.94-6.3-4.33S613.36,128.7,616.84,128.7Z"></path></g></g><g id="freepik--factory-1--inject-2"><path d="M316.64,138.21c-1.09-11.63-2.46-27.32,5.61-37C332.39,89,358,95.33,372.38,94.36c1.45-.1,2.83-.2,4.17-.31h0c1.3-.17,2.62-.29,4-.37h0c5.38-.54,9.86-1.2,13.66-2l.23,0,1.88-.4.4-.09,1.66-.41.45-.12,1.5-.42.44-.13c.48-.14,1-.29,1.4-.44l.4-.13,1.3-.46.37-.14c.42-.16.83-.32,1.22-.49l.31-.13c.4-.17.8-.34,1.18-.52l.22-.1c.4-.19.79-.38,1.17-.58l.11-.06c4.93-2.56,8.12-5.63,12.3-9.1l.06,0,1-.83.29-.23.89-.71.41-.32.86-.66.49-.37.88-.64.55-.39.93-.64.6-.41,1.1-.71c.17-.11.34-.23.53-.34.56-.36,1.14-.71,1.75-1.08,1.14-.67,2.31-1.3,3.49-1.91l1.15-.56c.82-.4,1.64-.78,2.47-1.15l1.36-.58c.81-.34,1.63-.65,2.45-1,.45-.16.88-.34,1.33-.49,1.16-.4,2.32-.77,3.5-1.1.58-.16,1.16-.3,1.74-.44s1.27-.33,1.9-.46,1.41-.29,2.12-.42l1.43-.25c.79-.12,1.57-.24,2.36-.33l.77-.07a47.58,47.58,0,0,1,8.75-.13h.16c1,.08,2,.2,2.94.35h0a30.66,30.66,0,0,1,10.73,3.67c13.34-5.13,27.95-5.87,38.07-.34,18.11-6.67,38.32-5.28,46.32,8.87,9.66,17.1,5.2,21.56,14.86,21.56s14.13-5.21,20.82-2.23,10.4,8.17,12.63,8.17,8.18-6.69,14.12-3,9.67,13.38,9.67,13.38,3,11.89-11.15,9.66c-6.61-1-9.54-6-15.1-8-6-2.13-9.43,1.48-13.38,5.21.85-.79,1.67-1.59,2.5-2.32-.49,2.21-2,4.48-5.71,5.13h0c-.53.41-1.07.81-1.64,1.17-7.93,5-18.47,2.86-26.9-1.25-1.8-.87-3.56-1.84-5.31-2.83h0a5.91,5.91,0,0,1-.92,1.1l-.13.12a6.2,6.2,0,0,1-1.28.9,24.06,24.06,0,0,1-2.62,1.95c-7.94,5-18.47,2.86-26.91-1.25-2.11-1-4.17-2.18-6.22-3.36h0l-.07.06-1.07,1-.36.34-.87.78-.45.38c-.29.25-.59.49-.89.73l-.43.34c-.33.25-.68.49-1,.72-.58.58-1.19,1.16-1.83,1.7-9.3,7.81-22.27,12-34.35,11.87a43.42,43.42,0,0,1-16.57-3.87h0A54.66,54.66,0,0,1,443,136.43a44,44,0,0,1-17.27-4.17q-2.32.94-4.73,1.69l-1.27.37c-1,.28-2,.54-3,.76-.78.18-1.55.34-2.33.48l-1.52.26c-1.2.18-2.4.33-3.6.43l-.92.06c-1.35.09-2.69.14-4,.12-.71,0-1.42-.05-2.11-.1-1.15,13.69-1.57,27.89-1.57,27.89h-8.39s2.44-2.22.21-26c-.12-1.28-.24-2.61-.35-4l-1-.35-.71-.26c-.88-.32-1.74-.67-2.6-1l-.3-.13c-1-.44-2-.9-3.05-1.39l-.1,0c-1-.49-2-1-3-1.52l-.05,0c-4.87-2.54-9.64-5.41-14.51-8h0c-.11.58-.22,1.18-.31,1.83-2.23,15.61-3,40.87-3,40.87h-8.39s2.44-2.22.21-26c-.62-6.55-1.32-14.4-.37-21.73-.62-.19-1.23-.4-1.86-.57-14.12-3.71-23-8.17-25.27,7.44s-3,40.87-3,40.87h-8.39S318.87,162,316.64,138.21Z" style="opacity:0.15"></path><rect x="562.22" y="202.47" width="107.36" height="211.99" style="fill:#263238;stroke:#263238;stroke-linecap:round;stroke-linejoin:round"></rect><line x1="593.02" y1="225.14" x2="562.76" y2="225.14" style="fill:none;stroke:#fff;stroke-linecap:round;stroke-linejoin:round"></line><line x1="593.02" y1="261.17" x2="562.76" y2="261.17" style="fill:none;stroke:#fff;stroke-linecap:round;stroke-linejoin:round"></line><line x1="593.02" y1="298.59" x2="562.76" y2="298.59" style="fill:none;stroke:#fff;stroke-linecap:round;stroke-linejoin:round"></line><line x1="593.02" y1="337.41" x2="562.76" y2="337.41" style="fill:none;stroke:#fff;stroke-linecap:round;stroke-linejoin:round"></line><line x1="593.02" y1="373.44" x2="562.76" y2="373.44" style="fill:none;stroke:#fff;stroke-linecap:round;stroke-linejoin:round"></line><rect x="592.93" y="202.47" width="76.65" height="211.99" style="fill:#fff;stroke:#263238;stroke-linecap:round;stroke-linejoin:round"></rect><rect x="592.93" y="202.47" width="76.65" height="11.92" style="fill:#263238;stroke:#263238;stroke-linecap:round;stroke-linejoin:round"></rect><rect x="592.93" y="239.58" width="76.65" height="11.92" style="fill:#263238;stroke:#263238;stroke-linecap:round;stroke-linejoin:round"></rect><rect x="592.93" y="277.61" width="76.65" height="11.92" style="fill:#263238;stroke:#263238;stroke-linecap:round;stroke-linejoin:round"></rect><rect x="592.93" y="314.72" width="76.65" height="11.92" style="fill:#263238;stroke:#263238;stroke-linecap:round;stroke-linejoin:round"></rect><rect x="592.93" y="390.65" width="76.65" height="10.2" style="fill:#263238;stroke:#263238;stroke-linecap:round;stroke-linejoin:round"></rect><rect x="592.93" y="351.82" width="76.65" height="11.92" style="fill:#263238;stroke:#263238;stroke-linecap:round;stroke-linejoin:round"></rect><rect x="614.14" y="393.61" width="30.64" height="20.85" style="fill:#263238;stroke:#263238;stroke-linecap:round;stroke-linejoin:round"></rect><line x1="607.07" y1="208.98" x2="607.07" y2="392.43" style="fill:none;stroke:#263238;stroke-linecap:round;stroke-linejoin:round"></line><line x1="630.64" y1="208.98" x2="630.64" y2="392.43" style="fill:none;stroke:#263238;stroke-linecap:round;stroke-linejoin:round"></line><line x1="654.21" y1="208.98" x2="654.21" y2="392.43" style="fill:none;stroke:#263238;stroke-linecap:round;stroke-linejoin:round"></line><line x1="570.54" y1="208.98" x2="570.54" y2="392.43" style="fill:none;stroke:#fff;stroke-linecap:round;stroke-linejoin:round"></line><line x1="578" y1="208.98" x2="578" y2="392.43" style="fill:none;stroke:#fff;stroke-linecap:round;stroke-linejoin:round"></line><line x1="585.47" y1="208.98" x2="585.47" y2="392.43" style="fill:none;stroke:#fff;stroke-linecap:round;stroke-linejoin:round"></line><rect x="558.11" y="200.03" width="114.96" height="10.13" style="fill:#263238;stroke:#263238;stroke-linecap:round;stroke-linejoin:round"></rect><rect x="589.39" y="200.03" width="83.67" height="10.13" style="fill:#bdbdbd;stroke:#263238;stroke-miterlimit:10"></rect><rect x="558.11" y="237.74" width="114.96" height="10.13" style="fill:#263238;stroke:#263238;stroke-linecap:round;stroke-linejoin:round"></rect><rect x="589.39" y="237.74" width="83.67" height="10.13" style="fill:#bdbdbd;stroke:#263238;stroke-miterlimit:10"></rect><rect x="558.11" y="275.45" width="114.96" height="10.13" style="fill:#263238;stroke:#263238;stroke-linecap:round;stroke-linejoin:round"></rect><rect x="589.39" y="275.45" width="83.67" height="10.13" style="fill:#bdbdbd;stroke:#263238;stroke-miterlimit:10"></rect><rect x="558.11" y="313.17" width="114.96" height="10.13" style="fill:#263238;stroke:#263238;stroke-linecap:round;stroke-linejoin:round"></rect><rect x="589.39" y="313.17" width="83.67" height="10.13" style="fill:#bdbdbd;stroke:#263238;stroke-miterlimit:10"></rect><rect x="558.11" y="350.88" width="114.96" height="10.13" style="fill:#263238;stroke:#263238;stroke-linecap:round;stroke-linejoin:round"></rect><rect x="589.39" y="350.88" width="83.67" height="10.13" style="fill:#bdbdbd;stroke:#263238;stroke-miterlimit:10"></rect><rect x="558.11" y="388.59" width="114.96" height="10.13" style="fill:#263238;stroke:#263238;stroke-linecap:round;stroke-linejoin:round"></rect><rect x="589.39" y="388.59" width="83.67" height="10.13" style="fill:#bdbdbd;stroke:#263238;stroke-miterlimit:10"></rect><line x1="593.02" y1="225.14" x2="668.93" y2="225.14" style="fill:none;stroke:#263238;stroke-linecap:round;stroke-linejoin:round"></line><line x1="593.02" y1="261.17" x2="668.93" y2="261.17" style="fill:none;stroke:#263238;stroke-linecap:round;stroke-linejoin:round"></line><line x1="593.02" y1="298.59" x2="668.93" y2="298.59" style="fill:none;stroke:#263238;stroke-linecap:round;stroke-linejoin:round"></line><line x1="593.02" y1="337.41" x2="668.93" y2="337.41" style="fill:none;stroke:#263238;stroke-linecap:round;stroke-linejoin:round"></line><line x1="593.02" y1="373.44" x2="668.93" y2="373.44" style="fill:none;stroke:#263238;stroke-linecap:round;stroke-linejoin:round"></line><rect x="593.23" y="409.02" width="71.06" height="2.5" style="fill:#fff;stroke:#263238;stroke-linecap:round;stroke-linejoin:round"></rect><rect x="593.23" y="411.52" width="92.03" height="3.76" style="fill:#fff;stroke:#263238;stroke-linecap:round;stroke-linejoin:round"></rect><rect x="428.42" y="162.24" width="136.77" height="252.18" style="fill:#263238;stroke:#263238;stroke-linecap:round;stroke-linejoin:round"></rect><rect x="464.56" y="162.24" width="100.63" height="252.18" style="fill:#bdbdbd;stroke:#263238;stroke-miterlimit:10"></rect><rect x="488.42" y="390.32" width="76.76" height="24.1" style="fill:#263238;stroke:#263238;stroke-linecap:round;stroke-linejoin:round"></rect><rect x="506.18" y="390.32" width="4.18" height="24.1" style="fill:#fff;stroke:#263238;stroke-linecap:round;stroke-linejoin:round"></rect><rect x="527.73" y="390.32" width="4.18" height="24.1" style="fill:#fff;stroke:#263238;stroke-linecap:round;stroke-linejoin:round"></rect><rect x="549.29" y="390.32" width="4.18" height="24.1" style="fill:#fff;stroke:#263238;stroke-linecap:round;stroke-linejoin:round"></rect><line x1="502.87" y1="390.32" x2="502.87" y2="162.82" style="fill:none;stroke:#263238;stroke-linecap:round;stroke-linejoin:round"></line><line x1="451.52" y1="415.28" x2="451.52" y2="162.82" style="fill:none;stroke:#fff;stroke-linecap:round;stroke-linejoin:round"></line><line x1="439.07" y1="415.28" x2="439.07" y2="162.82" style="fill:none;stroke:#fff;stroke-linecap:round;stroke-linejoin:round"></line><line x1="541.08" y1="390.32" x2="541.08" y2="162.82" style="fill:none;stroke:#263238;stroke-linecap:round;stroke-linejoin:round"></line><line x1="465.08" y1="188.69" x2="564.6" y2="188.69" style="fill:none;stroke:#263238;stroke-linecap:round;stroke-linejoin:round"></line><line x1="465.08" y1="222.2" x2="564.6" y2="222.2" style="fill:none;stroke:#263238;stroke-linecap:round;stroke-linejoin:round"></line><line x1="465.08" y1="255.7" x2="564.6" y2="255.7" style="fill:none;stroke:#263238;stroke-linecap:round;stroke-linejoin:round"></line><line x1="465.08" y1="289.21" x2="564.6" y2="289.21" style="fill:none;stroke:#263238;stroke-linecap:round;stroke-linejoin:round"></line><line x1="465.08" y1="322.72" x2="564.6" y2="322.72" style="fill:none;stroke:#263238;stroke-linecap:round;stroke-linejoin:round"></line><line x1="465.08" y1="356.22" x2="564.6" y2="356.22" style="fill:none;stroke:#263238;stroke-linecap:round;stroke-linejoin:round"></line><line x1="465.08" y1="188.69" x2="428.25" y2="188.69" style="fill:none;stroke:#fff;stroke-linecap:round;stroke-linejoin:round"></line><line x1="465.08" y1="222.2" x2="428.25" y2="222.2" style="fill:none;stroke:#fff;stroke-linecap:round;stroke-linejoin:round"></line><line x1="465.08" y1="255.7" x2="428.25" y2="255.7" style="fill:none;stroke:#fff;stroke-linecap:round;stroke-linejoin:round"></line><line x1="465.08" y1="289.21" x2="428.25" y2="289.21" style="fill:none;stroke:#fff;stroke-linecap:round;stroke-linejoin:round"></line><line x1="465.08" y1="322.72" x2="428.25" y2="322.72" style="fill:none;stroke:#fff;stroke-linecap:round;stroke-linejoin:round"></line><line x1="465.08" y1="356.22" x2="428.25" y2="356.22" style="fill:none;stroke:#fff;stroke-linecap:round;stroke-linejoin:round"></line><line x1="428.8" y1="389.73" x2="564.6" y2="389.73" style="fill:none;stroke:#263238;stroke-linecap:round;stroke-linejoin:round"></line><polygon points="329.13 162.7 315.17 162.7 308.19 336.5 336.11 336.5 329.13 162.7" style="fill:#94006A;stroke:#263238;stroke-miterlimit:10"></polygon><path d="M329,164.23H315.26a1.5,1.5,0,0,1-1.5-1.5h0a1.5,1.5,0,0,1,1.5-1.5H329a1.5,1.5,0,0,1,1.5,1.5h0A1.5,1.5,0,0,1,329,164.23Z" style="fill:#fff;stroke:#263238;stroke-miterlimit:10"></path><polygon points="314.85 170.68 314.59 176.95 329.7 176.95 329.45 170.68 314.85 170.68" style="fill:#fff;stroke:#263238;stroke-miterlimit:10"></polygon><polygon points="335.15 312.57 334.89 306.3 309.4 306.3 309.15 312.57 335.15 312.57" style="fill:#fff;stroke:#263238;stroke-miterlimit:10"></polygon><polygon points="310.95 267.55 310.7 273.82 333.59 273.82 333.34 267.55 310.95 267.55" style="fill:#fff;stroke:#263238;stroke-miterlimit:10"></polygon><polygon points="310.18 286.93 309.93 293.2 334.37 293.2 334.12 286.93 310.18 286.93" style="fill:#fff;stroke:#263238;stroke-miterlimit:10"></polygon><polygon points="311.73 248.18 311.48 254.45 332.81 254.45 332.56 248.18 311.73 248.18" style="fill:#fff;stroke:#263238;stroke-miterlimit:10"></polygon><polygon points="314.07 190.06 313.81 196.32 330.48 196.32 330.23 190.06 314.07 190.06" style="fill:#fff;stroke:#263238;stroke-miterlimit:10"></polygon><polygon points="312.51 228.81 312.26 235.07 332.03 235.07 331.78 228.81 312.51 228.81" style="fill:#fff;stroke:#263238;stroke-miterlimit:10"></polygon><polygon points="313.29 209.43 313.04 215.7 331.25 215.7 331 209.43 313.29 209.43" style="fill:#fff;stroke:#263238;stroke-miterlimit:10"></polygon><polygon points="366.74 162.7 352.77 162.7 345.8 336.5 373.72 336.5 366.74 162.7" style="fill:#94006A;stroke:#263238;stroke-miterlimit:10"></polygon><path d="M366.65,164.23H352.86a1.5,1.5,0,0,1-1.49-1.5h0a1.5,1.5,0,0,1,1.49-1.5h13.79a1.5,1.5,0,0,1,1.5,1.5h0A1.5,1.5,0,0,1,366.65,164.23Z" style="fill:#fff;stroke:#263238;stroke-miterlimit:10"></path><polygon points="352.45 170.68 352.2 176.95 367.31 176.95 367.06 170.68 352.45 170.68" style="fill:#fff;stroke:#263238;stroke-miterlimit:10"></polygon><polygon points="372.76 312.57 372.5 306.3 347.01 306.3 346.76 312.57 372.76 312.57" style="fill:#fff;stroke:#263238;stroke-miterlimit:10"></polygon><polygon points="348.56 267.55 348.31 273.82 371.2 273.82 370.95 267.55 348.56 267.55" style="fill:#fff;stroke:#263238;stroke-miterlimit:10"></polygon><polygon points="347.79 286.93 347.53 293.2 371.98 293.2 371.73 286.93 347.79 286.93" style="fill:#fff;stroke:#263238;stroke-miterlimit:10"></polygon><polygon points="349.34 248.18 349.09 254.45 370.42 254.45 370.17 248.18 349.34 248.18" style="fill:#fff;stroke:#263238;stroke-miterlimit:10"></polygon><polygon points="351.68 190.06 351.43 196.32 368.09 196.32 367.83 190.06 351.68 190.06" style="fill:#fff;stroke:#263238;stroke-miterlimit:10"></polygon><polygon points="350.12 228.81 349.87 235.07 369.64 235.07 369.39 228.81 350.12 228.81" style="fill:#fff;stroke:#263238;stroke-miterlimit:10"></polygon><polygon points="350.9 209.43 350.65 215.7 368.87 215.7 368.61 209.43 350.9 209.43" style="fill:#fff;stroke:#263238;stroke-miterlimit:10"></polygon><polygon points="404.35 162.7 390.38 162.7 383.4 336.5 411.33 336.5 404.35 162.7" style="fill:#94006A;stroke:#263238;stroke-miterlimit:10"></polygon><path d="M404.26,164.23H390.47a1.5,1.5,0,0,1-1.49-1.5h0a1.5,1.5,0,0,1,1.49-1.5h13.79a1.5,1.5,0,0,1,1.49,1.5h0A1.5,1.5,0,0,1,404.26,164.23Z" style="fill:#fff;stroke:#263238;stroke-miterlimit:10"></path><polygon points="390.06 170.68 389.81 176.95 404.92 176.95 404.67 170.68 390.06 170.68" style="fill:#fff;stroke:#263238;stroke-miterlimit:10"></polygon><polygon points="410.37 312.57 410.11 306.3 384.62 306.3 384.37 312.57 410.37 312.57" style="fill:#fff;stroke:#263238;stroke-miterlimit:10"></polygon><polygon points="386.17 267.55 385.92 273.82 408.81 273.82 408.56 267.55 386.17 267.55" style="fill:#fff;stroke:#263238;stroke-miterlimit:10"></polygon><polygon points="385.39 286.93 385.14 293.2 409.59 293.2 409.33 286.93 385.39 286.93" style="fill:#fff;stroke:#263238;stroke-miterlimit:10"></polygon><polygon points="386.95 248.18 386.7 254.45 408.03 254.45 407.78 248.18 386.95 248.18" style="fill:#fff;stroke:#263238;stroke-miterlimit:10"></polygon><polygon points="389.29 190.06 389.03 196.32 405.7 196.32 405.44 190.06 389.29 190.06" style="fill:#fff;stroke:#263238;stroke-miterlimit:10"></polygon><polygon points="387.73 228.81 387.48 235.07 407.25 235.07 407 228.81 387.73 228.81" style="fill:#fff;stroke:#263238;stroke-miterlimit:10"></polygon><polygon points="388.51 209.43 388.26 215.7 406.47 215.7 406.22 209.43 388.51 209.43" style="fill:#fff;stroke:#263238;stroke-miterlimit:10"></polygon><rect x="229.4" y="315.17" width="179.63" height="100.11" style="fill:#263238;stroke:#263238;stroke-linecap:round;stroke-linejoin:round"></rect><rect x="308.45" y="315.17" width="190.17" height="100.11" style="fill:#bdbdbd;stroke:#263238;stroke-miterlimit:10"></rect><rect x="332.78" y="353.53" width="31.34" height="61.75" style="fill:#696969;stroke:#263238;stroke-miterlimit:10"></rect><rect x="332.78" y="353.53" width="26.2" height="61.75" style="fill:#263238;stroke:#263238;stroke-linecap:round;stroke-linejoin:round"></rect><rect x="388.91" y="353.53" width="31.34" height="61.75" style="fill:#696969;stroke:#263238;stroke-miterlimit:10"></rect><rect x="388.91" y="353.53" width="26.2" height="61.75" style="fill:#263238;stroke:#263238;stroke-linecap:round;stroke-linejoin:round"></rect><rect x="445.05" y="353.53" width="31.34" height="61.75" style="fill:#696969;stroke:#263238;stroke-miterlimit:10"></rect><rect x="445.05" y="353.53" width="26.2" height="61.75" style="fill:#263238;stroke:#263238;stroke-linecap:round;stroke-linejoin:round"></rect><rect x="236.61" y="326.63" width="17.1" height="15.68" style="fill:#d6d6d6;stroke:#263238;stroke-miterlimit:10"></rect><rect x="259.72" y="326.63" width="17.1" height="15.68" style="fill:#d6d6d6;stroke:#263238;stroke-miterlimit:10"></rect><rect x="282.83" y="326.63" width="17.1" height="15.68" style="fill:#d6d6d6;stroke:#263238;stroke-miterlimit:10"></rect><rect x="335.3" y="326.63" width="25.54" height="15.68" style="fill:#263238;stroke:#263238;stroke-linecap:round;stroke-linejoin:round"></rect><rect x="333.85" y="326.63" width="25.54" height="15.68" style="fill:#d6d6d6;stroke:#263238;stroke-miterlimit:10"></rect><rect x="391.38" y="326.63" width="25.54" height="15.68" style="fill:#263238;stroke:#263238;stroke-linecap:round;stroke-linejoin:round"></rect><rect x="389.93" y="326.63" width="25.54" height="15.68" style="fill:#d6d6d6;stroke:#263238;stroke-miterlimit:10"></rect><rect x="447.47" y="326.63" width="25.54" height="15.68" style="fill:#263238;stroke:#263238;stroke-linecap:round;stroke-linejoin:round"></rect><rect x="446.01" y="326.63" width="25.54" height="15.68" style="fill:#d6d6d6;stroke:#263238;stroke-miterlimit:10"></rect><rect x="204.15" y="342.14" width="22.75" height="13.17" style="fill:#d6d6d6;stroke:#263238;stroke-miterlimit:10"></rect><rect x="211.32" y="342.14" width="22.75" height="13.17" style="fill:#d6d6d6;stroke:#263238;stroke-miterlimit:10"></rect><rect x="198.62" y="349.54" width="56.08" height="65.73" style="fill:#263238;stroke:#263238;stroke-linecap:round;stroke-linejoin:round"></rect><rect x="240.23" y="349.54" width="56.08" height="65.73" style="fill:#bdbdbd;stroke:#263238;stroke-miterlimit:10"></rect><rect x="260.73" y="391.16" width="15.08" height="24.12" style="fill:#263238;stroke:#263238;stroke-linecap:round;stroke-linejoin:round"></rect><rect x="225.47" y="357.38" width="9.33" height="44.63" style="fill:#9e9e9e"></rect><rect x="213.55" y="357.38" width="9.33" height="44.63" style="fill:#9e9e9e"></rect><rect x="201.63" y="357.38" width="9.33" height="44.63" style="fill:#9e9e9e"></rect><rect x="314.71" y="325.39" width="13.42" height="89.48" style="fill:#263238;stroke:#263238;stroke-linecap:round;stroke-linejoin:round"></rect><rect x="316.82" y="325.39" width="13.42" height="89.48" style="fill:#94006A;stroke:#263238;stroke-miterlimit:10"></rect><rect x="369.46" y="325.39" width="13.42" height="89.48" style="fill:#263238;stroke:#263238;stroke-linecap:round;stroke-linejoin:round"></rect><rect x="371.56" y="325.39" width="13.42" height="89.48" style="fill:#94006A;stroke:#263238;stroke-miterlimit:10"></rect><rect x="425.51" y="325.39" width="13.42" height="89.48" style="fill:#263238;stroke:#263238;stroke-linecap:round;stroke-linejoin:round"></rect><rect x="427.62" y="325.39" width="13.42" height="89.48" style="fill:#94006A;stroke:#263238;stroke-miterlimit:10"></rect><rect x="481.64" y="325.39" width="13.42" height="89.48" style="fill:#263238;stroke:#263238;stroke-linecap:round;stroke-linejoin:round"></rect><rect x="483.75" y="325.39" width="13.42" height="89.48" style="fill:#94006A;stroke:#263238;stroke-miterlimit:10"></rect><path d="M734.38,249.64l10.89-.31-84.4-7.27s-20.35-16-43.61-17.44-24.71,17.44-33.43,14.53-10.17-14.53-32-13.08S524.24,240.6,509.7,237.7,485,204.27,441.39,202.81,344,242.06,344,242.06a91.42,91.42,0,0,1-13.21,7.58Z" style="fill:#fff;opacity:0.7000000000000001"></path><path d="M449.24,285.37l9.38-.27-113.91-6.26s-17.52-13.77-37.55-15-21.28,15-28.79,12.52-8.76-12.52-27.54-11.27-23.78,12.52-36.3,10-21.27-28.79-58.83-30-83.86,33.79-83.86,33.79a77.64,77.64,0,0,1-11.38,6.53Z" style="fill:#fff;opacity:0.7000000000000001"></path></g><g id="freepik--Truck--inject-2"><g style="opacity:0.21"><path d="M75.47,400.05A7.09,7.09,0,1,1,68.38,393,7.08,7.08,0,0,1,75.47,400.05Z"></path><path d="M61.29,395.13a6.23,6.23,0,1,1-6.22-6.23A6.22,6.22,0,0,1,61.29,395.13Z"></path><path d="M40.72,398A1.76,1.76,0,1,1,39,396.21,1.76,1.76,0,0,1,40.72,398Z"></path><path d="M45.59,386.6A3.66,3.66,0,1,1,41.94,383,3.65,3.65,0,0,1,45.59,386.6Z"></path></g><path d="M73.69,397.6h81.37v-3.25h13l8,4.71.23,7.34h-17.9v-4.71H128a15,15,0,0,1,.77,5.4h-1.39s-.31-4.17-1.15-5.33h-5.41v8.57H94v-8.26H89.49a9.6,9.6,0,0,0-1.22,5.06H86.78a10.3,10.3,0,0,1,1-5.06H75.47Z" style="fill:#263238;stroke:#263238;stroke-linecap:round;stroke-linejoin:round"></path><path d="M158.54,376.24a4.33,4.33,0,0,1,.71-2.13,5.34,5.34,0,0,1,3-1.28c.52-.07,13.58.13,15.52.83s2.31,1.42,2.31,1.74,3.8,9.79,3.8,9.79A10.33,10.33,0,0,1,185,387.7c.26,1.09-.06,10.23-.39,10.43a4.19,4.19,0,0,1-1.35.19l.13,1.29s2,0,2.06.38,0,7.92,0,7.92H175v-6.43a7.84,7.84,0,0,0-6.57-5.41c-5.47-.9-7.66-.26-7.66-.26h-2.64v-18Z" style="fill:#fff;stroke:#263238;stroke-linecap:round;stroke-linejoin:round"></path><polygon points="167.23 377.46 167.23 384.67 180.3 384.67 177.4 377.14 167.68 377.14 167.23 377.46" style="fill:none;stroke:#263238;stroke-miterlimit:10"></polygon><line x1="166.27" y1="376.69" x2="166.27" y2="392.78" style="fill:none;stroke:#263238;stroke-miterlimit:10"></line><path d="M175.54,398.39s-5.15-4.58-7.54-5.22-7.66,0-7.66,0" style="fill:none;stroke:#263238;stroke-miterlimit:10"></path><rect x="70.61" y="363.56" width="87.45" height="35.71" transform="translate(228.67 762.83) rotate(180)" style="fill:#94006A;stroke:#263238;stroke-miterlimit:10"></rect><rect x="70.61" y="396.36" width="87.45" height="2.91" transform="translate(228.67 795.63) rotate(180)" style="fill:#fff;stroke:#263238;stroke-linecap:round;stroke-linejoin:round"></rect><rect x="130.54" y="399.73" width="21.72" height="8.53" transform="translate(282.8 807.98) rotate(180)" style="fill:#595959;stroke:#263238;stroke-miterlimit:10"></rect><circle cx="165.71" cy="407.83" r="7.45" transform="translate(-269.29 475.4) rotate(-76.72)" style="fill:#424242;stroke:#263238;stroke-miterlimit:10"></circle><path d="M161.68,407.83a4,4,0,1,1,4,4A4,4,0,0,1,161.68,407.83Z" style="fill:#fff;stroke:#263238;stroke-linecap:round;stroke-linejoin:round"></path><circle cx="118.75" cy="407.83" r="7.45" transform="translate(-305.83 420.48) rotate(-75.47)" style="fill:#424242;stroke:#263238;stroke-miterlimit:10"></circle><path d="M114.72,407.83a4,4,0,1,1,4,4A4,4,0,0,1,114.72,407.83Z" style="fill:#fff;stroke:#263238;stroke-linecap:round;stroke-linejoin:round"></path><circle cx="97.8" cy="407.83" r="7.45" transform="translate(-259.73 188.61) rotate(-45)" style="fill:#424242;stroke:#263238;stroke-miterlimit:10"></circle><path d="M93.77,407.83a4,4,0,1,1,4,4A4,4,0,0,1,93.77,407.83Z" style="fill:#fff;stroke:#263238;stroke-linecap:round;stroke-linejoin:round"></path><line x1="182.01" y1="400.21" x2="182.01" y2="407.23" style="fill:none;stroke:#263238;stroke-linecap:round;stroke-linejoin:round"></line><rect x="178.84" y="377.33" width="1.36" height="9.51" transform="translate(359.04 764.17) rotate(180)" style="fill:#424242;stroke:#263238;stroke-miterlimit:10"></rect></g><g id="freepik--Floor--inject-2"><line x1="735.32" y1="415.28" x2="28.5" y2="415.28" style="fill:none;stroke:#263238;stroke-miterlimit:10"></line></g><g id="freepik--Character--inject-2"><path d="M149.6,244.35l-20,12.29s-7.54,10.72-5.16,12.3,12.1.6,14.48-1.38,13.49-9.13,13.49-9.13Z" style="fill:#94006A;stroke:#263238;stroke-miterlimit:10"></path><ellipse cx="146.05" cy="462.37" rx="55.61" ry="7.27" style="fill:#263238"></ellipse><path d="M129.76,186s-.28,7.71.82,10.46,3,3.86,3,6.34-1.1,5.51-1.1,6.33,4.68,1.65,4.68,1.65,5.24,8.82,6.61,8.82h0a3.74,3.74,0,0,0,2.43-.9l6.66-5.71s6.06,10.19,7.16,13.49,1.66,5.51,1.66,5.51L170,219.63s-6.34-10.74-6.89-13.77,8.54-10.19,5.51-21.76-15.7-17.35-25.34-14.6S124,175.56,122,179.14,129.76,186,129.76,186Z" style="fill:#fff;stroke:#263238;stroke-linecap:round;stroke-linejoin:round"></path><path d="M133.9,198.92s-1-1.12.16-1.44a8.46,8.46,0,0,1,3.18.16" style="fill:#fff;stroke:#263238;stroke-linecap:round;stroke-linejoin:round"></path><line x1="136.45" y1="200.82" x2="136.93" y2="202.89" style="fill:#fff;stroke:#263238;stroke-linecap:round;stroke-linejoin:round"></line><path d="M136.29,203.53s2.39-.32,3.34-1.75" style="fill:#fff;stroke:#263238;stroke-linecap:round;stroke-linejoin:round"></path><path d="M166.66,193.74s6.61,4.13,7.72,9.36,7.16,38.56,11,52.06,13.5,17.9,21.21,14,10.47-14.88,6.89-19.83-10.74-6.06-10.74-13.5,6.88-16-.83-27.27-20.38-11-25.62-12.39a17.42,17.42,0,0,1-8-4.41Z" style="fill:#263238;stroke:#263238;stroke-linecap:round;stroke-linejoin:round"></path><path d="M207.75,263.37a8,8,0,0,1-.81,1.9" style="fill:#263238;stroke:#fff;stroke-linecap:round;stroke-linejoin:round;stroke-width:0.5px"></path><path d="M171.14,195.57s.32,4.94,12.57,8.28,20,12.09,18.46,21.16-10.82,16.23-6.84,22.44c3.19,5,11.73,8.22,12.57,13.51" style="fill:#263238;stroke:#fff;stroke-linecap:round;stroke-linejoin:round;stroke-width:0.5px"></path><path d="M195.21,233.14a11.79,11.79,0,0,1-1,2.85" style="fill:#263238;stroke:#fff;stroke-linecap:round;stroke-linejoin:round;stroke-width:0.5px"></path><path d="M175.28,203.05s2.38,8.28,10.18,11.94a17.82,17.82,0,0,1,10,15.53" style="fill:#263238;stroke:#fff;stroke-linecap:round;stroke-linejoin:round;stroke-width:0.5px"></path><path d="M163.07,205.68c-.2-3.12,8.5-10.23,5.52-21.58-3-11.57-15.7-17.35-25.34-14.6S124,175.56,122,179.14s7.72,6.89,7.72,6.89,7.16,11.84,22.86,7.16C152.62,193.19,157.29,201.62,163.07,205.68Z" style="fill:#263238;stroke:#263238;stroke-linecap:round;stroke-linejoin:round"></path><path d="M164,190.2a6.31,6.31,0,0,1,1.77,1.08" style="fill:#263238;stroke:#fff;stroke-linecap:round;stroke-linejoin:round;stroke-width:0.5px"></path><path d="M129.77,181.25s3.66,6.05,13.2,7.48c6.72,1,13.29.12,18,.73" style="fill:#263238;stroke:#fff;stroke-linecap:round;stroke-linejoin:round;stroke-width:0.5px"></path><path d="M135.52,179.33a24.84,24.84,0,0,0,14.14,6.7c11,1.27,16.07-1.6,19.25,1.43" style="fill:#263238;stroke:#fff;stroke-linecap:round;stroke-linejoin:round;stroke-width:0.5px"></path><path d="M151.24,197.32s1.38-6.61,5.23-6.34,3.31,5.51,2.21,9.64-5,1.66-5,1.66" style="fill:#fff;stroke:#263238;stroke-linecap:round;stroke-linejoin:round"></path><path d="M171,450.2s-5.67,4.74-9.31,7.93-9.55,5.45-8,6.82,27.29.9,28.42.45.91-4.77.46-6.37-1.48-6.81-1.48-6.81Z" style="fill:#fff;stroke:#263238;stroke-linecap:round;stroke-linejoin:round"></path><path d="M183,462.41c-9.38,1-23.05.49-27.9.27-1.32.92-2,1.68-1.35,2.27,1.6,1.36,27.29.9,28.42.45C182.76,465.16,183,463.84,183,462.41Z" style="fill:#263238;stroke:#263238;stroke-linecap:round;stroke-linejoin:round"></path><path d="M143,312.89s1.69,41.16,3,55.33,10.79,37.11,12.14,44.19S171,450.2,171,450.2l10.13,2s1.68-6.07-.34-9.11a33.12,33.12,0,0,1-3.38-7.76s-6.07-36.43-8.43-46.22-5.06-20.58-4.39-23.61,5.06-31.72,5.4-33.07,9.45-8.77,10.8-17.2-3-17.88-3-17.88l-29.69-2Z" style="fill:#263238;stroke:#263238;stroke-linecap:round;stroke-linejoin:round"></path><path d="M186.05,442.7s-3,7.79-5,10.62-6.26,5.31-6.6,7.11,2.38,2,5.16,1.23,6.42-1,9-2.9,7.56-7.67,10.81-8.61,3.49-4.79,1.82-7.17-7.28-5.39-7.28-5.39Z" style="fill:#fff;stroke:#263238;stroke-linecap:round;stroke-linejoin:round"></path><path d="M179.62,461.66c2.78-.73,6.42-1,9-2.9s7.56-7.67,10.81-8.61c2.58-.74,3.26-3.33,2.59-5.56-.31.16-.63.34-1,.53-4.53,2.55-7,6.77-14.45,10.89s-12.2,4.42-12.2,4.42C174.12,462.23,176.84,462.4,179.62,461.66Z" style="fill:#263238;stroke:#263238;stroke-linecap:round;stroke-linejoin:round"></path><path d="M174.52,403.58c-6.44-10.55-20.34-31.37-20.34-31.37l11.62-35.43s11.52-15.36,14.31-19.2,1-9.08,1-9.08L143,312.89l-.25,15.51-3.57,22.84c-1.49,7.68-2.95,15.14-3.85,19.45-2.42,11.68,6.82,20.71,9.38,22.9,1.89,1.61,15.37,22.4,27,35.36.57,2.23,7.3,7.66,7.68,8.73.58,1.63,4.19,9.77,4.19,9.77L194,437.59S181,414.12,174.52,403.58Z" style="fill:#263238;stroke:#263238;stroke-linecap:round;stroke-linejoin:round"></path><line x1="158.08" y1="414.87" x2="177.42" y2="435.35" style="fill:none;stroke:#7d7d7d;stroke-linecap:round;stroke-linejoin:round"></line><polyline points="168.24 396.83 160.21 378.67 161.96 370.99" style="fill:none;stroke:#7d7d7d;stroke-linecap:round;stroke-linejoin:round"></polyline><path d="M164.92,218s-9.64,11.57-15.15,20.66-9.37,12.94-7.16,16.8,6.61,15.42,6.61,15.42S147,288,145.36,295.15s-7.44,22.59-7.44,22.59l24,5.23,11-21.21,5.51,22.59,14.05-3.86s-9.92-44.89-12.4-51.78,5.79-18.45,1.66-36.63S169.87,213.07,164.92,218Z" style="fill:#94006A;stroke:#263238;stroke-miterlimit:10"></path><path d="M198.79,263.48c-5.23-11.85-15.15-38-19.28-44.62s-8.26-4.41-8.26-4.41c6.06-1.93,11.57,13.5,11.57,13.5L198,267.33s-11.3,7.16-22.86,8-14.33-3.3-14.33-3.3.28-27.27,3-39.12,7.44-18.45,7.44-18.45a27.89,27.89,0,0,0-9.36,13.77c-2.76,9.09-3.31,33-3.58,47.1s-1.66,32.5,3.3,35.81,19.56,3.3,30.85.27,18.73-7.71,19-13.77S204,275.32,198.79,263.48Z" style="fill:#fff;stroke:#263238;stroke-linecap:round;stroke-linejoin:round"></path><path d="M200.09,266.39c-.42.19-1.19.52-2.14.91l0,0s-11.3,7.16-22.86,8-14.33-3.3-14.33-3.3,4.14,27.26,8,32.22,18.46,1.93,27-.27,14.6-4.69,15.43-7.44a4.14,4.14,0,0,1,.19-.53C210.6,289.62,204.77,276.86,200.09,266.39Z" style="fill:#263238;stroke:#263238;stroke-linecap:round;stroke-linejoin:round"></path><path d="M184.75,279.73s5.78-1.1,7.16-6.06-8.27-46-12.95-53.71-7.16-9.64-11-1.93c0,0-.55,21.48.56,31.4C168.5,249.43,172.9,272,184.75,279.73Z" style="fill:#94006A;stroke:#263238;stroke-miterlimit:10"></path><path d="M185.85,273.39a27.87,27.87,0,0,0-3-9.36c-2.48-4.41-8.82-13.22-12.95-20.38s-8.26-11-11.29-12.4-6.06-2.48-7.44-1.65a3.09,3.09,0,0,0-1.37,2.48,2.38,2.38,0,0,0-1.11,2.2,8.55,8.55,0,0,0,.28,2.48s-1.38,2.75.28,3.31l1.1-.28-.55-1.1s4.13,2.75,6.06,3.3a43.53,43.53,0,0,0,6.33.83s8.26,23.14,11.57,28.37,8.26,9.64,11,8.54S185.85,273.39,185.85,273.39Z" style="fill:#fff;stroke:#263238;stroke-linecap:round;stroke-linejoin:round"></path><path d="M130.56,269.94c-1.39.19-5.36.39-6.15-1s-.59-9.12-.2-10.91,17.46-33.92,17.46-33.92-9.13-7.93-9.32-9.12.79-8.73.79-8.73,1.59-1.19,1.59.4a37.13,37.13,0,0,0,.59,4.76s1.79-6,3-5.16-.4,5.75-.4,5.75,2.38-4.76,2.58-2.78-.79,4.17-1,5,2.38-4.36,2.58-2.38a15.4,15.4,0,0,1-.8,5s5.36,2.58,4.76,6.15-2,4.76-2,4.76l-9.72,39.68" style="fill:#fff;stroke:#263238;stroke-linecap:round;stroke-linejoin:round"></path><line x1="135.32" y1="211.42" x2="135.12" y2="215.38" style="fill:none;stroke:#263238;stroke-linecap:round;stroke-linejoin:round"></line><path d="M137.9,212s-1,3.37-.59,4.37" style="fill:none;stroke:#263238;stroke-linecap:round;stroke-linejoin:round"></path><path d="M139.49,214.19s-.6,3.18.2,3.77" style="fill:none;stroke:#263238;stroke-linecap:round;stroke-linejoin:round"></path></g></svg>