<svg xmlns="http://www.w3.org/2000/svg" viewBox="0 0 500 500"><g id="freepik--background-simple--inject-4"><path d="M463.08,304.93c-14.72,39.44-44.8,82.12-87.14,94.75-64,19.1-71.6,70.66-186.16,65.87a230.92,230.92,0,0,1-49.54-7.26A190.92,190.92,0,0,1,117,450.54C50,423.44,15.11,363.77,12.22,301.35c-3.83-82.1,53.46-121.24,90.69-144.15S185,45.5,297.67,49.31a224.22,224.22,0,0,1,50.92,7.44c37.9,10.26,76.44,33,98.83,66.13q2.52,3.74,4.82,7.64C482.21,181.36,483.15,251.17,463.08,304.93Z" style="fill:#108404"></path><path d="M463.08,304.93c-14.72,39.44-44.8,82.12-87.14,94.75-64,19.1-71.6,70.66-186.16,65.87a230.92,230.92,0,0,1-49.54-7.26A190.92,190.92,0,0,1,117,450.54C50,423.44,15.11,363.77,12.22,301.35c-3.83-82.1,53.46-121.24,90.69-144.15S185,45.5,297.67,49.31a224.22,224.22,0,0,1,50.92,7.44c37.9,10.26,76.44,33,98.83,66.13q2.52,3.74,4.82,7.64C482.21,181.36,483.15,251.17,463.08,304.93Z" style="fill:#fff;opacity:0.7000000000000001"></path></g><g id="freepik--Trees--inject-4"><path d="M329.93,255.09c0-.41-.3-.71-.6-.64l-17.17,3.67c-.61.13-.85-1-.29-1.32l17.3-9.76a.74.74,0,0,0,.31-.69c-.72-12.47-1.83-26.15-3.28-40.11,0-.39-.32-.66-.61-.58l-15.19,3.89c-.56.14-.86-.83-.39-1.25L324.66,195a.79.79,0,0,0,.22-.68c-.78-6.73-1.64-13.47-2.57-20.11l-1.2-6.64c-.07-.41-.41-.64-.7-.48L311.57,172c-.53.29-1-.6-.57-1.13l8.8-11.73a.83.83,0,0,0,.14-.64c-1.76-10.92-3.7-21.31-5.8-30.66-.1-.43-.48-.62-.77-.39L302,136.75c-.48.39-1-.38-.69-1l10-18.7a.89.89,0,0,0,.07-.64,152,152,0,0,0-5.64-17.56.46.46,0,0,0-.66-.3l-7.91,4.64c-.41.23-.84-.27-.71-.84l2.49-10c0-.18.22-.91.41-1.55l.65-2.57c-1.83-2.26-3.71-3.49-5.63-3.49s-4.06,1.39-6,4l2.95,13.62c.13.57-.3,1.07-.71.84L283.49,99a.46.46,0,0,0-.67.3,159.12,159.12,0,0,0-5.77,18.32.91.91,0,0,0,.06.63l9.37,17.48c.33.61-.21,1.38-.69,1l-10.57-8.67c-.29-.24-.67-.05-.77.39-2.11,9.48-4.06,20-5.83,31.06a.89.89,0,0,0,.14.63l8,10.66c.4.53,0,1.42-.56,1.13l-8.16-4.5c-.3-.17-.65.07-.71.5-1.32,8.9-2.51,18-3.57,27.16a.83.83,0,0,0,.22.68l13.78,12.51c.46.42.16,1.39-.39,1.25l-14.24-3.65c-.3-.07-.58.2-.62.59-1.46,14.07-2.57,27.85-3.28,40.4a.75.75,0,0,0,.31.69l16.35,9.22c.56.32.32,1.45-.29,1.32l-16.2-3.47c-.3-.06-.58.24-.6.65-.31,7.22-.48,13.9-.48,19.83,0,3.77.07,7.38.2,10.85a.66.66,0,0,0,.36.62L276,293.74c.55.23.45,1.3-.12,1.35l-16.15,1.44c-.3,0-.52.38-.49.77a140.16,140.16,0,0,0,5.3,29.41.49.49,0,0,0,.64.39l9.92-4.29c.51-.22.9.61.54,1.13l-7.67,10.9a.87.87,0,0,0-.06.83c6.58,14.51,16,20.78,26.5,20.78,10.27,0,19.54-6,26.11-19.93a.91.91,0,0,0-.06-.85l-8.26-11.73c-.36-.52,0-1.35.54-1.13l10.78,4.66c.26.11.54-.05.64-.39a139.48,139.48,0,0,0,5.41-29.69.68.68,0,0,0-.49-.78l-17.12-1.52c-.57,0-.67-1.12-.12-1.35l17.86-7.46a.63.63,0,0,0,.34-.48l.26-1.27s0-.1,0-.15q.14-4.47.14-9.25C330.42,269.14,330.25,262.39,329.93,255.09Z" style="fill:#108404"></path><path d="M329.93,255.09c0-.41-.3-.71-.6-.64l-17.17,3.67c-.61.13-.85-1-.29-1.32l17.3-9.76a.74.74,0,0,0,.31-.69c-.72-12.47-1.83-26.15-3.28-40.11,0-.39-.32-.66-.61-.58l-15.19,3.89c-.56.14-.86-.83-.39-1.25L324.66,195a.79.79,0,0,0,.22-.68c-.78-6.73-1.64-13.47-2.57-20.11l-1.2-6.64c-.07-.41-.41-.64-.7-.48L311.57,172c-.53.29-1-.6-.57-1.13l8.8-11.73a.83.83,0,0,0,.14-.64c-1.76-10.92-3.7-21.31-5.8-30.66-.1-.43-.48-.62-.77-.39L302,136.75c-.48.39-1-.38-.69-1l10-18.7a.89.89,0,0,0,.07-.64,152,152,0,0,0-5.64-17.56.46.46,0,0,0-.66-.3l-7.91,4.64c-.41.23-.84-.27-.71-.84l2.49-10c0-.18.22-.91.41-1.55l.65-2.57c-1.83-2.26-3.71-3.49-5.63-3.49s-4.06,1.39-6,4l2.95,13.62c.13.57-.3,1.07-.71.84L283.49,99a.46.46,0,0,0-.67.3,159.12,159.12,0,0,0-5.77,18.32.91.91,0,0,0,.06.63l9.37,17.48c.33.61-.21,1.38-.69,1l-10.57-8.67c-.29-.24-.67-.05-.77.39-2.11,9.48-4.06,20-5.83,31.06a.89.89,0,0,0,.14.63l8,10.66c.4.53,0,1.42-.56,1.13l-8.16-4.5c-.3-.17-.65.07-.71.5-1.32,8.9-2.51,18-3.57,27.16a.83.83,0,0,0,.22.68l13.78,12.51c.46.42.16,1.39-.39,1.25l-14.24-3.65c-.3-.07-.58.2-.62.59-1.46,14.07-2.57,27.85-3.28,40.4a.75.75,0,0,0,.31.69l16.35,9.22c.56.32.32,1.45-.29,1.32l-16.2-3.47c-.3-.06-.58.24-.6.65-.31,7.22-.48,13.9-.48,19.83,0,3.77.07,7.38.2,10.85a.66.66,0,0,0,.36.62L276,293.74c.55.23.45,1.3-.12,1.35l-16.15,1.44c-.3,0-.52.38-.49.77a140.16,140.16,0,0,0,5.3,29.41.49.49,0,0,0,.64.39l9.92-4.29c.51-.22.9.61.54,1.13l-7.67,10.9a.87.87,0,0,0-.06.83c6.58,14.51,16,20.78,26.5,20.78,10.27,0,19.54-6,26.11-19.93a.91.91,0,0,0-.06-.85l-8.26-11.73c-.36-.52,0-1.35.54-1.13l10.78,4.66c.26.11.54-.05.64-.39a139.48,139.48,0,0,0,5.41-29.69.68.68,0,0,0-.49-.78l-17.12-1.52c-.57,0-.67-1.12-.12-1.35l17.86-7.46a.63.63,0,0,0,.34-.48l.26-1.27s0-.1,0-.15q.14-4.47.14-9.25C330.42,269.14,330.25,262.39,329.93,255.09Z" style="fill:#fff;opacity:0.4"></path><polygon points="295.8 304.33 294.7 241.65 313.96 225.69 294.55 233.57 294.19 213.08 294.03 213.42 294.15 210.42 293.63 180.96 309.58 166.24 293.94 175.62 293.59 178.74 292.95 142.25 292.6 149.44 290.91 203.98 290.18 202.53 277.67 194.4 290.81 207.18 288.67 276.33 268.9 270.12 288.45 283.56 286.98 331.06 279.54 329.57 286.75 338.57 285.94 364.47 284.96 418.67 297.81 418.67 295.9 310.01 311.46 306.42 295.8 304.33" style="fill:#263238"></polygon><polygon points="295.8 304.33 294.7 241.65 313.96 225.69 294.55 233.57 294.19 213.08 294.03 213.42 294.15 210.42 293.63 180.96 309.58 166.24 293.94 175.62 293.59 178.74 292.95 142.25 292.6 149.44 290.91 203.98 290.18 202.53 277.67 194.4 290.81 207.18 288.67 276.33 268.9 270.12 288.45 283.56 286.98 331.06 279.54 329.57 286.75 338.57 285.94 364.47 284.96 418.67 297.81 418.67 295.9 310.01 311.46 306.42 295.8 304.33" style="fill:#fff;opacity:0.5"></polygon><path d="M476.33,302.14c0-.29-.21-.5-.43-.46l-12.23,2.62c-.43.09-.6-.71-.2-.94l12.32-6.95a.55.55,0,0,0,.22-.49c-.51-8.89-1.3-18.63-2.33-28.57,0-.28-.23-.48-.44-.42l-10.82,2.77c-.4.1-.61-.59-.28-.89l10.44-9.49a.56.56,0,0,0,.16-.48c-.56-4.8-1.18-9.6-1.84-14.33l-.85-4.73c-.05-.29-.29-.45-.5-.34l-6.3,3.47c-.37.21-.69-.42-.4-.8l6.27-8.35a.65.65,0,0,0,.1-.46c-1.26-7.78-2.64-15.18-4.14-21.84-.07-.31-.34-.45-.55-.28l-8.11,6.66c-.35.28-.73-.27-.5-.71l7.14-13.32a.63.63,0,0,0,.05-.45,108.07,108.07,0,0,0-4-12.51c-.09-.23-.29-.32-.47-.21l-5.63,3.3c-.29.17-.6-.19-.5-.6l1.76-7.1c0-.13.16-.65.3-1.1l.46-1.83c-1.31-1.61-2.65-2.49-4-2.49s-2.89,1-4.28,2.82l2.1,9.7c.09.41-.21.77-.5.6l-5.07-3c-.18-.11-.39,0-.48.22a114.61,114.61,0,0,0-4.11,13,.65.65,0,0,0,0,.46l6.67,12.44c.24.44-.15,1-.49.71l-7.53-6.17c-.21-.17-.48,0-.55.27-1.5,6.76-2.89,14.26-4.15,22.13a.59.59,0,0,0,.1.45l5.7,7.59c.28.38,0,1-.41.8l-5.81-3.2c-.21-.12-.46,0-.5.36-.94,6.34-1.79,12.84-2.54,19.34a.58.58,0,0,0,.15.49l9.82,8.91c.33.3.11,1-.28.89l-10.15-2.6c-.2-.05-.4.14-.43.42-1,10-1.84,19.84-2.34,28.78a.52.52,0,0,0,.22.49l11.64,6.57c.41.23.23,1-.2.94l-11.54-2.47c-.21-.05-.41.17-.43.46-.22,5.14-.34,9.9-.34,14.13,0,2.68.05,5.25.14,7.73a.49.49,0,0,0,.26.44l12.17,5.09c.39.16.32.92-.09,1l-11.51,1c-.21,0-.36.27-.34.55a100.31,100.31,0,0,0,3.77,21,.35.35,0,0,0,.46.28l7.06-3.06c.37-.15.65.44.39.81L432.17,359a.61.61,0,0,0-.05.6c4.69,10.33,11.41,14.79,18.88,14.79,7.32,0,13.92-4.29,18.6-14.19a.66.66,0,0,0,0-.61l-5.88-8.35c-.26-.37,0-1,.38-.81l7.68,3.32c.18.08.38,0,.46-.27a99.81,99.81,0,0,0,3.85-21.16.48.48,0,0,0-.35-.55l-12.2-1.08c-.41,0-.47-.8-.08-1l12.72-5.32a.48.48,0,0,0,.25-.35l.18-.9s0-.07,0-.11c.06-2.12.1-4.31.1-6.58C476.68,312.15,476.56,307.34,476.33,302.14Z" style="fill:#108404"></path><path d="M476.33,302.14c0-.29-.21-.5-.43-.46l-12.23,2.62c-.43.09-.6-.71-.2-.94l12.32-6.95a.55.55,0,0,0,.22-.49c-.51-8.89-1.3-18.63-2.33-28.57,0-.28-.23-.48-.44-.42l-10.82,2.77c-.4.1-.61-.59-.28-.89l10.44-9.49a.56.56,0,0,0,.16-.48c-.56-4.8-1.18-9.6-1.84-14.33l-.85-4.73c-.05-.29-.29-.45-.5-.34l-6.3,3.47c-.37.21-.69-.42-.4-.8l6.27-8.35a.65.65,0,0,0,.1-.46c-1.26-7.78-2.64-15.18-4.14-21.84-.07-.31-.34-.45-.55-.28l-8.11,6.66c-.35.28-.73-.27-.5-.71l7.14-13.32a.63.63,0,0,0,.05-.45,108.07,108.07,0,0,0-4-12.51c-.09-.23-.29-.32-.47-.21l-5.63,3.3c-.29.17-.6-.19-.5-.6l1.76-7.1c0-.13.16-.65.3-1.1l.46-1.83c-1.31-1.61-2.65-2.49-4-2.49s-2.89,1-4.28,2.82l2.1,9.7c.09.41-.21.77-.5.6l-5.07-3c-.18-.11-.39,0-.48.22a114.61,114.61,0,0,0-4.11,13,.65.65,0,0,0,0,.46l6.67,12.44c.24.44-.15,1-.49.71l-7.53-6.17c-.21-.17-.48,0-.55.27-1.5,6.76-2.89,14.26-4.15,22.13a.59.59,0,0,0,.1.45l5.7,7.59c.28.38,0,1-.41.8l-5.81-3.2c-.21-.12-.46,0-.5.36-.94,6.34-1.79,12.84-2.54,19.34a.58.58,0,0,0,.15.49l9.82,8.91c.33.3.11,1-.28.89l-10.15-2.6c-.2-.05-.4.14-.43.42-1,10-1.84,19.84-2.34,28.78a.52.52,0,0,0,.22.49l11.64,6.57c.41.23.23,1-.2.94l-11.54-2.47c-.21-.05-.41.17-.43.46-.22,5.14-.34,9.9-.34,14.13,0,2.68.05,5.25.14,7.73a.49.49,0,0,0,.26.44l12.17,5.09c.39.16.32.92-.09,1l-11.51,1c-.21,0-.36.27-.34.55a100.31,100.31,0,0,0,3.77,21,.35.35,0,0,0,.46.28l7.06-3.06c.37-.15.65.44.39.81L432.17,359a.61.61,0,0,0-.05.6c4.69,10.33,11.41,14.79,18.88,14.79,7.32,0,13.92-4.29,18.6-14.19a.66.66,0,0,0,0-.61l-5.88-8.35c-.26-.37,0-1,.38-.81l7.68,3.32c.18.08.38,0,.46-.27a99.81,99.81,0,0,0,3.85-21.16.48.48,0,0,0-.35-.55l-12.2-1.08c-.41,0-.47-.8-.08-1l12.72-5.32a.48.48,0,0,0,.25-.35l.18-.9s0-.07,0-.11c.06-2.12.1-4.31.1-6.58C476.68,312.15,476.56,307.34,476.33,302.14Z" style="fill:#fff;opacity:0.4"></path><polygon points="452.02 337.22 451.23 292.57 464.96 281.2 451.13 286.81 450.88 272.22 450.76 272.46 450.84 270.32 450.47 249.34 461.84 238.85 450.69 245.53 450.44 247.75 449.99 221.76 449.74 226.88 448.54 265.74 448.02 264.7 439.1 258.91 448.47 268.01 446.94 317.27 432.86 312.85 446.78 322.42 445.74 356.26 440.44 355.2 445.57 361.61 445 380.06 444.3 418.67 453.45 418.67 452.09 341.26 463.17 338.7 452.02 337.22" style="fill:#263238"></polygon><polygon points="452.02 337.22 451.23 292.57 464.96 281.2 451.13 286.81 450.88 272.22 450.76 272.46 450.84 270.32 450.47 249.34 461.84 238.85 450.69 245.53 450.44 247.75 449.99 221.76 449.74 226.88 448.54 265.74 448.02 264.7 439.1 258.91 448.47 268.01 446.94 317.27 432.86 312.85 446.78 322.42 445.74 356.26 440.44 355.2 445.57 361.61 445 380.06 444.3 418.67 453.45 418.67 452.09 341.26 463.17 338.7 452.02 337.22" style="fill:#fff;opacity:0.5"></polygon><path d="M236.74,333.18c0-.21-.15-.37-.31-.34l-9,1.92c-.32.07-.45-.52-.15-.69l9-5.1a.38.38,0,0,0,.17-.36c-.37-6.52-1-13.66-1.71-21,0-.2-.17-.34-.33-.3l-7.93,2c-.29.07-.45-.43-.21-.65l7.66-7a.44.44,0,0,0,.12-.36c-.41-3.52-.86-7-1.35-10.51l-.62-3.47c0-.22-.22-.33-.37-.25l-4.62,2.55c-.28.15-.51-.31-.3-.59l4.6-6.13a.42.42,0,0,0,.07-.33c-.92-5.71-1.93-11.14-3-16-.05-.23-.25-.32-.4-.2l-6,4.88c-.25.21-.53-.19-.36-.52L227,261a.53.53,0,0,0,0-.33,81.42,81.42,0,0,0-3-9.18.24.24,0,0,0-.35-.15l-4.13,2.42c-.21.12-.44-.14-.37-.44l1.3-5.21c0-.09.11-.48.21-.81l.34-1.34a4,4,0,0,0-2.94-1.83c-1.07,0-2.12.73-3.14,2.07l1.54,7.12c.07.3-.16.56-.37.44l-3.72-2.18c-.13-.08-.28,0-.35.16a82,82,0,0,0-3,9.57.46.46,0,0,0,0,.33l4.9,9.13c.17.33-.11.73-.37.52l-5.52-4.53c-.15-.12-.35,0-.4.21-1.1,4.95-2.12,10.45-3.05,16.23a.47.47,0,0,0,.08.33l4.18,5.57c.21.28,0,.74-.3.59l-4.26-2.35c-.16-.09-.34,0-.37.26-.69,4.65-1.31,9.42-1.87,14.19a.44.44,0,0,0,.12.36l7.2,6.54c.24.22.08.72-.21.65l-7.44-1.91c-.15,0-.3.1-.32.31-.76,7.35-1.34,14.56-1.72,21.11a.4.4,0,0,0,.17.36l8.54,4.82c.3.17.17.76-.15.69L199.89,333c-.16,0-.31.13-.32.34-.16,3.77-.25,7.26-.25,10.36,0,2,0,3.86.1,5.67a.4.4,0,0,0,.19.33l8.93,3.73c.29.12.24.68-.06.71l-8.45.75c-.15,0-.27.2-.25.4a73.46,73.46,0,0,0,2.77,15.37.25.25,0,0,0,.33.2l5.19-2.24c.26-.11.47.32.28.59l-4,5.7a.47.47,0,0,0,0,.43c3.44,7.58,8.37,10.86,13.85,10.86s10.21-3.15,13.64-10.41a.45.45,0,0,0,0-.45l-4.31-6.13c-.19-.27,0-.7.28-.59l5.63,2.44a.26.26,0,0,0,.34-.21,72.77,72.77,0,0,0,2.82-15.51c0-.21-.09-.4-.25-.41l-8.95-.79c-.3,0-.35-.59-.06-.71l9.33-3.9a.32.32,0,0,0,.18-.25l.14-.67v-.08c.05-1.55.08-3.16.08-4.83C237,340.52,236.91,337,236.74,333.18Z" style="fill:#108404"></path><path d="M236.74,333.18c0-.21-.15-.37-.31-.34l-9,1.92c-.32.07-.45-.52-.15-.69l9-5.1a.38.38,0,0,0,.17-.36c-.37-6.52-1-13.66-1.71-21,0-.2-.17-.34-.33-.3l-7.93,2c-.29.07-.45-.43-.21-.65l7.66-7a.44.44,0,0,0,.12-.36c-.41-3.52-.86-7-1.35-10.51l-.62-3.47c0-.22-.22-.33-.37-.25l-4.62,2.55c-.28.15-.51-.31-.3-.59l4.6-6.13a.42.42,0,0,0,.07-.33c-.92-5.71-1.93-11.14-3-16-.05-.23-.25-.32-.4-.2l-6,4.88c-.25.21-.53-.19-.36-.52L227,261a.53.53,0,0,0,0-.33,81.42,81.42,0,0,0-3-9.18.24.24,0,0,0-.35-.15l-4.13,2.42c-.21.12-.44-.14-.37-.44l1.3-5.21c0-.09.11-.48.21-.81l.34-1.34a4,4,0,0,0-2.94-1.83c-1.07,0-2.12.73-3.14,2.07l1.54,7.12c.07.3-.16.56-.37.44l-3.72-2.18c-.13-.08-.28,0-.35.16a82,82,0,0,0-3,9.57.46.46,0,0,0,0,.33l4.9,9.13c.17.33-.11.73-.37.52l-5.52-4.53c-.15-.12-.35,0-.4.21-1.1,4.95-2.12,10.45-3.05,16.23a.47.47,0,0,0,.08.33l4.18,5.57c.21.28,0,.74-.3.59l-4.26-2.35c-.16-.09-.34,0-.37.26-.69,4.65-1.31,9.42-1.87,14.19a.44.44,0,0,0,.12.36l7.2,6.54c.24.22.08.72-.21.65l-7.44-1.91c-.15,0-.3.1-.32.31-.76,7.35-1.34,14.56-1.72,21.11a.4.4,0,0,0,.17.36l8.54,4.82c.3.17.17.76-.15.69L199.89,333c-.16,0-.31.13-.32.34-.16,3.77-.25,7.26-.25,10.36,0,2,0,3.86.1,5.67a.4.4,0,0,0,.19.33l8.93,3.73c.29.12.24.68-.06.71l-8.45.75c-.15,0-.27.2-.25.4a73.46,73.46,0,0,0,2.77,15.37.25.25,0,0,0,.33.2l5.19-2.24c.26-.11.47.32.28.59l-4,5.7a.47.47,0,0,0,0,.43c3.44,7.58,8.37,10.86,13.85,10.86s10.21-3.15,13.64-10.41a.45.45,0,0,0,0-.45l-4.31-6.13c-.19-.27,0-.7.28-.59l5.63,2.44a.26.26,0,0,0,.34-.21,72.77,72.77,0,0,0,2.82-15.51c0-.21-.09-.4-.25-.41l-8.95-.79c-.3,0-.35-.59-.06-.71l9.33-3.9a.32.32,0,0,0,.18-.25l.14-.67v-.08c.05-1.55.08-3.16.08-4.83C237,340.52,236.91,337,236.74,333.18Z" style="fill:#fff;opacity:0.4"></path><polygon points="218.91 358.91 218.33 326.16 228.4 317.81 218.26 321.94 218.07 311.23 217.98 311.4 218.04 309.83 217.77 294.44 226.11 286.75 217.93 291.65 217.75 293.28 217.42 274.21 217.24 277.97 216.35 306.47 215.97 305.71 209.43 301.46 216.3 308.14 215.18 344.28 204.85 341.03 215.07 348.06 214.3 372.88 210.41 372.1 214.18 376.81 213.76 390.34 213.24 418.67 219.96 418.67 218.96 361.88 227.09 360 218.91 358.91" style="fill:#263238"></polygon><polygon points="218.91 358.91 218.33 326.16 228.4 317.81 218.26 321.94 218.07 311.23 217.98 311.4 218.04 309.83 217.77 294.44 226.11 286.75 217.93 291.65 217.75 293.28 217.42 274.21 217.24 277.97 216.35 306.47 215.97 305.71 209.43 301.46 216.3 308.14 215.18 344.28 204.85 341.03 215.07 348.06 214.3 372.88 210.41 372.1 214.18 376.81 213.76 390.34 213.24 418.67 219.96 418.67 218.96 361.88 227.09 360 218.91 358.91" style="fill:#fff;opacity:0.5"></polygon><path d="M113.78,333.18c0-.21-.16-.37-.32-.34l-9,1.92c-.32.07-.44-.52-.15-.69l9-5.1a.37.37,0,0,0,.16-.36c-.37-6.52-1-13.66-1.71-21,0-.2-.17-.34-.32-.3l-7.94,2c-.29.07-.45-.43-.21-.65l7.66-7a.41.41,0,0,0,.12-.36c-.41-3.52-.86-7-1.35-10.51l-.62-3.47c0-.22-.21-.33-.37-.25l-4.62,2.55c-.27.15-.51-.31-.3-.59l4.6-6.13a.42.42,0,0,0,.08-.33c-.92-5.71-1.94-11.14-3-16-.06-.23-.26-.32-.41-.2l-6,4.88c-.25.21-.54-.19-.37-.52L104,261a.42.42,0,0,0,0-.33,79.43,79.43,0,0,0-3-9.18.24.24,0,0,0-.35-.15l-4.13,2.42c-.21.12-.44-.14-.37-.44l1.3-5.21c0-.09.12-.48.22-.81l.34-1.34a4.06,4.06,0,0,0-3-1.83c-1.07,0-2.12.73-3.14,2.07l1.54,7.12c.07.3-.15.56-.37.44l-3.71-2.18a.24.24,0,0,0-.35.16,83.81,83.81,0,0,0-3,9.57.42.42,0,0,0,0,.33l4.89,9.13c.17.33-.11.73-.36.52l-5.52-4.53c-.16-.12-.36,0-.41.21-1.1,4.95-2.12,10.45-3,16.23a.46.46,0,0,0,.07.33L86,289.14c.21.28,0,.74-.29.59l-4.27-2.35c-.16-.09-.33,0-.37.26-.69,4.65-1.31,9.42-1.86,14.19a.44.44,0,0,0,.11.36l7.2,6.54c.24.22.09.72-.2.65l-7.44-1.91c-.16,0-.3.1-.33.31-.76,7.35-1.34,14.56-1.71,21.11a.39.39,0,0,0,.16.36l8.54,4.82c.3.17.17.76-.14.69L76.92,333c-.16,0-.3.13-.31.34-.17,3.77-.26,7.26-.26,10.36,0,2,0,3.86.11,5.67a.36.36,0,0,0,.19.33l8.92,3.73c.29.12.24.68-.06.71l-8.44.75c-.16,0-.27.2-.25.4a73.52,73.52,0,0,0,2.76,15.37c.06.17.2.26.34.2l5.18-2.24c.27-.11.47.32.28.59l-4,5.7a.44.44,0,0,0,0,.43c3.44,7.58,8.38,10.86,13.85,10.86s10.22-3.15,13.65-10.41a.51.51,0,0,0,0-.45l-4.32-6.13c-.19-.27,0-.7.28-.59l5.64,2.44a.26.26,0,0,0,.33-.21,72.71,72.71,0,0,0,2.83-15.51c0-.21-.1-.4-.25-.41l-8.95-.79c-.3,0-.35-.59-.07-.71l9.34-3.9a.38.38,0,0,0,.18-.25l.13-.67s0-.05,0-.08c.05-1.55.07-3.16.07-4.83C114,340.52,114,337,113.78,333.18Z" style="fill:#108404"></path><path d="M113.78,333.18c0-.21-.16-.37-.32-.34l-9,1.92c-.32.07-.44-.52-.15-.69l9-5.1a.37.37,0,0,0,.16-.36c-.37-6.52-1-13.66-1.71-21,0-.2-.17-.34-.32-.3l-7.94,2c-.29.07-.45-.43-.21-.65l7.66-7a.41.41,0,0,0,.12-.36c-.41-3.52-.86-7-1.35-10.51l-.62-3.47c0-.22-.21-.33-.37-.25l-4.62,2.55c-.27.15-.51-.31-.3-.59l4.6-6.13a.42.42,0,0,0,.08-.33c-.92-5.71-1.94-11.14-3-16-.06-.23-.26-.32-.41-.2l-6,4.88c-.25.21-.54-.19-.37-.52L104,261a.42.42,0,0,0,0-.33,79.43,79.43,0,0,0-3-9.18.24.24,0,0,0-.35-.15l-4.13,2.42c-.21.12-.44-.14-.37-.44l1.3-5.21c0-.09.12-.48.22-.81l.34-1.34a4.06,4.06,0,0,0-3-1.83c-1.07,0-2.12.73-3.14,2.07l1.54,7.12c.07.3-.15.56-.37.44l-3.71-2.18a.24.24,0,0,0-.35.16,83.81,83.81,0,0,0-3,9.57.42.42,0,0,0,0,.33l4.89,9.13c.17.33-.11.73-.36.52l-5.52-4.53c-.16-.12-.36,0-.41.21-1.1,4.95-2.12,10.45-3,16.23a.46.46,0,0,0,.07.33L86,289.14c.21.28,0,.74-.29.59l-4.27-2.35c-.16-.09-.33,0-.37.26-.69,4.65-1.31,9.42-1.86,14.19a.44.44,0,0,0,.11.36l7.2,6.54c.24.22.09.72-.2.65l-7.44-1.91c-.16,0-.3.1-.33.31-.76,7.35-1.34,14.56-1.71,21.11a.39.39,0,0,0,.16.36l8.54,4.82c.3.17.17.76-.14.69L76.92,333c-.16,0-.3.13-.31.34-.17,3.77-.26,7.26-.26,10.36,0,2,0,3.86.11,5.67a.36.36,0,0,0,.19.33l8.92,3.73c.29.12.24.68-.06.71l-8.44.75c-.16,0-.27.2-.25.4a73.52,73.52,0,0,0,2.76,15.37c.06.17.2.26.34.2l5.18-2.24c.27-.11.47.32.28.59l-4,5.7a.44.44,0,0,0,0,.43c3.44,7.58,8.38,10.86,13.85,10.86s10.22-3.15,13.65-10.41a.51.51,0,0,0,0-.45l-4.32-6.13c-.19-.27,0-.7.28-.59l5.64,2.44a.26.26,0,0,0,.33-.21,72.71,72.71,0,0,0,2.83-15.51c0-.21-.1-.4-.25-.41l-8.95-.79c-.3,0-.35-.59-.07-.71l9.34-3.9a.38.38,0,0,0,.18-.25l.13-.67s0-.05,0-.08c.05-1.55.07-3.16.07-4.83C114,340.52,114,337,113.78,333.18Z" style="fill:#fff;opacity:0.4"></path><polygon points="95.94 358.91 95.36 326.16 105.43 317.81 95.29 321.94 95.1 311.23 95.02 311.4 95.08 309.83 94.81 294.44 103.14 286.75 94.97 291.65 94.79 293.28 94.45 274.21 94.27 277.97 93.39 306.47 93 305.71 86.46 301.46 93.33 308.14 92.22 344.28 81.89 341.03 92.1 348.06 91.33 372.88 87.44 372.1 91.21 376.81 90.79 390.34 90.28 418.67 96.99 418.67 95.99 361.88 104.13 360 95.94 358.91" style="fill:#263238"></polygon><polygon points="95.94 358.91 95.36 326.16 105.43 317.81 95.29 321.94 95.1 311.23 95.02 311.4 95.08 309.83 94.81 294.44 103.14 286.75 94.97 291.65 94.79 293.28 94.45 274.21 94.27 277.97 93.39 306.47 93 305.71 86.46 301.46 93.33 308.14 92.22 344.28 81.89 341.03 92.1 348.06 91.33 372.88 87.44 372.1 91.21 376.81 90.79 390.34 90.28 418.67 96.99 418.67 95.99 361.88 104.13 360 95.94 358.91" style="fill:#fff;opacity:0.5"></polygon></g><g id="freepik--Plants--inject-4"><path d="M238.67,401.74a10.64,10.64,0,0,0,2.82-1.35s-1.16-1-1.24-1c-.95-.6-3.13-1.22-4.1-.42a1.49,1.49,0,0,0,0,2.22A3.12,3.12,0,0,0,238.67,401.74Z" style="fill:#108404"></path><path d="M256.7,392.56s-.44-1.46-.47-1.54c-.46-1-1.94-2.75-3.19-2.61a1.48,1.48,0,0,0-1.25,1.82,3.12,3.12,0,0,0,1.81,1.9A10.58,10.58,0,0,0,256.7,392.56Z" style="fill:#108404"></path><path d="M259.05,417.17q.65.79,1.17,1.5h.89c-.45-.57-1-1.22-1.55-1.92-.34-.41-.72-.84-1.1-1.27a13.74,13.74,0,0,0,1-1.35,9.72,9.72,0,0,0,2.61.18c.06.52.12,1,.16,1.5.1,1.09.16,2.05.21,2.86h.71c-.05-.83-.14-1.81-.27-2.92-.06-.53-.13-1.09-.21-1.67a9,9,0,0,0,2.47-1.12,2.73,2.73,0,0,0,1.05-2,1.31,1.31,0,0,0-1.5-1.24c-1.09.2-1.91,2-2.05,3,0,.06,0,.69,0,1.09,0-.23-.06-.46-.1-.7-.08-.48-.16-1-.25-1.47-.06-.25-.11-.5-.17-.75s-.13-.51-.19-.76c-.16-.6-.36-1.19-.57-1.78a8.77,8.77,0,0,0,2.53-.72,2.74,2.74,0,0,0,1.36-1.86,1.32,1.32,0,0,0-1.3-1.45c-1.11,0-2.2,1.7-2.48,2.64,0,.06-.14.77-.2,1.15-.12-.35-.25-.71-.39-1.06-.41-1-.86-2.05-1.3-3.08l-.39-.94a9,9,0,0,0,2.62-.73,2.73,2.73,0,0,0,1.35-1.86,1.31,1.31,0,0,0-1.3-1.45c-1.1,0-2.19,1.69-2.47,2.64,0,.07-.2,1.08-.23,1.34-.29-.69-.57-1.38-.82-2.08a22.13,22.13,0,0,1-.85-2.86,9.25,9.25,0,0,0,2.64-.73,2.73,2.73,0,0,0,1.35-1.86,1.31,1.31,0,0,0-1.3-1.45c-1.1,0-2.19,1.69-2.47,2.64,0,.06-.15.83-.21,1.2h-.06a16.53,16.53,0,0,1-.32-3c0-.56,0-1.09,0-1.6a8.49,8.49,0,0,0,2.64-.44,2.73,2.73,0,0,0,1.55-1.69,1.31,1.31,0,0,0-1.13-1.59c-1.1-.09-2.37,1.45-2.75,2.36,0,.05-.17.57-.28,1,0-.23,0-.47.05-.7.07-.83.18-1.59.29-2.26.06-.38.13-.72.19-1a8.56,8.56,0,0,0,2.13-1.6,2.76,2.76,0,0,0,.6-2.22,1.31,1.31,0,0,0-1.74-.88c-1,.42-1.44,2.37-1.35,3.35,0,.09.27,1.4.29,1.39h0c-.07.31-.14.64-.21,1-.12.67-.26,1.43-.34,2.26a22.85,22.85,0,0,0-.16,2.71,16.81,16.81,0,0,0,.26,3v0c-.15-.28-.6-1.07-.64-1.13-.58-.79-2.17-2-3.22-1.64a1.3,1.3,0,0,0-.73,1.8,2.77,2.77,0,0,0,1.9,1.29,9,9,0,0,0,2.72-.2,22.39,22.39,0,0,0,.81,3c.19.57.4,1.13.62,1.7l-.28-.49c-.58-.79-2.18-2-3.23-1.64a1.31,1.31,0,0,0-.73,1.8,2.76,2.76,0,0,0,1.91,1.29,8.54,8.54,0,0,0,2.64-.19c.08.22.17.43.26.65.41,1,.84,2.07,1.22,3.09.13.36.25.72.37,1.08l-.24-.42c-.59-.8-2.18-2-3.23-1.65a1.32,1.32,0,0,0-.73,1.81,2.76,2.76,0,0,0,1.91,1.29,8.4,8.4,0,0,0,2.57-.18c.11.38.22.75.31,1.11s.13.49.18.75.1.5.14.75c.08.48.16,1,.22,1.44s.08.64.12,1c-.13-.37-.4-1.07-.43-1.12a5,5,0,0,0-1.79-1.84,1.2,1.2,0,0,0-.15-.24,1.31,1.31,0,0,0-1.94-.2c-.8.76-.49,2.73-.06,3.61,0,.06.37.59.59.93l-.48-.53-1-1.09-.55-.53c-.18-.19-.39-.35-.58-.53-.47-.41-1-.79-1.46-1.17a8.6,8.6,0,0,0,1.72-2,2.76,2.76,0,0,0,.1-2.3,1.31,1.31,0,0,0-1.88-.49c-.9.64-.9,2.63-.61,3.57,0,.06.31.71.47,1.07-.3-.23-.6-.45-.92-.67-.9-.63-1.84-1.24-2.77-1.85l-.86-.57a9.07,9.07,0,0,0,1.79-2.06,2.74,2.74,0,0,0,.1-2.29,1.31,1.31,0,0,0-1.88-.5c-.9.64-.9,2.63-.61,3.57l.55,1.25c-.62-.42-1.24-.84-1.83-1.28a24.21,24.21,0,0,1-2.29-1.92,9,9,0,0,0,1.8-2.07,2.76,2.76,0,0,0,.1-2.3,1.31,1.31,0,0,0-1.88-.49c-.91.63-.9,2.63-.61,3.57,0,.06.33.78.49,1.11l0,0a16.19,16.19,0,0,1-1.91-2.32c-.32-.45-.6-.9-.86-1.34a8.79,8.79,0,0,0,2-1.82,2.73,2.73,0,0,0,.35-2.27,1.31,1.31,0,0,0-1.81-.7c-1,.53-1.18,2.51-1,3.48,0,.06.17.58.3,1l-.35-.6c-.4-.74-.72-1.43-1-2.05-.16-.35-.29-.68-.41-1a8.68,8.68,0,0,0,.89-2.5,2.76,2.76,0,0,0-.73-2.19,1.31,1.31,0,0,0-1.93.22c-.62.92.11,2.78.72,3.55.05.07,1,1,1,1l0,0c.11.29.23.61.37.95.27.62.58,1.33,1,2.07a21.66,21.66,0,0,0,1.36,2.35,16.83,16.83,0,0,0,1.88,2.37s0,0,0,0c-.28-.16-1.09-.57-1.15-.59-.93-.34-2.92-.46-3.6.41a1.3,1.3,0,0,0,.39,1.9,2.76,2.76,0,0,0,2.3,0,9.22,9.22,0,0,0,2.15-1.67,22.86,22.86,0,0,0,2.32,2c.47.37,1,.72,1.46,1.07l-.51-.25c-.93-.34-2.91-.46-3.6.41a1.31,1.31,0,0,0,.39,1.91,2.72,2.72,0,0,0,2.3,0,8.53,8.53,0,0,0,2.1-1.61l.57.4c.92.63,1.84,1.26,2.72,1.9.32.23.61.46.91.7l-.44-.22c-.92-.34-2.91-.46-3.59.41a1.32,1.32,0,0,0,.38,1.91,2.76,2.76,0,0,0,2.3,0,8.61,8.61,0,0,0,2-1.56c.3.25.6.49.88.75s.38.33.56.52l.53.55,1,1.08.62.73-1-.69c-.87-.48-2.81-.9-3.62-.14a1.31,1.31,0,0,0,.09,1.94,2.75,2.75,0,0,0,2.27.37,8.89,8.89,0,0,0,2.37-1.31Q258.6,416.6,259.05,417.17Z" style="fill:#108404"></path><path d="M457.6,396.73a14.39,14.39,0,0,1-3.8-1.81s1.57-1.31,1.68-1.38c1.27-.82,4.2-1.65,5.51-.57a2,2,0,0,1,0,3A4.18,4.18,0,0,1,457.6,396.73Z" style="fill:#108404"></path><path d="M433.94,384.39s.58-2,.63-2.08c.61-1.38,2.61-3.69,4.29-3.51a2,2,0,0,1,1.68,2.46,4.18,4.18,0,0,1-2.43,2.54A14.24,14.24,0,0,1,433.94,384.39Z" style="fill:#108404"></path><path d="M431.21,416.6c-.58.72-1.1,1.4-1.58,2h-1.19c.6-.77,1.3-1.64,2.09-2.58.46-.54,1-1.12,1.48-1.71a19.12,19.12,0,0,1-1.32-1.81,12.81,12.81,0,0,1-3.52.24c-.08.7-.15,1.38-.21,2-.13,1.45-.22,2.74-.27,3.83h-1c.08-1.11.19-2.43.37-3.92.08-.71.17-1.47.28-2.25a12,12,0,0,1-3.31-1.5,3.67,3.67,0,0,1-1.43-2.75,1.76,1.76,0,0,1,2-1.66c1.47.26,2.58,2.7,2.76,4,0,.07,0,.93,0,1.47,0-.32.09-.63.14-.95.1-.65.21-1.29.34-2l.21-1c.07-.34.18-.69.27-1,.22-.8.48-1.6.76-2.39a11.53,11.53,0,0,1-3.4-1,3.67,3.67,0,0,1-1.83-2.5,1.77,1.77,0,0,1,1.75-1.95c1.48,0,2.95,2.28,3.33,3.56,0,.08.19,1,.27,1.54.17-.48.34-1,.53-1.43.55-1.38,1.15-2.76,1.74-4.14.18-.42.36-.84.53-1.27a12.36,12.36,0,0,1-3.52-1,3.66,3.66,0,0,1-1.82-2.5,1.75,1.75,0,0,1,1.74-2c1.49,0,3,2.28,3.33,3.55,0,.1.26,1.46.31,1.81.39-.93.77-1.86,1.11-2.8a31.1,31.1,0,0,0,1.13-3.85,12.29,12.29,0,0,1-3.54-1,3.64,3.64,0,0,1-1.82-2.49,1.75,1.75,0,0,1,1.74-1.95c1.49,0,3,2.28,3.33,3.55,0,.08.2,1.12.28,1.61h.08a21.82,21.82,0,0,0,.43-4c0-.74,0-1.45,0-2.15a11.34,11.34,0,0,1-3.55-.59,3.67,3.67,0,0,1-2.08-2.28,1.76,1.76,0,0,1,1.52-2.13c1.48-.12,3.18,1.94,3.69,3.17,0,.07.24.77.38,1.29,0-.31,0-.63-.06-.93-.09-1.12-.25-2.14-.39-3-.09-.51-.17-1-.26-1.41a11.38,11.38,0,0,1-2.86-2.14,3.65,3.65,0,0,1-.8-3,1.76,1.76,0,0,1,2.33-1.19c1.37.57,1.93,3.19,1.82,4.51,0,.12-.36,1.89-.39,1.87h0c.09.41.18.85.27,1.34.17.9.35,1.92.46,3a27.77,27.77,0,0,1,.21,3.64,22,22,0,0,1-.34,4.06s0,0,0,.05c.2-.38.81-1.44.86-1.52.78-1.07,2.93-2.68,4.34-2.21a1.77,1.77,0,0,1,1,2.43,3.73,3.73,0,0,1-2.56,1.73,12.65,12.65,0,0,1-3.66-.27,31.67,31.67,0,0,1-1.08,4c-.26.77-.55,1.53-.84,2.29.18-.33.35-.62.38-.66.78-1.07,2.93-2.67,4.34-2.21a1.77,1.77,0,0,1,1,2.43,3.67,3.67,0,0,1-2.56,1.73,11.68,11.68,0,0,1-3.55-.25L431,399c-.56,1.39-1.13,2.78-1.64,4.16-.18.48-.35,1-.51,1.45l.33-.57c.79-1.07,2.93-2.68,4.34-2.21a1.76,1.76,0,0,1,1,2.43A3.7,3.7,0,0,1,432,406a11.41,11.41,0,0,1-3.45-.23c-.16.5-.31,1-.43,1.49-.08.34-.18.66-.24,1s-.13.68-.19,1c-.1.65-.21,1.31-.29,1.94-.06.44-.11.86-.16,1.28.17-.48.54-1.42.58-1.5a6.77,6.77,0,0,1,2.4-2.47,3,3,0,0,1,.21-.33,1.76,1.76,0,0,1,2.6-.27c1.07,1,.66,3.67.08,4.87,0,.07-.49.79-.79,1.24.22-.24.42-.47.65-.71.43-.49.88-1,1.37-1.46l.73-.72c.24-.25.53-.48.79-.72.62-.54,1.28-1.06,1.95-1.57a11.53,11.53,0,0,1-2.3-2.68,3.68,3.68,0,0,1-.14-3.09,1.75,1.75,0,0,1,2.53-.66c1.22.85,1.21,3.53.81,4.8,0,.07-.4.95-.62,1.43.41-.3.81-.61,1.23-.9,1.22-.85,2.48-1.67,3.74-2.49l1.14-.76a12.48,12.48,0,0,1-2.4-2.77,3.71,3.71,0,0,1-.14-3.09,1.76,1.76,0,0,1,2.53-.66c1.22.85,1.21,3.53.82,4.8,0,.1-.58,1.36-.74,1.67.84-.56,1.67-1.12,2.47-1.72a29.89,29.89,0,0,0,3.07-2.58,12.29,12.29,0,0,1-2.41-2.78,3.68,3.68,0,0,1-.14-3.09,1.75,1.75,0,0,1,2.53-.66c1.22.85,1.21,3.53.81,4.8,0,.08-.44,1-.65,1.5l.07.05a23.6,23.6,0,0,0,2.57-3.12c.43-.6.8-1.21,1.16-1.8a12,12,0,0,1-2.64-2.45,3.7,3.7,0,0,1-.48-3.06,1.75,1.75,0,0,1,2.44-.93c1.31.71,1.59,3.37,1.34,4.68,0,.07-.23.77-.39,1.28l.46-.81c.54-1,1-1.92,1.35-2.75.21-.48.39-.91.55-1.32a11.89,11.89,0,0,1-1.2-3.37,3.71,3.71,0,0,1,1-2.93,1.76,1.76,0,0,1,2.6.3c.83,1.23-.14,3.72-1,4.77-.07.09-1.34,1.37-1.35,1.34l0,0c-.15.4-.31.82-.5,1.28-.36.84-.78,1.79-1.3,2.79a33.31,33.31,0,0,1-1.83,3.15,22.88,22.88,0,0,1-2.53,3.2l0,0c.38-.21,1.47-.76,1.55-.79,1.25-.46,3.92-.62,4.84.55a1.75,1.75,0,0,1-.52,2.56,3.67,3.67,0,0,1-3.09,0,12.16,12.16,0,0,1-2.9-2.24,30.71,30.71,0,0,1-3.12,2.74c-.63.5-1.29,1-2,1.45l.68-.34c1.25-.46,3.92-.62,4.84.55a1.75,1.75,0,0,1-.52,2.56,3.63,3.63,0,0,1-3.09,0,11.72,11.72,0,0,1-2.82-2.16l-.77.53c-1.24.85-2.48,1.7-3.67,2.56-.42.31-.82.62-1.22.94l.59-.29c1.24-.46,3.92-.62,4.84.54a1.77,1.77,0,0,1-.52,2.57,3.69,3.69,0,0,1-3.1,0,11.42,11.42,0,0,1-2.75-2.1c-.4.34-.8.67-1.18,1s-.51.45-.75.71l-.72.73c-.43.48-.89,1-1.31,1.46l-.84,1c.42-.31,1.24-.89,1.31-.93,1.16-.65,3.78-1.21,4.87-.2a1.77,1.77,0,0,1-.13,2.62,3.68,3.68,0,0,1-3.05.5A12.43,12.43,0,0,1,432.5,415C432.05,415.57,431.61,416.1,431.21,416.6Z" style="fill:#108404"></path><path d="M325.36,401a11.83,11.83,0,0,1-3.07-1.46s1.27-1.06,1.35-1.12c1-.66,3.4-1.33,4.45-.46a1.61,1.61,0,0,1,0,2.4A3.38,3.38,0,0,1,325.36,401Z" style="fill:#108404"></path><path d="M306.26,391s.47-1.58.51-1.68c.5-1.11,2.11-3,3.46-2.83a1.61,1.61,0,0,1,1.36,2,3.41,3.41,0,0,1-2,2.06A11.78,11.78,0,0,1,306.26,391Z" style="fill:#108404"></path><path d="M304.06,417c-.47.58-.89,1.13-1.27,1.63h-1c.48-.62,1-1.32,1.68-2.08.37-.44.78-.91,1.2-1.38a14.9,14.9,0,0,1-1.07-1.47,10,10,0,0,1-2.84.2c-.06.57-.12,1.12-.17,1.64-.11,1.17-.17,2.21-.22,3.09h-.78c.06-.9.16-2,.3-3.17.06-.57.14-1.18.23-1.81a10,10,0,0,1-2.68-1.21,3,3,0,0,1-1.15-2.22,1.43,1.43,0,0,1,1.63-1.34c1.18.22,2.08,2.18,2.22,3.24,0,.07,0,.76,0,1.19,0-.26.07-.5.11-.77.08-.52.18-1,.28-1.59,0-.27.11-.54.17-.81s.14-.55.21-.83c.18-.64.39-1.29.62-1.93a9.5,9.5,0,0,1-2.75-.78,3,3,0,0,1-1.47-2,1.43,1.43,0,0,1,1.41-1.57c1.2,0,2.38,1.84,2.69,2.87,0,.06.15.82.21,1.24.14-.38.28-.77.43-1.15.45-1.12.93-2.23,1.41-3.34l.43-1a10.13,10.13,0,0,1-2.85-.8,3,3,0,0,1-1.47-2,1.43,1.43,0,0,1,1.41-1.58c1.2,0,2.39,1.84,2.69,2.87,0,.08.21,1.17.24,1.45.32-.75.63-1.5.9-2.25a24.89,24.89,0,0,0,.92-3.11,9.92,9.92,0,0,1-2.86-.8,3,3,0,0,1-1.47-2,1.41,1.41,0,0,1,1.41-1.57c1.19,0,2.38,1.84,2.68,2.86,0,.07.17.9.23,1.3h.06a17.71,17.71,0,0,0,.35-3.24c0-.6,0-1.18,0-1.73a9.81,9.81,0,0,1-2.86-.48,3,3,0,0,1-1.68-1.84,1.42,1.42,0,0,1,1.23-1.72c1.19-.1,2.57,1.57,3,2.55,0,.06.19.63.31,1.05,0-.25,0-.51,0-.75-.08-.91-.2-1.73-.32-2.46-.07-.41-.14-.78-.21-1.13a9.23,9.23,0,0,1-2.31-1.74,3,3,0,0,1-.65-2.41,1.43,1.43,0,0,1,1.89-1c1.1.47,1.56,2.58,1.47,3.65,0,.09-.3,1.52-.32,1.51l0,0c.07.34.15.7.23,1.09.13.72.27,1.55.37,2.45a26.78,26.78,0,0,1,.17,2.94,18.79,18.79,0,0,1-.28,3.28v0c.16-.31.65-1.16.7-1.22.63-.87,2.36-2.16,3.49-1.79a1.43,1.43,0,0,1,.8,2,3,3,0,0,1-2.07,1.4,10,10,0,0,1-2.95-.22,24.64,24.64,0,0,1-.88,3.23c-.21.62-.44,1.24-.67,1.85.15-.26.28-.5.31-.53.63-.86,2.36-2.16,3.5-1.79a1.42,1.42,0,0,1,.79,2,3,3,0,0,1-2.07,1.4,9.71,9.71,0,0,1-2.87-.2l-.27.7c-.46,1.12-.92,2.24-1.33,3.36-.15.39-.28.78-.41,1.17l.27-.46c.63-.86,2.36-2.16,3.5-1.79a1.42,1.42,0,0,1,.79,2,3,3,0,0,1-2.07,1.4,9.08,9.08,0,0,1-2.78-.19c-.13.41-.25.81-.35,1.21s-.14.53-.19.81-.1.54-.16.81c-.08.52-.16,1.06-.23,1.57,0,.35-.09.69-.13,1,.14-.39.44-1.15.47-1.21a5.47,5.47,0,0,1,1.94-2,1,1,0,0,1,.17-.27,1.42,1.42,0,0,1,2.1-.22c.86.83.53,3,.06,3.93,0,.06-.4.64-.63,1l.51-.58c.36-.39.72-.77,1.11-1.17l.59-.58c.2-.2.43-.39.64-.58.5-.44,1-.86,1.58-1.27a9.13,9.13,0,0,1-1.86-2.16,3,3,0,0,1-.12-2.5,1.42,1.42,0,0,1,2-.53c1,.69,1,2.85.66,3.87,0,.07-.33.77-.5,1.16.33-.24.65-.49,1-.73,1-.68,2-1.34,3-2l.92-.61a10,10,0,0,1-1.93-2.23,3,3,0,0,1-.12-2.5,1.42,1.42,0,0,1,2-.53c1,.69,1,2.85.66,3.87,0,.08-.47,1.1-.59,1.35.67-.45,1.34-.91,2-1.39a25.26,25.26,0,0,0,2.48-2.08,10,10,0,0,1-1.95-2.24A3,3,0,0,1,317,399a1.41,1.41,0,0,1,2-.53c1,.69,1,2.85.66,3.87,0,.07-.36.85-.53,1.21l0,0a17.09,17.09,0,0,0,2.08-2.51c.35-.49.65-1,.93-1.46a9.16,9.16,0,0,1-2.12-2,3,3,0,0,1-.39-2.46,1.42,1.42,0,0,1,2-.76c1.05.58,1.28,2.73,1.08,3.78,0,.06-.19.63-.32,1,.12-.22.26-.44.37-.65.44-.8.79-1.56,1.09-2.23.17-.38.32-.73.45-1.06a9.47,9.47,0,0,1-1-2.72,3,3,0,0,1,.79-2.36,1.42,1.42,0,0,1,2.1.23c.67,1-.12,3-.78,3.85-.06.08-1.08,1.11-1.1,1.09v0c-.12.31-.25.66-.41,1-.29.68-.62,1.45-1,2.26a25.79,25.79,0,0,1-1.48,2.54,18.3,18.3,0,0,1-2,2.58l0,0c.31-.17,1.19-.62,1.26-.64,1-.37,3.16-.5,3.9.44a1.42,1.42,0,0,1-.42,2.07,3,3,0,0,1-2.49,0,9.64,9.64,0,0,1-2.34-1.81,25.78,25.78,0,0,1-2.52,2.22c-.51.4-1,.78-1.58,1.16l.55-.27c1-.37,3.16-.5,3.9.44a1.41,1.41,0,0,1-.42,2.07,2.93,2.93,0,0,1-2.49,0,9.68,9.68,0,0,1-2.28-1.75l-.62.43c-1,.69-2,1.37-3,2.07-.33.24-.66.5-1,.75l.47-.23c1-.37,3.17-.5,3.91.44a1.42,1.42,0,0,1-.42,2.07,3,3,0,0,1-2.5,0,9.11,9.11,0,0,1-2.22-1.69c-.32.27-.65.54-.95.82s-.41.36-.61.57l-.58.59c-.35.39-.72.79-1.06,1.18s-.45.53-.67.79c.33-.25,1-.72,1.05-.76.94-.52,3.05-1,3.93-.15a1.42,1.42,0,0,1-.1,2.11,3,3,0,0,1-2.46.4,9.66,9.66,0,0,1-2.58-1.43Z" style="fill:#108404"></path><path d="M199.78,401.43a11.16,11.16,0,0,1-3-1.43s1.23-1,1.32-1.08c1-.64,3.3-1.29,4.33-.45a1.57,1.57,0,0,1,0,2.34A3.3,3.3,0,0,1,199.78,401.43Z" style="fill:#108404"></path><path d="M181.19,391.73s.46-1.54.5-1.63c.48-1.08,2-2.9,3.36-2.76a1.56,1.56,0,0,1,1.32,1.93,3.27,3.27,0,0,1-1.9,2A11.08,11.08,0,0,1,181.19,391.73Z" style="fill:#108404"></path><path d="M179.05,417c-.46.56-.87,1.09-1.24,1.58h-.94c.47-.6,1-1.29,1.64-2,.36-.43.76-.89,1.16-1.35a14.89,14.89,0,0,1-1-1.42,10.5,10.5,0,0,1-2.76.19c-.07.55-.12,1.08-.17,1.59-.11,1.14-.17,2.16-.22,3h-.75c.06-.87.15-1.91.28-3.08.06-.56.14-1.16.23-1.77a9.21,9.21,0,0,1-2.61-1.18,2.89,2.89,0,0,1-1.12-2.15,1.39,1.39,0,0,1,1.59-1.31c1.15.21,2,2.12,2.16,3.16,0,.06,0,.73,0,1.15,0-.25.07-.49.11-.75.08-.5.17-1,.26-1.55.06-.26.12-.52.17-.79s.14-.53.21-.8c.17-.63.38-1.26.6-1.88a9.2,9.2,0,0,1-2.67-.76,2.86,2.86,0,0,1-1.43-2,1.37,1.37,0,0,1,1.37-1.53c1.16,0,2.32,1.79,2.61,2.79,0,.06.15.8.21,1.21.14-.38.27-.75.42-1.13.43-1.08.9-2.16,1.37-3.25l.42-1a9.57,9.57,0,0,1-2.77-.77,2.9,2.9,0,0,1-1.43-2,1.38,1.38,0,0,1,1.37-1.53c1.17,0,2.32,1.79,2.61,2.79,0,.08.21,1.14.24,1.42.31-.73.61-1.46.87-2.2a23.52,23.52,0,0,0,.9-3A9.75,9.75,0,0,1,178,396a2.89,2.89,0,0,1-1.43-2,1.38,1.38,0,0,1,1.37-1.53c1.17,0,2.32,1.79,2.62,2.79,0,.07.16.88.22,1.27h.06a17.62,17.62,0,0,0,.34-3.16c0-.58,0-1.14,0-1.68a9.24,9.24,0,0,1-2.79-.46,2.89,2.89,0,0,1-1.64-1.8,1.38,1.38,0,0,1,1.19-1.67c1.17-.1,2.51,1.53,2.91,2.49,0,.05.18.61.3,1,0-.24,0-.49-.05-.73-.08-.88-.2-1.68-.31-2.39-.07-.4-.14-.76-.21-1.1a9.11,9.11,0,0,1-2.24-1.69,2.87,2.87,0,0,1-.63-2.34,1.38,1.38,0,0,1,1.83-.94c1.08.45,1.52,2.51,1.43,3.55,0,.09-.28,1.48-.3,1.47l0,0c.07.33.14.68.21,1.06.13.71.27,1.51.37,2.39a25.39,25.39,0,0,1,.16,2.86,17.77,17.77,0,0,1-.27,3.19v0c.16-.3.64-1.13.68-1.19.61-.84,2.3-2.1,3.41-1.74a1.39,1.39,0,0,1,.77,1.91,2.93,2.93,0,0,1-2,1.36,9.59,9.59,0,0,1-2.87-.21,23.26,23.26,0,0,1-.85,3.14c-.2.61-.43,1.2-.66,1.8l.3-.51c.62-.85,2.3-2.11,3.41-1.74a1.37,1.37,0,0,1,.77,1.9,2.87,2.87,0,0,1-2,1.36,9.19,9.19,0,0,1-2.79-.19l-.27.68c-.45,1.1-.89,2.19-1.29,3.27-.15.38-.27.76-.4,1.14l.26-.45c.62-.84,2.3-2.1,3.41-1.73a1.38,1.38,0,0,1,.77,1.9,2.9,2.9,0,0,1-2,1.36,9,9,0,0,1-2.71-.18c-.12.39-.24.79-.34,1.17s-.13.52-.18.79l-.15.79c-.08.51-.16,1-.23,1.53-.05.34-.08.67-.12,1,.13-.38.42-1.12.45-1.18a5.43,5.43,0,0,1,1.89-1.94,1.4,1.4,0,0,1,.16-.26,1.38,1.38,0,0,1,2-.21c.85.81.52,2.89.07,3.82,0,.06-.39.63-.62,1l.5-.56,1.08-1.15.58-.56c.19-.2.41-.37.62-.56.49-.43,1-.84,1.53-1.24a9.15,9.15,0,0,1-1.81-2.11,2.89,2.89,0,0,1-.11-2.42,1.37,1.37,0,0,1,2-.52c.95.67.95,2.77.64,3.77,0,.06-.32.75-.49,1.12l1-.7c.95-.67,1.94-1.31,2.93-2l.9-.6a9.41,9.41,0,0,1-1.88-2.17,2.88,2.88,0,0,1-.12-2.43,1.39,1.39,0,0,1,2-.52c1,.67.95,2.78.64,3.77,0,.08-.45,1.07-.58,1.32.66-.44,1.31-.89,1.94-1.35a25.46,25.46,0,0,0,2.42-2,9.73,9.73,0,0,1-1.9-2.19,2.89,2.89,0,0,1-.11-2.42,1.37,1.37,0,0,1,2-.52c.95.67.95,2.77.64,3.77,0,.06-.35.82-.52,1.17l.06,0a18,18,0,0,0,2-2.44c.33-.48.63-.95.91-1.42a9.15,9.15,0,0,1-2.07-1.93,2.89,2.89,0,0,1-.38-2.4,1.38,1.38,0,0,1,1.92-.73c1,.56,1.25,2.65,1.05,3.67,0,.06-.18.61-.31,1,.12-.22.25-.43.36-.64.42-.78.76-1.51,1.06-2.16.17-.38.31-.72.44-1a9.12,9.12,0,0,1-1-2.64,2.91,2.91,0,0,1,.78-2.31,1.38,1.38,0,0,1,2,.23c.65,1-.12,2.93-.76,3.75-.06.07-1.06,1.08-1.07,1.06v0c-.12.31-.25.64-.4,1-.28.66-.61,1.4-1,2.19a25,25,0,0,1-1.43,2.47,17.51,17.51,0,0,1-2,2.51l0,0,1.23-.62c1-.36,3.07-.49,3.79.43a1.37,1.37,0,0,1-.4,2,2.87,2.87,0,0,1-2.43,0,9.82,9.82,0,0,1-2.28-1.76,23.25,23.25,0,0,1-2.45,2.15c-.5.39-1,.77-1.54,1.14l.54-.27c1-.36,3.08-.48,3.8.43a1.39,1.39,0,0,1-.41,2,2.9,2.9,0,0,1-2.43,0,9.38,9.38,0,0,1-2.22-1.7l-.6.42c-1,.67-1.95,1.33-2.88,2-.33.24-.65.49-1,.74l.46-.23c1-.36,3.08-.49,3.8.43a1.38,1.38,0,0,1-.41,2,2.9,2.9,0,0,1-2.43,0,9.35,9.35,0,0,1-2.16-1.65c-.31.26-.63.52-.93.79s-.4.36-.58.56l-.57.57c-.34.38-.7.77-1,1.15l-.66.77,1-.74c.91-.5,3-.94,3.82-.15a1.38,1.38,0,0,1-.1,2.06,2.87,2.87,0,0,1-2.39.39,9.63,9.63,0,0,1-2.51-1.39C179.71,416.22,179.36,416.64,179.05,417Z" style="fill:#108404"></path><path d="M153.25,407.82a7.05,7.05,0,0,0,1.87-.89s-.77-.65-.82-.69c-.63-.4-2.08-.81-2.72-.28a1,1,0,0,0,0,1.47A2,2,0,0,0,153.25,407.82Z" style="fill:#108404"></path><path d="M164.92,401.73s-.28-1-.31-1c-.3-.68-1.28-1.82-2.11-1.73a1,1,0,0,0-.83,1.22,2.06,2.06,0,0,0,1.2,1.25A7,7,0,0,0,164.92,401.73Z" style="fill:#108404"></path><path d="M166.27,417.63q.43.53.78,1h.59c-.3-.38-.64-.81-1-1.27l-.73-.85a8.35,8.35,0,0,0,.65-.89,6.38,6.38,0,0,0,1.73.12c0,.35.08.68.11,1,.06.72.11,1.35.13,1.89H169c0-.55-.1-1.2-.18-1.94,0-.35-.09-.72-.14-1.1a6.14,6.14,0,0,0,1.63-.74,1.82,1.82,0,0,0,.71-1.36.88.88,0,0,0-1-.82c-.72.13-1.27,1.33-1.36,2,0,0,0,.46,0,.73,0-.16,0-.31-.07-.47-.05-.32-.11-.64-.17-1,0-.16-.07-.33-.11-.49a4.77,4.77,0,0,0-.13-.51c-.11-.39-.23-.79-.37-1.18a5.56,5.56,0,0,0,1.68-.48,1.76,1.76,0,0,0,.89-1.23.87.87,0,0,0-.86-1c-.73,0-1.45,1.12-1.64,1.75,0,0-.09.51-.13.76-.09-.23-.17-.47-.26-.7-.28-.68-.57-1.36-.86-2l-.27-.63a6.08,6.08,0,0,0,1.74-.48,1.84,1.84,0,0,0,.9-1.24.87.87,0,0,0-.86-1c-.73,0-1.46,1.13-1.64,1.75,0,.05-.13.72-.15.89-.2-.46-.38-.92-.55-1.38a15.16,15.16,0,0,1-.56-1.9,6.11,6.11,0,0,0,1.75-.48,1.84,1.84,0,0,0,.9-1.24.88.88,0,0,0-.86-1c-.74,0-1.46,1.13-1.65,1.76,0,0-.1.55-.13.79h-.05a11.5,11.5,0,0,1-.21-2c0-.37,0-.72,0-1.06a5.81,5.81,0,0,0,1.75-.29,1.84,1.84,0,0,0,1-1.12.88.88,0,0,0-.75-1.06c-.73-.06-1.58,1-1.83,1.57l-.18.63c0-.15,0-.31,0-.45,0-.56.12-1.06.19-1.51,0-.25.09-.48.13-.69a5.69,5.69,0,0,0,1.41-1.06,1.8,1.8,0,0,0,.4-1.47.87.87,0,0,0-1.15-.59c-.68.28-1,1.58-.9,2.23,0,0,.18.93.19.92h0c0,.21-.09.43-.14.67-.08.44-.17.94-.22,1.5a16.38,16.38,0,0,0-.11,1.79,11.77,11.77,0,0,0,.17,2v0c-.1-.19-.4-.71-.43-.75-.38-.53-1.44-1.32-2.14-1.09a.87.87,0,0,0-.48,1.2,1.82,1.82,0,0,0,1.26.85,6.25,6.25,0,0,0,1.81-.13,14.78,14.78,0,0,0,.53,2c.13.38.27.76.42,1.13l-.19-.32c-.39-.53-1.45-1.32-2.14-1.09a.87.87,0,0,0-.49,1.19,1.8,1.8,0,0,0,1.27.86,5.54,5.54,0,0,0,1.75-.13l.17.44c.28.68.56,1.37.81,2.05.09.24.17.48.25.71l-.16-.28c-.39-.52-1.45-1.32-2.14-1.09a.87.87,0,0,0-.49,1.2,1.82,1.82,0,0,0,1.27.85,5.41,5.41,0,0,0,1.7-.11c.07.25.15.49.21.74s.09.32.12.49l.09.5c0,.32.11.64.15,1s.05.42.07.63c-.08-.24-.26-.71-.28-.74a3.36,3.36,0,0,0-1.19-1.22.54.54,0,0,0-.1-.16.87.87,0,0,0-1.28-.14c-.53.51-.33,1.81,0,2.4l.39.62-.32-.36-.68-.72-.36-.35c-.12-.12-.26-.23-.39-.35q-.47-.4-1-.78a5.46,5.46,0,0,0,1.13-1.32,1.79,1.79,0,0,0,.07-1.53.86.86,0,0,0-1.25-.32c-.6.42-.59,1.74-.4,2.36,0,0,.2.48.31.71-.2-.15-.4-.3-.61-.44-.6-.42-1.22-.83-1.84-1.23l-.56-.38a6,6,0,0,0,1.18-1.36,1.86,1.86,0,0,0,.07-1.53.86.86,0,0,0-1.25-.32c-.6.42-.6,1.74-.4,2.36,0,0,.28.68.36.83-.41-.28-.82-.56-1.22-.85a14.47,14.47,0,0,1-1.51-1.27,6.46,6.46,0,0,0,1.19-1.37,1.86,1.86,0,0,0,.07-1.53.87.87,0,0,0-1.25-.33c-.6.42-.6,1.75-.4,2.37,0,0,.22.52.32.74l0,0a10.47,10.47,0,0,1-1.27-1.54,10.14,10.14,0,0,1-.57-.89,6.32,6.32,0,0,0,1.3-1.21,1.83,1.83,0,0,0,.23-1.51.87.87,0,0,0-1.2-.46c-.65.35-.79,1.67-.66,2.31,0,0,.11.38.19.64-.07-.14-.15-.27-.23-.4-.26-.49-.48-1-.66-1.36-.11-.24-.19-.45-.28-.65a5.94,5.94,0,0,0,.6-1.67,1.81,1.81,0,0,0-.49-1.44.86.86,0,0,0-1.28.14c-.41.61.07,1.84.48,2.36,0,0,.66.67.67.66h0c.08.19.16.4.26.63.17.41.38.88.63,1.37a15.25,15.25,0,0,0,.91,1.56,11.08,11.08,0,0,0,1.24,1.57l0,0-.77-.39c-.61-.23-1.93-.3-2.38.27a.88.88,0,0,0,.25,1.27,1.86,1.86,0,0,0,1.53,0,6.16,6.16,0,0,0,1.43-1.1,16.89,16.89,0,0,0,1.54,1.35c.31.24.64.48,1,.71l-.34-.16c-.62-.23-1.93-.31-2.39.27A.87.87,0,0,0,157,413a1.8,1.8,0,0,0,1.52,0,6,6,0,0,0,1.4-1.07l.38.26c.61.42,1.22.84,1.8,1.27l.61.46-.29-.15c-.62-.22-1.94-.3-2.39.27a.87.87,0,0,0,.26,1.27,1.76,1.76,0,0,0,1.52,0,5.38,5.38,0,0,0,1.36-1c.2.16.4.33.58.5a3.06,3.06,0,0,1,.37.35l.36.36c.21.24.44.48.64.72s.28.32.42.48l-.65-.46c-.57-.32-1.86-.6-2.4-.09a.86.86,0,0,0,.06,1.28,1.82,1.82,0,0,0,1.51.25,5.66,5.66,0,0,0,1.57-.87C165.86,417.12,166.07,417.38,166.27,417.63Z" style="fill:#108404"></path><path d="M175.44,406.71a7.64,7.64,0,0,0,2-.95s-.82-.69-.88-.73c-.67-.42-2.21-.86-2.89-.29a1,1,0,0,0,0,1.56A2.17,2.17,0,0,0,175.44,406.71Z" style="fill:#108404"></path><path d="M188.17,400.23s-.31-1-.33-1.09c-.33-.72-1.37-1.94-2.25-1.84a1.05,1.05,0,0,0-.89,1.29,2.19,2.19,0,0,0,1.28,1.33A7.46,7.46,0,0,0,188.17,400.23Z" style="fill:#108404"></path><path d="M189.83,417.61c.31.37.58.73.83,1.06h.62c-.31-.41-.68-.86-1.09-1.36-.24-.28-.5-.59-.78-.9a8.88,8.88,0,0,0,.7-1,6.47,6.47,0,0,0,1.84.13c0,.37.08.72.11,1.06.07.77.12,1.45.15,2h.5c0-.59-.1-1.28-.19-2.06,0-.38-.09-.78-.15-1.18a6.61,6.61,0,0,0,1.74-.79,1.94,1.94,0,0,0,.75-1.44.93.93,0,0,0-1.06-.88c-.77.14-1.35,1.42-1.45,2.11,0,0,0,.49,0,.77,0-.16-.05-.32-.08-.5s-.11-.67-.17-1l-.12-.53a5.36,5.36,0,0,0-.14-.54c-.11-.42-.25-.84-.4-1.26a6,6,0,0,0,1.79-.5,1.93,1.93,0,0,0,1-1.31.93.93,0,0,0-.92-1c-.78,0-1.55,1.2-1.75,1.87,0,0-.1.53-.14.81-.09-.25-.18-.5-.28-.75-.29-.73-.6-1.45-.91-2.18-.1-.22-.19-.44-.28-.66a6.54,6.54,0,0,0,1.85-.52,1.94,1.94,0,0,0,1-1.31.92.92,0,0,0-.92-1c-.78,0-1.55,1.19-1.75,1.86,0,0-.14.77-.16.95-.2-.49-.4-1-.58-1.47a15.46,15.46,0,0,1-.6-2,6.76,6.76,0,0,0,1.86-.52,1.91,1.91,0,0,0,1-1.31.93.93,0,0,0-.92-1c-.78,0-1.55,1.2-1.75,1.87,0,0-.1.59-.14.85h-.05a12.1,12.1,0,0,1-.22-2.11c0-.39,0-.76,0-1.13a6,6,0,0,0,1.86-.31,1.92,1.92,0,0,0,1.09-1.19.92.92,0,0,0-.79-1.12c-.78-.07-1.68,1-2,1.66l-.2.68c0-.16,0-.33,0-.49.05-.59.13-1.12.2-1.6,0-.27.09-.51.14-.73a6.19,6.19,0,0,0,1.5-1.13,1.92,1.92,0,0,0,.42-1.57.92.92,0,0,0-1.22-.63c-.72.3-1,1.68-1,2.37,0,.06.19,1,.21,1h0c-.05.22-.1.45-.15.7-.08.48-.18,1-.24,1.6a18.74,18.74,0,0,0-.11,1.91,13.22,13.22,0,0,0,.18,2.13v0l-.45-.8c-.42-.56-1.54-1.41-2.28-1.16a.92.92,0,0,0-.52,1.27,1.9,1.9,0,0,0,1.35.91,6.54,6.54,0,0,0,1.92-.14,14.89,14.89,0,0,0,.57,2.1c.13.41.28.81.44,1.21l-.2-.35c-.41-.56-1.54-1.41-2.28-1.16a.93.93,0,0,0-.52,1.27,1.9,1.9,0,0,0,1.35.91,5.92,5.92,0,0,0,1.86-.13c.07.15.12.31.19.46.29.73.59,1.46.86,2.18.09.26.18.51.26.77-.08-.16-.16-.28-.17-.3-.41-.57-1.54-1.41-2.28-1.16a.92.92,0,0,0-.51,1.27,1.94,1.94,0,0,0,1.34.91,6.19,6.19,0,0,0,1.82-.12c.08.26.16.52.22.78s.09.35.12.53.07.35.11.53l.15,1c0,.23.06.45.08.67-.09-.26-.28-.75-.3-.79a3.61,3.61,0,0,0-1.26-1.3,1,1,0,0,0-.11-.17.92.92,0,0,0-1.37-.14c-.56.54-.34,1.93,0,2.55l.41.66-.33-.38-.73-.77-.38-.37-.41-.38c-.33-.28-.68-.56-1-.82a6.27,6.27,0,0,0,1.21-1.41,1.92,1.92,0,0,0,.07-1.62.91.91,0,0,0-1.33-.35c-.63.44-.63,1.85-.42,2.52,0,0,.21.5.33.75l-.65-.47c-.64-.45-1.3-.88-2-1.31l-.6-.4a6.38,6.38,0,0,0,1.25-1.45,1.92,1.92,0,0,0,.08-1.62.93.93,0,0,0-1.33-.35c-.64.45-.63,1.85-.43,2.52,0,.05.31.71.39.88-.44-.3-.88-.6-1.3-.91a16.42,16.42,0,0,1-1.61-1.35,6.56,6.56,0,0,0,1.27-1.46,1.92,1.92,0,0,0,.07-1.62.91.91,0,0,0-1.33-.35c-.64.44-.63,1.85-.43,2.52,0,0,.24.55.35.78l0,0a12.54,12.54,0,0,1-1.35-1.63c-.22-.32-.42-.64-.61-1A6.38,6.38,0,0,0,179.4,405a1.94,1.94,0,0,0,.25-1.6.92.92,0,0,0-1.28-.49c-.69.37-.84,1.77-.71,2.45,0,0,.13.41.21.68-.08-.14-.17-.29-.24-.43-.28-.51-.51-1-.71-1.44-.11-.25-.2-.48-.29-.69a6.24,6.24,0,0,0,.63-1.77,1.92,1.92,0,0,0-.52-1.54.91.91,0,0,0-1.36.15c-.44.65.08,2,.51,2.51,0,0,.7.72.71.7h0c.08.21.16.43.26.67.19.44.41.94.68,1.46a18.62,18.62,0,0,0,1,1.66,12.44,12.44,0,0,0,1.32,1.68h0l-.82-.41c-.65-.24-2-.33-2.54.29a.92.92,0,0,0,.28,1.34,1.91,1.91,0,0,0,1.62,0,6.53,6.53,0,0,0,1.52-1.18,15.22,15.22,0,0,0,1.64,1.44c.33.26.68.51,1,.76l-.36-.18c-.65-.24-2.06-.32-2.54.29a.93.93,0,0,0,.27,1.35,1.93,1.93,0,0,0,1.63,0,6,6,0,0,0,1.48-1.13l.4.28c.65.44,1.3.89,1.93,1.34l.64.49-.31-.15c-.65-.24-2.06-.33-2.54.29a.92.92,0,0,0,.27,1.34,1.93,1.93,0,0,0,1.63,0,5.86,5.86,0,0,0,1.44-1.1c.21.17.43.35.62.53l.4.37.37.38.69.77.44.52c-.21-.17-.65-.47-.69-.5-.6-.33-2-.63-2.55-.1a.93.93,0,0,0,.07,1.38,2,2,0,0,0,1.6.26,6.36,6.36,0,0,0,1.67-.93C189.39,417.06,189.62,417.34,189.83,417.61Z" style="fill:#108404"></path><path d="M330,403.18a10.39,10.39,0,0,1-2.68-1.28s1.1-.93,1.18-1c.9-.58,3-1.16,3.89-.4a1.4,1.4,0,0,1,0,2.1A2.94,2.94,0,0,1,330,403.18Z" style="fill:#108404"></path><path d="M313.33,394.46s.41-1.38.45-1.47c.43-1,1.84-2.6,3-2.48a1.41,1.41,0,0,1,1.19,1.74,2.94,2.94,0,0,1-1.72,1.8A10,10,0,0,1,313.33,394.46Z" style="fill:#108404"></path><path d="M311.4,417.21c-.4.51-.78,1-1.11,1.42h-.84c.42-.54.92-1.15,1.47-1.82.33-.38.68-.79,1.05-1.2a13.21,13.21,0,0,1-.93-1.29,9.23,9.23,0,0,1-2.49.18c-.05.49-.11,1-.15,1.43-.09,1-.15,1.94-.19,2.7h-.68c.05-.78.13-1.71.26-2.77,0-.5.12-1,.2-1.58a8.53,8.53,0,0,1-2.34-1.06,2.58,2.58,0,0,1-1-1.94,1.25,1.25,0,0,1,1.43-1.18c1,.19,1.82,1.91,1.94,2.84,0,.05,0,.66,0,1,0-.23.07-.44.1-.67.07-.46.15-.91.24-1.4l.15-.71c.05-.23.13-.48.19-.72.16-.57.34-1.13.54-1.69a8.09,8.09,0,0,1-2.4-.68,2.59,2.59,0,0,1-1.29-1.77,1.25,1.25,0,0,1,1.23-1.38c1,0,2.09,1.61,2.35,2.51,0,.06.14.73.19,1.09.12-.33.24-.67.38-1,.39-1,.81-1.95,1.23-2.92.13-.3.25-.6.37-.89a8.51,8.51,0,0,1-2.48-.7,2.59,2.59,0,0,1-1.29-1.76,1.24,1.24,0,0,1,1.23-1.38c1.05,0,2.09,1.61,2.35,2.51,0,.07.19,1,.22,1.27.27-.66.54-1.31.78-2a22.07,22.07,0,0,0,.81-2.72,8.72,8.72,0,0,1-2.51-.7,2.6,2.6,0,0,1-1.29-1.76,1.25,1.25,0,0,1,1.24-1.38c1.05,0,2.08,1.61,2.35,2.51,0,.06.14.79.19,1.14H313a15.8,15.8,0,0,0,.31-2.84c0-.52,0-1,0-1.51a8.11,8.11,0,0,1-2.5-.42,2.55,2.55,0,0,1-1.47-1.61,1.23,1.23,0,0,1,1.07-1.5c1-.09,2.25,1.37,2.61,2.23,0,.05.17.55.27.92,0-.22,0-.45,0-.66-.07-.79-.18-1.51-.28-2.15-.06-.36-.13-.69-.19-1a8.18,8.18,0,0,1-2-1.52,2.58,2.58,0,0,1-.56-2.11,1.24,1.24,0,0,1,1.64-.84c1,.41,1.37,2.26,1.29,3.19,0,.08-.26,1.33-.27,1.32h0c.06.29.13.61.19.95.12.64.25,1.36.33,2.15a20.56,20.56,0,0,1,.15,2.57,16.81,16.81,0,0,1-.24,2.86v0c.14-.27.57-1,.61-1.07.55-.76,2.06-1.9,3.06-1.57a1.24,1.24,0,0,1,.69,1.72,2.62,2.62,0,0,1-1.81,1.22,8.5,8.5,0,0,1-2.58-.19,21.67,21.67,0,0,1-.77,2.83c-.18.54-.38,1.08-.59,1.61l.27-.46c.56-.76,2.07-1.89,3.07-1.56a1.25,1.25,0,0,1,.69,1.71,2.58,2.58,0,0,1-1.81,1.22,8.41,8.41,0,0,1-2.51-.17l-.24.61c-.4,1-.8,2-1.16,2.94-.13.34-.25.68-.36,1,.12-.21.22-.38.23-.41.56-.75,2.07-1.89,3.07-1.56a1.24,1.24,0,0,1,.69,1.71,2.6,2.6,0,0,1-1.81,1.23,7.87,7.87,0,0,1-2.44-.17c-.11.36-.21.71-.3,1.06s-.12.46-.17.71l-.13.71c-.07.45-.15.92-.21,1.37s-.07.61-.11.9c.12-.34.38-1,.41-1.06a4.73,4.73,0,0,1,1.69-1.74,1.14,1.14,0,0,1,.15-.23,1.24,1.24,0,0,1,1.84-.2c.76.73.46,2.6.05,3.44,0,.05-.34.56-.55.88.15-.17.3-.33.45-.51.31-.34.63-.67,1-1l.52-.5c.17-.18.37-.34.56-.51q.66-.57,1.38-1.11a8.08,8.08,0,0,1-1.63-1.89,2.6,2.6,0,0,1-.1-2.18,1.23,1.23,0,0,1,1.79-.47c.86.6.85,2.49.57,3.39,0,.05-.28.67-.44,1,.29-.21.57-.43.87-.64.86-.59,1.75-1.17,2.64-1.75l.81-.54a8.83,8.83,0,0,1-1.7-2,2.6,2.6,0,0,1-.1-2.18,1.25,1.25,0,0,1,1.79-.47c.86.61.85,2.5.58,3.39,0,.07-.41,1-.52,1.18.59-.39,1.18-.79,1.74-1.21a21.53,21.53,0,0,0,2.17-1.82,8.84,8.84,0,0,1-1.7-2,2.53,2.53,0,0,1-.1-2.18,1.24,1.24,0,0,1,1.78-.47c.86.61.85,2.5.58,3.39,0,.06-.32.74-.47,1.06l.05,0a15.83,15.83,0,0,0,1.82-2.2c.3-.43.57-.86.82-1.28a8,8,0,0,1-1.86-1.73,2.57,2.57,0,0,1-.34-2.15,1.24,1.24,0,0,1,1.72-.67c.92.51,1.12,2.39.95,3.31,0,0-.17.55-.28.91l.32-.57c.38-.7.69-1.36,1-1.95.15-.33.27-.64.39-.93a8.07,8.07,0,0,1-.85-2.38,2.56,2.56,0,0,1,.7-2.07,1.24,1.24,0,0,1,1.83.21c.59.87-.1,2.63-.68,3.37-.05.06-1,1-1,.95v0l-.36.9c-.25.59-.55,1.26-.91,2a23.08,23.08,0,0,1-1.3,2.22,16,16,0,0,1-1.78,2.26l0,0c.27-.15,1-.54,1.1-.56.88-.33,2.77-.44,3.42.38a1.24,1.24,0,0,1-.37,1.81,2.59,2.59,0,0,1-2.18,0,8.74,8.74,0,0,1-2-1.59,21.77,21.77,0,0,1-2.2,1.94c-.45.35-.92.69-1.39,1l.49-.24c.87-.32,2.76-.43,3.41.39a1.23,1.23,0,0,1-.37,1.81,2.56,2.56,0,0,1-2.18,0,8.27,8.27,0,0,1-2-1.53c-.18.13-.36.26-.55.38-.87.6-1.74,1.2-2.58,1.81-.3.21-.58.44-.87.66l.42-.21c.88-.32,2.77-.43,3.42.39A1.25,1.25,0,0,1,320,414a2.58,2.58,0,0,1-2.19,0,7.85,7.85,0,0,1-1.94-1.48c-.28.24-.57.47-.83.71s-.36.32-.53.5l-.51.52-.93,1c-.2.24-.39.47-.59.69.29-.21.87-.63.93-.66.82-.45,2.67-.85,3.43-.13a1.23,1.23,0,0,1-.09,1.84,2.59,2.59,0,0,1-2.15.36,8.45,8.45,0,0,1-2.25-1.25C312,416.48,311.69,416.85,311.4,417.21Z" style="fill:#108404"></path><path d="M236.65,406.16a8.32,8.32,0,0,1-2.16-1s.89-.75.95-.79c.73-.46,2.4-.94,3.14-.32a1.13,1.13,0,0,1,0,1.69A2.39,2.39,0,0,1,236.65,406.16Z" style="fill:#108404"></path><path d="M223.17,399.13s.33-1.12.36-1.19c.35-.78,1.48-2.1,2.44-2a1.14,1.14,0,0,1,1,1.4,2.36,2.36,0,0,1-1.38,1.45A8,8,0,0,1,223.17,399.13Z" style="fill:#108404"></path><path d="M221.61,417.48l-.89,1.15H220c.34-.43.74-.93,1.19-1.46.26-.32.54-.65.84-1a10.14,10.14,0,0,1-.75-1,7.84,7.84,0,0,1-2,.14c0,.39-.08.78-.12,1.15-.07.83-.12,1.56-.15,2.18h-.55c0-.63.11-1.38.2-2.23.05-.41.11-.84.17-1.28a6.64,6.64,0,0,1-1.89-.86,2.08,2.08,0,0,1-.81-1.56,1,1,0,0,1,1.15-.95c.83.15,1.47,1.54,1.57,2.29,0,0,0,.53,0,.84,0-.18,0-.36.08-.54.05-.37.12-.74.19-1.13l.12-.57c0-.19.1-.39.15-.59.13-.45.28-.91.44-1.36a6.4,6.4,0,0,1-1.94-.55,2.08,2.08,0,0,1-1-1.43,1,1,0,0,1,1-1.11c.85,0,1.69,1.3,1.9,2,0,0,.11.58.15.88.1-.27.2-.55.31-.82.31-.78.65-1.57,1-2.36l.3-.72a6.66,6.66,0,0,1-2-.56,2.08,2.08,0,0,1-1-1.42,1,1,0,0,1,1-1.11c.85,0,1.68,1.3,1.9,2,0,.06.15.83.17,1,.22-.53.44-1.06.63-1.59a17.1,17.1,0,0,0,.65-2.2,7.27,7.27,0,0,1-2-.56,2.14,2.14,0,0,1-1-1.43,1,1,0,0,1,1-1.11c.84,0,1.68,1.3,1.89,2,0,.05.12.64.16.92h0a12.33,12.33,0,0,0,.25-2.29c0-.42,0-.83,0-1.22a6.48,6.48,0,0,1-2-.34,2.07,2.07,0,0,1-1.19-1.3,1,1,0,0,1,.86-1.21c.85-.07,1.82,1.11,2.11,1.8,0,0,.14.44.22.74,0-.18,0-.36,0-.53-.05-.64-.14-1.22-.22-1.73-.05-.3-.1-.56-.15-.8a6.69,6.69,0,0,1-1.63-1.23,2.12,2.12,0,0,1-.46-1.7,1,1,0,0,1,1.33-.68c.78.33,1.1,1.82,1,2.57,0,.07-.21,1.08-.22,1.07h0c.06.24.11.49.16.77a17.29,17.29,0,0,1,.26,1.73,16.73,16.73,0,0,1,.12,2.07,12.51,12.51,0,0,1-.19,2.32v0c.12-.22.46-.82.49-.86.45-.61,1.67-1.53,2.47-1.26a1,1,0,0,1,.56,1.38,2.09,2.09,0,0,1-1.46,1,7.11,7.11,0,0,1-2.08-.16,18.13,18.13,0,0,1-.62,2.29c-.15.43-.31.87-.48,1.3l.22-.37c.45-.61,1.67-1.53,2.47-1.26a1,1,0,0,1,.56,1.38,2.07,2.07,0,0,1-1.46,1,6.6,6.6,0,0,1-2-.14l-.2.5c-.32.79-.64,1.58-.93,2.37-.11.27-.2.55-.29.83a3.05,3.05,0,0,1,.19-.33c.44-.61,1.67-1.52,2.47-1.26a1,1,0,0,1,.56,1.38,2.11,2.11,0,0,1-1.46,1,6.46,6.46,0,0,1-2-.13c-.09.28-.17.57-.24.85s-.1.38-.14.57-.07.39-.11.58c-.06.36-.12.74-.16,1.1s-.07.49-.09.73c.1-.27.3-.81.32-.85a4,4,0,0,1,1.37-1.41l.12-.19a1,1,0,0,1,1.49-.15c.61.58.37,2.09,0,2.77l-.45.71.37-.41c.25-.28.5-.54.78-.83l.42-.41c.14-.14.3-.27.45-.41.35-.31.73-.6,1.11-.89a6.66,6.66,0,0,1-1.31-1.53,2.09,2.09,0,0,1-.08-1.76,1,1,0,0,1,1.44-.38c.69.48.69,2,.46,2.73,0,.05-.23.55-.35.82l.7-.51c.7-.48,1.41-.95,2.13-1.42l.65-.43a7.14,7.14,0,0,1-1.37-1.58,2.13,2.13,0,0,1-.08-1.76,1,1,0,0,1,1.45-.38c.69.49.68,2,.46,2.74,0,0-.33.77-.42.95.48-.32,1-.64,1.41-1a19.42,19.42,0,0,0,1.75-1.47,7.09,7.09,0,0,1-1.38-1.59,2.12,2.12,0,0,1-.08-1.76,1,1,0,0,1,1.44-.37c.7.48.69,2,.47,2.73,0,.05-.25.6-.37.85l0,0a13.17,13.17,0,0,0,1.46-1.77c.25-.35.46-.69.66-1a6.71,6.71,0,0,1-1.5-1.4,2.07,2.07,0,0,1-.27-1.74,1,1,0,0,1,1.39-.53c.74.41.9,1.92.76,2.67,0,0-.13.44-.23.73.09-.15.19-.31.27-.46.3-.56.55-1.1.77-1.57.12-.27.22-.52.31-.75a6.66,6.66,0,0,1-.68-1.92,2.07,2.07,0,0,1,.56-1.67,1,1,0,0,1,1.48.16c.47.71-.08,2.13-.55,2.72,0,.05-.77.78-.78.77v0c-.09.23-.18.47-.29.73-.21.48-.44,1-.74,1.59a20.5,20.5,0,0,1-1,1.8,14,14,0,0,1-1.44,1.82l0,0c.21-.12.83-.44.88-.45.71-.27,2.24-.36,2.76.31a1,1,0,0,1-.3,1.46,2.12,2.12,0,0,1-1.76,0,7.06,7.06,0,0,1-1.65-1.28,16.84,16.84,0,0,1-1.78,1.56c-.36.28-.74.56-1.12.83l.39-.2c.71-.26,2.24-.35,2.76.32a1,1,0,0,1-.3,1.46,2.12,2.12,0,0,1-1.76,0A6.76,6.76,0,0,1,229,411l-.44.31c-.7.48-1.41,1-2.08,1.46-.24.17-.47.35-.7.53l.34-.17c.7-.26,2.23-.35,2.75.31a1,1,0,0,1-.29,1.47,2.11,2.11,0,0,1-1.77,0,6.21,6.21,0,0,1-1.56-1.19l-.68.57c-.14.14-.29.26-.42.41l-.41.41c-.25.28-.51.56-.75.84s-.32.37-.48.55c.24-.17.7-.51.75-.53.66-.37,2.15-.69,2.77-.11a1,1,0,0,1-.07,1.49,2.09,2.09,0,0,1-1.74.28,6.77,6.77,0,0,1-1.82-1Z" style="fill:#108404"></path><path d="M148,406.49a7.86,7.86,0,0,1-2.1-1s.87-.73.93-.77c.7-.45,2.33-.91,3-.31a1.11,1.11,0,0,1,0,1.65A2.35,2.35,0,0,1,148,406.49Z" style="fill:#108404"></path><path d="M134.85,399.65s.32-1.09.35-1.16c.34-.76,1.44-2,2.38-1.94a1.11,1.11,0,0,1,.93,1.36,2.32,2.32,0,0,1-1.35,1.41A7.76,7.76,0,0,1,134.85,399.65Z" style="fill:#108404"></path><path d="M133.33,417.51c-.32.4-.61.78-.87,1.12h-.66c.33-.42.72-.9,1.16-1.43.25-.3.53-.62.82-.95a8.14,8.14,0,0,1-.73-1,7.28,7.28,0,0,1-2,.13c0,.39-.09.77-.12,1.13-.08.8-.12,1.52-.15,2.12h-.54c0-.61.11-1.35.2-2.17,0-.4.1-.82.16-1.25a6.63,6.63,0,0,1-1.84-.83,2.06,2.06,0,0,1-.79-1.52,1,1,0,0,1,1.12-.93c.81.15,1.43,1.5,1.53,2.23,0,0,0,.52,0,.82,0-.18.05-.35.07-.53.06-.36.12-.71.19-1.1l.12-.55c0-.19.1-.38.15-.57.12-.45.27-.89.42-1.33a6.55,6.55,0,0,1-1.89-.54,2,2,0,0,1-1-1.38,1,1,0,0,1,1-1.08c.83,0,1.64,1.26,1.85,2,0,0,.1.57.15.85.09-.26.19-.53.29-.79.31-.77.64-1.53,1-2.3.1-.23.2-.46.29-.7a6.68,6.68,0,0,1-1.95-.54,2,2,0,0,1-1-1.39,1,1,0,0,1,1-1.08c.82,0,1.64,1.26,1.84,2,0,.05.15.81.17,1,.22-.52.43-1,.62-1.55a17.31,17.31,0,0,0,.63-2.14,6.68,6.68,0,0,1-2-.54,2,2,0,0,1-1-1.39,1,1,0,0,1,1-1.08c.82,0,1.64,1.26,1.85,2,0,0,.11.62.15.89h0a12.44,12.44,0,0,0,.24-2.22c0-.41,0-.81,0-1.19a6.44,6.44,0,0,1-2-.33,2,2,0,0,1-1.16-1.27,1,1,0,0,1,.85-1.18c.82-.07,1.76,1.08,2.05,1.76,0,0,.13.43.21.72,0-.18,0-.35,0-.52,0-.62-.13-1.19-.21-1.69q-.08-.42-.15-.78a6.29,6.29,0,0,1-1.59-1.19,2,2,0,0,1-.44-1.66,1,1,0,0,1,1.29-.65c.76.31,1.08,1.77,1,2.5,0,.06-.2,1-.21,1h0c.05.23.11.47.16.74.09.5.19,1.07.25,1.69a15.91,15.91,0,0,1,.12,2,12.58,12.58,0,0,1-.19,2.25v0c.12-.22.45-.8.48-.84.44-.6,1.62-1.49,2.41-1.23a1,1,0,0,1,.54,1.34,2,2,0,0,1-1.42,1,6.55,6.55,0,0,1-2-.15,16.75,16.75,0,0,1-.6,2.23c-.14.42-.3.84-.47,1.27.11-.19.2-.35.22-.37.43-.59,1.62-1.48,2.4-1.23a1,1,0,0,1,.55,1.35,2,2,0,0,1-1.42,1,6.24,6.24,0,0,1-2-.14c-.07.16-.13.32-.2.49-.31.77-.62,1.54-.91,2.3-.1.27-.19.54-.28.81a3.69,3.69,0,0,1,.19-.32c.43-.59,1.62-1.48,2.4-1.22a1,1,0,0,1,.55,1.34,2,2,0,0,1-1.42,1,6.15,6.15,0,0,1-1.92-.13c-.08.28-.17.56-.24.83s-.1.37-.13.56-.07.37-.11.56c-.05.36-.11.72-.16,1.07s-.06.48-.08.71c.09-.26.29-.79.32-.83a3.75,3.75,0,0,1,1.33-1.37,1.74,1.74,0,0,1,.11-.18,1,1,0,0,1,1.45-.15c.59.57.36,2,0,2.7l-.43.69.35-.4c.24-.27.49-.53.76-.81l.41-.4c.13-.13.29-.26.44-.39.34-.3.71-.59,1.08-.88a6.46,6.46,0,0,1-1.28-1.48,2.07,2.07,0,0,1-.08-1.72,1,1,0,0,1,1.41-.37c.67.48.67,2,.45,2.67,0,0-.23.53-.35.79l.69-.5c.67-.47,1.37-.92,2.07-1.38l.63-.42a7.15,7.15,0,0,1-1.33-1.53,2,2,0,0,1-.07-1.72,1,1,0,0,1,1.4-.37c.67.48.67,2,.45,2.67,0,.05-.32.75-.41.92.47-.31.93-.62,1.37-.95a18.49,18.49,0,0,0,1.71-1.43,6.84,6.84,0,0,1-1.34-1.54,2.07,2.07,0,0,1-.08-1.72,1,1,0,0,1,1.4-.37c.68.48.67,2,.46,2.67,0,0-.25.58-.37.83l0,0a12.54,12.54,0,0,0,1.43-1.72c.24-.34.44-.67.64-1a6.81,6.81,0,0,1-1.46-1.36,2,2,0,0,1-.27-1.7,1,1,0,0,1,1.36-.52c.72.4.88,1.88.74,2.6,0,0-.13.43-.22.71.08-.15.18-.3.25-.45.3-.54.54-1.06.75-1.52.12-.27.22-.51.31-.73a6.42,6.42,0,0,1-.66-1.87,2,2,0,0,1,.54-1.63,1,1,0,0,1,1.44.16c.46.69-.08,2.07-.54,2.65,0,.05-.74.76-.75.75v0c-.08.22-.17.45-.28.71-.2.47-.43,1-.72,1.55a16.11,16.11,0,0,1-1,1.74,13.31,13.31,0,0,1-1.4,1.78l0,0c.21-.12.81-.42.86-.44.69-.26,2.17-.35,2.68.3a1,1,0,0,1-.29,1.42,2,2,0,0,1-1.71,0,7.19,7.19,0,0,1-1.61-1.24,17.09,17.09,0,0,1-1.73,1.52c-.35.27-.72.54-1.08.8l.37-.19c.69-.25,2.18-.34,2.69.31a1,1,0,0,1-.29,1.42,2.06,2.06,0,0,1-1.72,0,6.3,6.3,0,0,1-1.56-1.21l-.43.3c-.69.47-1.37.94-2,1.42l-.68.52.33-.16c.69-.26,2.17-.34,2.68.3a1,1,0,0,1-.29,1.43,2,2,0,0,1-1.71,0,6.14,6.14,0,0,1-1.53-1.16c-.22.18-.45.37-.66.56s-.28.25-.41.39l-.4.41c-.24.27-.5.54-.73.81l-.46.54.72-.52c.65-.35,2.1-.67,2.7-.1a1,1,0,0,1-.07,1.45,2,2,0,0,1-1.69.27,6.53,6.53,0,0,1-1.77-1Z" style="fill:#108404"></path><path d="M115.12,411a5.21,5.21,0,0,0,1.32-.63s-.55-.46-.58-.49c-.45-.28-1.47-.57-1.92-.19a.69.69,0,0,0,0,1A1.47,1.47,0,0,0,115.12,411Z" style="fill:#108404"></path><path d="M123.36,406.71s-.2-.69-.22-.73c-.21-.48-.91-1.28-1.49-1.22a.7.7,0,0,0-.59.86,1.45,1.45,0,0,0,.85.88A5,5,0,0,0,123.36,406.71Z" style="fill:#108404"></path><path d="M124.31,417.93l.55.7h.42l-.73-.89-.52-.6a5.18,5.18,0,0,0,.46-.63,4.41,4.41,0,0,0,1.23.08c0,.25,0,.48.07.71,0,.51.08,1,.1,1.33h.33c0-.38-.06-.84-.12-1.36,0-.25-.07-.51-.1-.79a4,4,0,0,0,1.15-.52,1.27,1.27,0,0,0,.5-1,.61.61,0,0,0-.71-.57c-.5.09-.89.94-1,1.39,0,0,0,.33,0,.52,0-.11,0-.22,0-.33s-.08-.45-.12-.69,0-.23-.08-.35-.06-.24-.09-.36c-.08-.28-.17-.56-.26-.83a4,4,0,0,0,1.18-.34,1.31,1.31,0,0,0,.64-.87.62.62,0,0,0-.61-.68c-.52,0-1,.79-1.16,1.24,0,0-.07.35-.1.54-.06-.17-.11-.34-.18-.5-.19-.48-.4-1-.61-1.45l-.18-.44a4.15,4.15,0,0,0,1.22-.34,1.31,1.31,0,0,0,.64-.87.61.61,0,0,0-.61-.68c-.52,0-1,.79-1.16,1.24,0,0-.09.51-.11.63-.13-.33-.26-.65-.38-1a11.35,11.35,0,0,1-.4-1.34,4.4,4.4,0,0,0,1.24-.34,1.3,1.3,0,0,0,.63-.87.61.61,0,0,0-.61-.68c-.51,0-1,.79-1.16,1.24,0,0-.07.38-.09.56h0a7.76,7.76,0,0,1-.15-1.4c0-.26,0-.51,0-.75a4.31,4.31,0,0,0,1.24-.2,1.3,1.3,0,0,0,.72-.8.61.61,0,0,0-.53-.74c-.51,0-1.11.68-1.29,1.1l-.13.45c0-.11,0-.22,0-.32,0-.39.09-.75.14-1.06s.06-.34.09-.49a4,4,0,0,0,1-.75,1.31,1.31,0,0,0,.28-1,.63.63,0,0,0-.82-.42c-.47.2-.67,1.12-.63,1.58,0,0,.13.65.13.65h0c0,.15-.06.3-.09.47s-.12.67-.16,1.06a10.06,10.06,0,0,0-.08,1.27,8.66,8.66,0,0,0,.12,1.41v0l-.3-.53c-.28-.37-1-.93-1.51-.77a.62.62,0,0,0-.35.85,1.3,1.3,0,0,0,.9.6,4.32,4.32,0,0,0,1.27-.09,10.26,10.26,0,0,0,.38,1.39c.09.27.19.53.29.8l-.13-.23c-.28-.37-1-.93-1.51-.77a.61.61,0,0,0-.35.84,1.28,1.28,0,0,0,.9.61,3.85,3.85,0,0,0,1.23-.09l.12.3c.2.49.4,1,.58,1.45.06.17.12.34.17.51l-.11-.2c-.28-.37-1-.93-1.51-.77a.62.62,0,0,0-.35.85,1.3,1.3,0,0,0,.9.6,4.15,4.15,0,0,0,1.2-.08c0,.17.11.35.15.52s.06.23.08.35l.07.35c0,.22.07.46.1.68l.06.44c-.07-.17-.19-.49-.21-.52a2.33,2.33,0,0,0-.83-.86l-.07-.12a.62.62,0,0,0-.91-.09c-.38.36-.23,1.28,0,1.7l.27.43c-.07-.08-.14-.17-.22-.25s-.31-.33-.48-.51L123,416l-.28-.25c-.21-.19-.44-.37-.68-.55a3.81,3.81,0,0,0,.8-.93,1.28,1.28,0,0,0,.05-1.08A.61.61,0,0,0,122,413c-.42.3-.42,1.23-.28,1.67,0,0,.14.34.22.5l-.43-.31c-.43-.3-.87-.58-1.31-.87l-.39-.26a4.48,4.48,0,0,0,.83-1,1.25,1.25,0,0,0,.05-1.07.6.6,0,0,0-.88-.23c-.43.29-.42,1.23-.29,1.67l.26.58c-.29-.19-.58-.39-.86-.6a10.39,10.39,0,0,1-1.07-.9,4,4,0,0,0,.84-1,1.25,1.25,0,0,0,0-1.07.6.6,0,0,0-.88-.23c-.43.29-.42,1.23-.29,1.67l.23.52,0,0a8.12,8.12,0,0,1-.9-1.09,7.33,7.33,0,0,1-.4-.63,4.07,4.07,0,0,0,.92-.85,1.29,1.29,0,0,0,.17-1.06.62.62,0,0,0-.86-.33c-.45.25-.55,1.18-.46,1.63,0,0,.08.27.14.45l-.17-.28c-.18-.35-.33-.67-.47-1l-.19-.46a4.21,4.21,0,0,0,.42-1.18,1.3,1.3,0,0,0-.34-1,.62.62,0,0,0-.91.1c-.29.43,0,1.3.34,1.67l.47.47h0l.17.44c.13.29.27.62.45,1a10.7,10.7,0,0,0,.64,1.1,7.52,7.52,0,0,0,.88,1.11l0,0-.55-.28c-.43-.16-1.36-.22-1.68.19a.61.61,0,0,0,.18.89,1.24,1.24,0,0,0,1.08,0,4.2,4.2,0,0,0,1-.78,10,10,0,0,0,1.08,1c.23.17.45.34.69.5l-.24-.11c-.44-.16-1.37-.22-1.69.19a.61.61,0,0,0,.18.89,1.27,1.27,0,0,0,1.08,0,4.18,4.18,0,0,0,1-.75l.26.18c.43.3.87.59,1.28.9.15.1.29.21.43.32l-.21-.1c-.43-.16-1.36-.22-1.69.19a.61.61,0,0,0,.19.89,1.22,1.22,0,0,0,1.07,0,3.56,3.56,0,0,0,1-.73l.41.36.27.24.25.26c.15.17.31.34.45.51l.3.34-.46-.33c-.41-.22-1.32-.42-1.7-.07a.61.61,0,0,0,0,.91,1.24,1.24,0,0,0,1.06.18,4.27,4.27,0,0,0,1.11-.62Z" style="fill:#108404"></path></g><g id="freepik--Floor--inject-4"><line x1="63" y1="418.67" x2="476" y2="418.67" style="fill:none;stroke:#263238;stroke-linecap:round;stroke-linejoin:round"></line><line x1="29" y1="418.67" x2="55" y2="418.67" style="fill:none;stroke:#263238;stroke-linecap:round;stroke-linejoin:round"></line></g><g id="freepik--Clouds--inject-4"><g style="opacity:0.30000000000000004"><path d="M476.34,74.56c0-.29,0-.59-.06-.91-.08-7-2.66-11.75-8.95-15.4-11.78-6.85-18.63,0-22.05,6.08s-8.74-3.8-17.1-2.66-8,10.26-10.27,15.2-7.22-1.52-13.68-.38-6.85,5-8,6.47-11.4-2.28-17.11.76a23.73,23.73,0,0,0-8.74,8.74H495.08s1.52-9.12-3.41-12.54C487.23,76.85,477.19,81.76,476.34,74.56Z" style="fill:none;stroke:#000;stroke-linecap:round;stroke-linejoin:round"></path><path d="M418.46,85.93a2.92,2.92,0,0,0-1.15.59c-1.61,1.41-1.61,2.41-1.61,2.41" style="fill:none;stroke:#000;stroke-linecap:round;stroke-linejoin:round"></path><path d="M446,74.13c-1.11,2.42-2.08,5.09-4.37,6.16-3.27,1.52-6.33-1.93-9.34-2.7a4.35,4.35,0,0,0-4.78,1.46c-1.36,1.55-1.38,5.07-3.17,6.06a8.27,8.27,0,0,1-3.43.55" style="fill:none;stroke:#000;stroke-linecap:round;stroke-linejoin:round"></path><path d="M483.12,85.36c-.09-.23-.19-.44-.29-.65-2.4-4.79-8.07-.94-11.55-2.28-3.1-1.2-2.08-6.09-2.5-8.65-.8-5-7-8.72-11.88-8a15.13,15.13,0,0,0-9.19,5.34" style="fill:none;stroke:#000;stroke-linecap:round;stroke-linejoin:round"></path><path d="M484.1,89.75a22,22,0,0,0-.41-2.53" style="fill:none;stroke:#000;stroke-linecap:round;stroke-linejoin:round"></path></g><g style="opacity:0.30000000000000004"><path d="M330.27,28.54c0-.2,0-.41,0-.63-.06-4.85-1.85-8.2-6.24-10.75-8.23-4.78-13,0-15.39,4.24s-6.1-2.65-11.94-1.85-5.57,7.16-7.16,10.61-5-1.06-9.55-.27-4.78,3.45-5.57,4.51-8-1.59-11.94.53a16.6,16.6,0,0,0-6.1,6.11h87s1.06-6.37-2.39-8.76C337.88,30.14,330.87,33.56,330.27,28.54Z" style="fill:none;stroke:#000;stroke-linecap:round;stroke-linejoin:round"></path><path d="M289.88,36.48a2,2,0,0,0-.8.41c-1.12,1-1.12,1.68-1.12,1.68" style="fill:none;stroke:#000;stroke-linecap:round;stroke-linejoin:round"></path><path d="M309.1,28.24c-.77,1.69-1.45,3.55-3.05,4.3-2.28,1.07-4.41-1.34-6.52-1.89a3,3,0,0,0-3.33,1c-.95,1.08-1,3.53-2.21,4.23a5.82,5.82,0,0,1-2.4.38" style="fill:none;stroke:#000;stroke-linecap:round;stroke-linejoin:round"></path><path d="M335,36.08a4.68,4.68,0,0,0-.2-.45c-1.67-3.35-5.63-.66-8.06-1.6-2.16-.83-1.45-4.24-1.74-6-.56-3.45-4.9-6.09-8.29-5.56a10.56,10.56,0,0,0-6.41,3.73" style="fill:none;stroke:#000;stroke-linecap:round;stroke-linejoin:round"></path><path d="M335.69,39.14a16.07,16.07,0,0,0-.29-1.76" style="fill:none;stroke:#000;stroke-linecap:round;stroke-linejoin:round"></path></g><g style="opacity:0.30000000000000004"><path d="M136.32,78.78a8.23,8.23,0,0,1-.06-1c-.1-7.77-3-13.14-10-17.23-13.19-7.65-20.84,0-24.67,6.81s-9.78-4.26-19.13-3S73.52,75.84,71,81.37s-8.08-1.7-15.3-.43S48,86.47,46.73,88.17,34,85.62,27.59,89a26.61,26.61,0,0,0-9.78,9.78H157.29s1.7-10.2-3.83-14C148.51,81.34,137.27,86.83,136.32,78.78Z" style="fill:none;stroke:#000;stroke-linecap:round;stroke-linejoin:round"></path><path d="M71.58,91.5a3.22,3.22,0,0,0-1.29.66c-1.8,1.57-1.8,2.7-1.8,2.7" style="fill:none;stroke:#000;stroke-linecap:round;stroke-linejoin:round"></path><path d="M102.39,78.3c-1.24,2.71-2.34,5.69-4.9,6.89-3.65,1.71-7.07-2.15-10.44-3A4.87,4.87,0,0,0,81.7,83.8c-1.52,1.74-1.54,5.67-3.54,6.78a9.27,9.27,0,0,1-3.84.62" style="fill:none;stroke:#000;stroke-linecap:round;stroke-linejoin:round"></path><path d="M143.9,90.86c-.1-.25-.21-.49-.32-.73-2.68-5.36-9-1-12.92-2.55-3.46-1.33-2.33-6.81-2.79-9.67C127,72.38,120,68.15,114.58,69a17,17,0,0,0-10.28,6" style="fill:none;stroke:#000;stroke-linecap:round;stroke-linejoin:round"></path><path d="M145,95.77a23.66,23.66,0,0,0-.46-2.83" style="fill:none;stroke:#000;stroke-linecap:round;stroke-linejoin:round"></path></g></g><g id="freepik--Character--inject-4"><polygon points="222.62 74.76 182.16 94.24 182.13 94.25 155.62 107.01 155.6 107.02 153.83 107.88 153.82 107.88 147.88 110.74 147.87 110.74 146.82 111.25 142.94 113.12 142.24 113.46 139.57 114.75 139.03 115 137.85 115.57 137.99 114.87 151.19 48.07 161.78 44.23 180.34 37.51 180.4 37.48 200.26 30.29 200.31 30.26 213.98 25.31 215.76 35.53 215.76 35.53 215.83 35.85 218.5 51.18 218.51 51.23 221.46 68.12 222.62 74.76" style="fill:#fff;stroke:#263238;stroke-linecap:round;stroke-linejoin:round"></polygon><polygon points="180.34 37.51 139.03 115 137.85 115.57 137.99 114.87 161.78 44.23 180.34 37.51" style="fill:#108404;stroke:#263238;stroke-linecap:round;stroke-linejoin:round;stroke-width:0.5px"></polygon><polygon points="200.26 30.29 142.24 113.46 139.57 114.75 180.4 37.48 200.26 30.29" style="fill:#fff;stroke:#263238;stroke-linecap:round;stroke-linejoin:round;stroke-width:0.5px"></polygon><polygon points="215.76 35.53 215.76 35.53 190.53 63.48 190.22 63.82 147.88 110.74 147.87 110.74 146.82 111.25 142.94 113.12 200.31 30.26 213.98 25.31 215.76 35.53" style="fill:#108404;stroke:#263238;stroke-linecap:round;stroke-linejoin:round;stroke-width:0.5px"></polygon><polygon points="218.5 51.18 153.83 107.88 153.82 107.88 147.88 110.74 147.87 110.74 146.82 111.25 190.22 63.82 190.53 63.48 215.83 35.85 218.5 51.18" style="fill:#fff;stroke:#263238;stroke-linecap:round;stroke-linejoin:round;stroke-width:0.5px"></polygon><polygon points="221.46 68.12 182.16 94.24 182.13 94.25 155.62 107.01 218.51 51.23 221.46 68.12" style="fill:#108404;stroke:#263238;stroke-linecap:round;stroke-linejoin:round;stroke-width:0.5px"></polygon><line x1="151.19" y1="48.07" x2="222.62" y2="74.76" style="fill:#fff;stroke:#263238;stroke-linecap:round;stroke-linejoin:round;stroke-width:2px"></line><line x1="213.98" y1="25.31" x2="137.85" y2="115.57" style="fill:#108404;stroke:#263238;stroke-linecap:round;stroke-linejoin:round;stroke-width:2px"></line><path d="M204,38.23s-3.7,30.14-34.38,39.66" style="fill:none;stroke:#263238;stroke-linecap:round;stroke-linejoin:round"></path><path d="M192.32,62.56S233,109.33,323.58,146.17" style="fill:none;stroke:#263238;stroke-linecap:round;stroke-linejoin:round"></path><path d="M137.85,113.61a133.5,133.5,0,0,1-13.15,15.24,54.69,54.69,0,0,1-10.74,8.5c-2.95,1.73-5.86,3.9-7.64,6.9s-2.34,9.23.81,11.66c3.46,2.68,9,2.54,13.08,2.4a125.92,125.92,0,0,0,15.25-1.71c4.85-.75,9.7-1.62,14.6-2.07,3.52-.33,7.55-.68,10.94.61a6.82,6.82,0,0,1,2.94,2,8,8,0,0,1,1,1.89,6.87,6.87,0,0,1,.21.87c.24.7.45-2.78,0,.31a21.62,21.62,0,0,1-2.79,8.29c-4.1,6.8-11.58,11-18.6,14.17-10.22,4.61-21.93,9-33.28,8.93-10.79-.12-21.81-4.09-29.49-11.82a30.31,30.31,0,0,1-7.78-13.06,26.57,26.57,0,0,1-.76-3.65,21.91,21.91,0,0,1-.22-2.29c.07,2.05.11-.56.25-1.53a34.36,34.36,0,0,1,2.55-8.7c.48-1.12-.47-2.83,0-3.93-5.26,12.34-3.69,27.35,6,37.08a41,41,0,0,0,21,10.94c9.81,2,19,.08,28.35-3,12.16-4,29.33-9.74,33.87-23.26a27.38,27.38,0,0,0,1-12.14c-.94-5.87-7.8-6-12.51-5.82-9.19.44-18.21,2.72-27.36,3.62-5.15.51-19.55,2.29-20.28-5.69,0,1,0,2,0,2.95,0-.16,0-.33,0-.49,0,.32,0,.65,0,1,.34-3.36,2.84-6.1,5.36-8.14,3.76-3,8-5.08,11.66-8.38a123.36,123.36,0,0,0,15.75-17.72c.64-.86-.62-3.09,0-3.92Z" style="fill:#263238"></path><path d="M137.7,115.83a84.56,84.56,0,0,1-11.25,20.26c-2.1,2.84-6.4,6-6.81,9.68-.11.93-.4,3.15.24,4,1.05,1.33,4.56.9,6,.89,10.41-.08,20.76-1.48,31.19-1,6,.28,17,.86,17.65,8.88,0-.66,0-1.31,0-2,0,3.61-2.09,8.56-3.47,11.94a38.9,38.9,0,0,1-8.65,13.3,29.23,29.23,0,0,1-15.61,7.83c-7.71,1.29-15.37-.59-23-1.48-6.72-.78-13.51-1.22-20.17-2.45-4.62-.86-9.56-2.14-13.11-5.4s-5.18-8.57-5.12-13.36c.12-8.49,1.88-17.05,2.81-25.49s1.82-17.44-5.61-23.15c.61.47-.66,3.42,0,3.92a15,15,0,0,1,5,6,16.29,16.29,0,0,1,.9,3.64,11.57,11.57,0,0,1,.11,1.31c-.07-1.52,0-.39,0,0-.08,1.2-.19,2.4-.31,3.6-1,9.74-2.89,19.47-3,29.29-.05,6.11,0,12.89,4.56,17.59,4.89,5.08,12.88,6,19.5,6.88,4.8.6,9.62,1,14.42,1.59,5.51.64,11,1.87,16.59,2a30.53,30.53,0,0,0,23.09-9.39c4.77-5.11,7.82-11.64,9.66-18.33,1.12-4.07,2.59-9.85,1-14-5.39-13.75-54.08-.94-54.56-7.11v3.93c.15-1.37,1.45-2.59,2.28-3.58,1.86-2.21,3.73-4.39,5.4-6.76a85.27,85.27,0,0,0,10.37-19c.43-1.15-.42-2.78,0-3.92Z" style="fill:#108404"></path><polygon points="330.94 158.1 324.78 145.79 323.16 146.76 329.97 159.56 330.94 158.1" style="fill:#fff;stroke:#263238;stroke-linecap:round;stroke-linejoin:round"></polygon><path d="M345.52,161.83c-2.26-7.62-5.5-14.91-10.85-12.8s-4.7,10.53-4.7,10.53.32,3.56,3.56,9.72,8.75,9.4,12,7S347.79,169.44,345.52,161.83Zm-3.88,4.49c-1.76,1.1-4.74-.36-6.5-3.14a11.85,11.85,0,0,1-1.93-4.38s-.35-3.8,2.55-4.75,4.65,2.34,5.88,5.77S343.4,165.23,341.64,166.32Z" style="fill:#263238;stroke:#263238;stroke-linecap:round;stroke-linejoin:round"></path><path d="M337.11,227.55l-6-2.7S338,202,338.62,197.2a102.51,102.51,0,0,1,2.4-11.43s2.1-1.8,2.1-3.3a39.11,39.11,0,0,0-.9-5.41s2.41-2.11,2.11-3.91-1.21-7.21-2.41-9.62-2.7-3.6-3.61-3.6a30.94,30.94,0,0,0-4.8,1.5l4.2-4.51,2.41-2.1s0-2.11-3.61-1.21-7.21,6.62-8.11,8.12,1.8,13.82,3,15.93a48.74,48.74,0,0,1,2.71,7.21s-8.72,17.44-11.12,21.94-8.12,11.73-10.52,20.14-2.71,12.32.6,13.83,14.72,6.61,20.44,7.21,7.81-11.12,7.81-13.82S337.11,227.55,337.11,227.55Z" style="fill:#fff;stroke:#263238;stroke-linecap:round;stroke-linejoin:round"></path><path d="M341.31,163.29s-6.48,2.43-7.61,4.21" style="fill:none;stroke:#263238;stroke-linecap:round;stroke-linejoin:round"></path><path d="M336.61,172c1.14-.81,6.48-3.57,6.48-3.57" style="fill:none;stroke:#263238;stroke-linecap:round;stroke-linejoin:round"></path><path d="M335.32,174.14a5.71,5.71,0,0,0,1.62,2c1,.65,2.43-.33,2.43-.33" style="fill:none;stroke:#263238;stroke-linecap:round;stroke-linejoin:round"></path><path d="M342.28,177.55l-1.45-2.27s1.45-2.76,1.94-1.95" style="fill:none;stroke:#263238;stroke-linecap:round;stroke-linejoin:round"></path><path d="M329.32,166.2s1.13,3.73,2.43,5" style="fill:none;stroke:#263238;stroke-linecap:round;stroke-linejoin:round"></path><path d="M455.58,351.49s1.3,1.31,1.74,4.79,1.09,4.57,1.74,4.35.43-3.48.43-3.48,2.4,3.92,3.05,3.92,1.52.43,1.52-.88a10.82,10.82,0,0,0-1.08-3.48s2.61,3.05,3.48,3.27,1.08-1.74-.22-3.48-6.31-5.22-7.4-6.53a24.75,24.75,0,0,0-4.13-3.26Z" style="fill:#263238;stroke:#263238;stroke-linecap:round;stroke-linejoin:round"></path><path d="M421.64,293.84l6.09,7.4S434.26,311,439,317.12s12.62,20.67,12.62,20.67-4.57,4.78-4.13,7a58.93,58.93,0,0,1,.43,8.48c0,1.74-.21,3.27,1.31,2.61s2.61-5.43,3.05-6.09,2.61.87,3.26,1.74,5.44,3.05,6.74,3.92,3.92,3.26,5.22,3.26,2.18-.22,1.09-1.74-3.7-2.39-4.57-4.78-1.52-3.27-2.17-5.44-2.4-9.14-3.48-12.62-6.53-21.1-7.62-27.19-6.31-12.41-8.92-14.58a48.55,48.55,0,0,1-5.65-6.09Z" style="fill:#fff;stroke:#263238;stroke-linecap:round;stroke-linejoin:round"></path><path d="M337.49,383A60.3,60.3,0,0,0,335,395.79c-.23,5.64-.68,16,3.15,19.62s7.44,2.93,9.25-.23,1.8-10.59,1.8-13.3-.23-6.09-.23-7a20.12,20.12,0,0,0-4.73-9C341.32,383,339.07,380.24,337.49,383Z" style="fill:#263238;stroke:#263238;stroke-linecap:round;stroke-linejoin:round"></path><path d="M336.59,375.73s-.45,14,.9,18.49S344.7,403,348.76,401s6.76-7.66,7.66-10.14,3.16-11,3.16-11S342.67,381.37,336.59,375.73Z" style="fill:#fff;stroke:#263238;stroke-linecap:round;stroke-linejoin:round"></path><path d="M368.34,389.56s6.09,1.74,15-.43,22.19-2.18,23.28-5.44,2-3.26-.22-6.53-8.26-6.52-17.18-3.26-13.93,4.79-16.76,7.61S367.91,387.39,368.34,389.56Z" style="fill:#263238;stroke:#263238;stroke-linecap:round;stroke-linejoin:round"></path><path d="M386,451.55a9.09,9.09,0,0,0-1.57,4.28,23.86,23.86,0,0,1-.45,5.41c-.46,2.48-2.8,15.38-1.23,17.36,3.79,4.74,26.25,5.48,27.74-1.55.93-4.34-4.73-11.11-6.53-12.46s-4.43-7.86-4.43-9.66.45-3.38-1.13-4.06S387.31,450.2,386,451.55Z" style="fill:#263238;stroke:#263238;stroke-linecap:round;stroke-linejoin:round"></path><path d="M378.74,376.63s.45,11.27,1.8,16.23,2.71,26.45,4.51,34.12,1.36,27.5,1.36,27.5a11.49,11.49,0,0,1,6.08-.9l3.38.45,2.48,1.13s1.36-12.18,3.38-18.71,5.86-30.51,4.06-36.6a79.2,79.2,0,0,1-2.7-12.85V374.83S389.56,366.72,378.74,376.63Z" style="fill:#fff;stroke:#263238;stroke-linecap:round;stroke-linejoin:round"></path><path d="M336.14,327.56s-2.39,15.23-3.69,24.37-4.14,21.75-4.14,21.75,4.35,8.7,13.27,12,15,4.13,19.58,3.7,5.66-3.05,5.66-3.05l1.52,3.26s2-3.91,7.62-6.31,13.92-6.74,20-6.74,11.75,3.92,11.75,3.92.65-1.53.21-12.4-.87-20-3.48-25.46a58.37,58.37,0,0,0-5.22-8.92l-.5-.9s.29-2.36.29-3.45-8.49-3.7-17.41-3.7-22.19,3.49-28.28,2.83-13.49-1.74-13.49-1.74S336.8,325,336.14,327.56Z" style="fill:#108404;stroke:#263238;stroke-linecap:round;stroke-linejoin:round"></path><path d="M342.83,336s8.38,12.35,12.35,16.32" style="fill:none;stroke:#263238;stroke-linecap:round;stroke-linejoin:round"></path><path d="M356.69,358.9a17.72,17.72,0,0,0,4.23,2.26" style="fill:none;stroke:#263238;stroke-linecap:round;stroke-linejoin:round"></path><path d="M348.13,351.46a69.5,69.5,0,0,0,5.51,5.12" style="fill:none;stroke:#263238;stroke-linecap:round;stroke-linejoin:round"></path><path d="M366.82,386.3a47.68,47.68,0,0,0,1.3-16.75c-1.08-8.27-1.08-13.92.44-15.88s14.14-12.4,18.93-12.84" style="fill:none;stroke:#263238;stroke-linecap:round;stroke-linejoin:round"></path><path d="M383.57,338.87c-1.09.66-6.09,2.62-9.57,6.53" style="fill:none;stroke:#263238;stroke-linecap:round;stroke-linejoin:round"></path><path d="M378.89,241.08s-2.7-1.81-6.91-4.81-15.63-7.51-18.64-7.51h-8.71l-7.52-1.21s-1.8,12.33-4.21,15.63-6,7.52-6,7.52,12.33,7.21,16.23,9a49.63,49.63,0,0,1,8.12,5.11s-8.12,15-9,28-5.41,31-6,33.06-.9,3.3-.9,3.3,2.7,3.61,16.53,5.41,15-1.2,28-3,18.94,1.2,18.94,1.2,2.4-2.4,2.4-7.51,0-18.64.6-22.55S406.84,282,406.84,282s3.91,8.11,6,11.42a35.54,35.54,0,0,0,4.21,5.41,41.32,41.32,0,0,0,9-3.91c5.41-3,11.12-6.91,11.72-8.72s2.11-5.11,2.11-5.11a27.23,27.23,0,0,1-6.92-4.81c-3-3-10.22-17.43-12.32-20.13s-.3-3.61-4.81-6.32-12.32-4.5-17.43-7.21S378.89,241.08,378.89,241.08Z" style="fill:#263238;stroke:#263238;stroke-linecap:round;stroke-linejoin:round"></path><path d="M406.84,282s5.71-14.43,8.72-20.14" style="fill:none;stroke:#737373;stroke-linecap:round;stroke-linejoin:round"></path><path d="M409.85,277.15s8.72-10.22,10.82-14.73" style="fill:none;stroke:#737373;stroke-linecap:round;stroke-linejoin:round"></path><path d="M401.43,247.39s-3.3,12.92-6,19.84" style="fill:none;stroke:#737373;stroke-linecap:round;stroke-linejoin:round"></path><path d="M372.28,242.28s.9,8.72,3.3,13.83" style="fill:none;stroke:#737373;stroke-linecap:round;stroke-linejoin:round"></path><path d="M370,258a34.57,34.57,0,0,0,1.39,4.7" style="fill:none;stroke:#737373;stroke-linecap:round;stroke-linejoin:round"></path><path d="M369.57,238.07a60.11,60.11,0,0,0-.37,15.1" style="fill:none;stroke:#737373;stroke-linecap:round;stroke-linejoin:round"></path><polyline points="350.04 246.79 351.24 264.82 344.63 241.68" style="fill:none;stroke:#737373;stroke-linecap:round;stroke-linejoin:round"></polyline><path d="M359.59,319.11a31,31,0,0,1-5.65,2.52" style="fill:none;stroke:#737373;stroke-linecap:round;stroke-linejoin:round"></path><path d="M394.52,297.89s-17.43,9.91-26.75,16.23c-1,.68-2,1.3-2.85,1.87" style="fill:none;stroke:#737373;stroke-linecap:round;stroke-linejoin:round"></path><path d="M393.92,299.39a66.4,66.4,0,0,0-8.72,10.82c-5.11,7.51-13.22,12.62-23.14,16.83" style="fill:none;stroke:#737373;stroke-linecap:round;stroke-linejoin:round"></path><path d="M372.91,192.31s-4.33,5.86-4.33,8.4.26,5.86-.76,6.87-6.36,2.8-6.36,4.08,2.54,3.81,2.54,3.81.51,8.15,1.28,10.44.76,5.85,3.56,7.12,8.91-1,8.91-1,.76,4.08-.51,6.11-3.57,1.78-2,4.58,4.58,6.62,13,6.87,11.2-5.85,11.2-7.63-1.53-3.31-1.53-7.13,1.78-10.43,1.78-10.43,6.87-6.62,6.87-12.47-6.87-21.12-16-22.39S372.91,192.31,372.91,192.31Z" style="fill:#fff;stroke:#263238;stroke-linecap:round;stroke-linejoin:round"></path><path d="M375.43,208.65c-.27,1.16-.82,2-1.23,1.93s-.52-1.12-.25-2.28.82-2,1.23-1.93S375.71,207.49,375.43,208.65Z" style="fill:#263238"></path><path d="M367.06,219.8a8.24,8.24,0,0,0,7.89-.51" style="fill:none;stroke:#263238;stroke-linecap:round;stroke-linejoin:round"></path><path d="M373.16,202.49s2.55-2.8,4.59,1.53" style="fill:none;stroke:#263238;stroke-linecap:round;stroke-linejoin:round"></path><path d="M377.75,232l8.65-2.29-9.16,8.4S379,233.8,377.75,232Z" style="fill:#263238;stroke:#263238;stroke-linecap:round;stroke-linejoin:round"></path><path d="M404,181.63a43.92,43.92,0,0,0-12.73-5.35c-6.87-1.52-15.78,3.82-19.08,5.6s-7.64,1-8.4.51-4.33,2.8-2.29,7.89,10.18,4.58,10.18,4.58a6.8,6.8,0,0,0,3.31,3.31c2.54,1.27,8.9,0,10.18-.51s-1,3.82-.26,5.09,3.31-1.78,3.31-1.78.25,5.09.76,8.4-3.56,4.32-2.8,5.85,5.35-2.29,5.35-2.29-4.07,4.58-.26,4.07,9.93-6.36,9.93-6.36,1,5.09-.26,8.9-7.38,4.08-7.38,4.08a6.37,6.37,0,0,0,4.84,4.32c4.07,1,5.09-2,5.09-2s.51,3.81,3.31,2.54,2.29-8.91,2.29-8.91,3.05-2.29,6.61-9.67.26-19.34-2.54-23.92S404,181.63,404,181.63Z" style="fill:#263238;stroke:#263238;stroke-linecap:round;stroke-linejoin:round"></path></g></svg>