<svg xmlns="http://www.w3.org/2000/svg" viewBox="0 0 500 500"><g id="freepik--background-simple--inject-2"><path d="M417.34,91.78A210.11,210.11,0,0,0,360,51.53C328.37,36.75,293.55,29.62,258.72,29.2,156.93,28,149.18,147.54,117.88,164.17s-88,18.58-90,85.09c-1.23,41.83,8.53,84.84,36,117.43,25.15,29.85,62.1,45,98.5,56.16,40.88,12.55,84.23,24.86,127.23,16.39C333.74,430.55,364.75,395.61,401,372c22.82-14.86,43.3-30.52,57.39-54.37q2.52-4.28,4.76-8.71C482,271.85,485.69,229.09,475.29,189,466,153,444.88,118.71,417.34,91.78Z" style="fill:#DF0000"></path><path d="M417.34,91.78A210.11,210.11,0,0,0,360,51.53C328.37,36.75,293.55,29.62,258.72,29.2,156.93,28,149.18,147.54,117.88,164.17s-88,18.58-90,85.09c-1.23,41.83,8.53,84.84,36,117.43,25.15,29.85,62.1,45,98.5,56.16,40.88,12.55,84.23,24.86,127.23,16.39C333.74,430.55,364.75,395.61,401,372c22.82-14.86,43.3-30.52,57.39-54.37q2.52-4.28,4.76-8.71C482,271.85,485.69,229.09,475.29,189,466,153,444.88,118.71,417.34,91.78Z" style="fill:#fff;opacity:0.7000000000000001"></path></g><g id="freepik--Floor--inject-2"><line x1="465.71" y1="447.9" x2="480.22" y2="447.9" style="fill:none;stroke:#263238;stroke-linecap:round;stroke-linejoin:round"></line><line x1="21.4" y1="447.9" x2="460.72" y2="447.9" style="fill:none;stroke:#263238;stroke-linecap:round;stroke-linejoin:round"></line></g><g id="freepik--Clouds--inject-2"><path d="M189.25,36.58c-.23-.72-.47-1.44-.73-2.17-9.63-26.76-54.4-28.6-54.4,4.29,0,6.33-15.2,0-20.9,8.23s.63,13.3-7,15.84S98,59,88.51,59.6s-8.23,9.5-11.4,12S73.94,72.9,67,73.54s-8.24,5.7-8.24,5.7h166.6s6.33-19-5.07-26S208.87,55.8,200,52C192.67,48.86,191.3,42.9,189.25,36.58Z" style="fill:none;stroke:#b2b2b2;stroke-linecap:round;stroke-linejoin:round"></path><path d="M195,72.31s3.46-10.67-5-18.51-17.26-3.45-19.77,0-2.51,10-6.59,10.66-3.14-6.9-11.92-5S146.39,70.11,142.31,72s-4.08-5-9.73-2.82-5.33,6.28-5.33,6.28" style="fill:none;stroke:#b2b2b2;stroke-linecap:round;stroke-linejoin:round"></path><path d="M150,51a15.89,15.89,0,0,0-16.06-1.39c-9.09,4.19-4.89,12.92-9.09,15s-6.28-.35-11.52,2.09-4.89,5.94-4.89,5.94" style="fill:none;stroke:#b2b2b2;stroke-linecap:round;stroke-linejoin:round"></path><path d="M409.12,76.33c-.14-.46-.3-.92-.46-1.38-6.1-17-34.48-18.13-34.48,2.72,0,4-9.64,0-13.25,5.22s.4,8.43-4.42,10-5.22-2.41-11.24-2-5.22,6-7.23,7.63-2,.8-6.42,1.2-5.22,3.61-5.22,3.61H432s4-12-3.22-16.46-7.22,1.61-12.84-.8C411.29,84.11,410.42,80.33,409.12,76.33Z" style="fill:none;stroke:#b2b2b2;stroke-linecap:round;stroke-linejoin:round"></path><path d="M412.78,99s2.18-6.76-3.19-11.73-10.93-2.19-12.52,0-1.6,6.36-4.18,6.76-2-4.37-7.56-3.18-3.38,6.76-6,8-2.59-3.18-6.17-1.79-3.38,4-3.38,4" style="fill:none;stroke:#b2b2b2;stroke-linecap:round;stroke-linejoin:round"></path><path d="M384.21,85.46A10.06,10.06,0,0,0,374,84.58c-5.76,2.65-3.1,8.19-5.76,9.52s-4-.22-7.3,1.33-3.1,3.76-3.1,3.76" style="fill:none;stroke:#b2b2b2;stroke-linecap:round;stroke-linejoin:round"></path></g><g id="freepik--Tree--inject-2"><path d="M144.62,236.79a.9.9,0,0,0-1-.84l-29.52,4.74a.89.89,0,0,1-.49-1.7l29.73-12.6a.89.89,0,0,0,.54-.89c-1.23-16.09-3.14-33.75-5.64-51.76a.9.9,0,0,0-1.05-.76L111,178a.9.9,0,0,1-.67-1.62l25.21-17.18a.92.92,0,0,0,.38-.88c-1.35-8.7-2.84-17.39-4.43-26l-2.06-8.57a.9.9,0,0,0-1.21-.62l-15.2,6.29a.89.89,0,0,1-1-1.45l15.14-15.14a.91.91,0,0,0,.24-.82c-3-14.1-6.37-27.5-10-39.57a.88.88,0,0,0-1.32-.5L96.55,84a.89.89,0,0,1-1.19-1.27L112.6,58.63a.89.89,0,0,0,.11-.82A163.09,163.09,0,0,0,103,35.15a.89.89,0,0,0-1.15-.39l-13.59,6a.9.9,0,0,1-1.22-1.08l4.27-12.87c.07-.23.38-1.17.72-2l1.11-3.31C90,18.56,86.77,17,83.48,17c-3.52,0-7,1.8-10.34,5.11l5.07,17.58A.89.89,0,0,1,77,40.74L64.77,35.36a.89.89,0,0,0-1.15.39A170.74,170.74,0,0,0,53.69,59.4a.9.9,0,0,0,.11.81L69.91,82.77A.89.89,0,0,1,68.72,84L50.55,72.86a.9.9,0,0,0-1.33.5c-3.62,12.24-7,25.83-10,40.09a.87.87,0,0,0,.24.82L53.2,128a.89.89,0,0,1-1,1.45l-14-5.8a.89.89,0,0,0-1.22.65c-2.26,11.48-4.32,23.27-6.13,35.05a.86.86,0,0,0,.38.87l23.68,16.15a.9.9,0,0,1-.67,1.62L29.75,173.3a.89.89,0,0,0-1.05.76c-2.51,18.16-4.43,35.95-5.65,52.14a.88.88,0,0,0,.54.88L51.69,239a.89.89,0,0,1-.49,1.7l-27.85-4.47a.89.89,0,0,0-1,.83c-.55,9.32-.83,17.94-.83,25.6q0,7.29.34,14a.89.89,0,0,0,.62.8l29.37,9.22a.89.89,0,0,1-.2,1.74l-27.78,1.85a.91.91,0,0,0-.83,1c1.72,15.08,4.85,27.65,9.1,37.95a.91.91,0,0,0,1.11.51l17.05-5.53a.89.89,0,0,1,.93,1.46L38,339.7a.91.91,0,0,0-.12,1.09C49.23,359.5,65.45,367.6,83.48,367.6c17.66,0,33.6-7.79,44.89-25.72a.9.9,0,0,0-.1-1.1l-14.19-15.13a.89.89,0,0,1,.92-1.46l18.54,6a.89.89,0,0,0,1.1-.5c4.35-10.37,7.54-23.06,9.29-38.33a.91.91,0,0,0-.83-1l-29.44-2a.89.89,0,0,1-.21-1.74L144.16,277a.86.86,0,0,0,.59-.62l.44-1.64a.63.63,0,0,0,0-.19q.24-5.77.25-11.93C145.47,254.92,145.18,246.2,144.62,236.79Z" style="fill:#DF0000"></path><polygon points="85.32 300.33 83.9 219.44 108.77 198.84 83.72 209.01 83.25 182.57 83.04 183 83.19 179.13 82.52 141.11 103.11 122.11 82.92 134.22 82.47 138.24 81.64 91.14 81.19 100.43 79.01 170.82 78.07 168.95 61.92 158.45 78.89 174.94 76.12 264.2 50.61 256.18 75.84 273.52 73.94 334.83 64.34 332.91 73.64 344.53 72.6 377.95 71.33 447.9 87.91 447.9 85.45 307.66 105.53 303.02 85.32 300.33" style="fill:#263238"></polygon></g><g id="freepik--Plants--inject-2"><path d="M140.22,398.79s-15.16-11.28-27.95-8.68S96.17,404,87.64,408.76s-23.68-5.2-34.57,6.08S45,436.52,55.43,441.73,76.75,437.82,90,440s34.11,7.81,48.79,3,22.26,0,34.58-1.74,18-19.08,10.89-31.22S140.22,398.79,140.22,398.79Z" style="fill:#DF0000"></path><polygon points="77.89 440.03 82.96 432.72 77.33 437.78 77.25 437.86 76.2 430.75 75.43 438.66 68.32 431.03 75.18 441.18 74.52 447.91 78.74 447.91 77.62 440.35 77.89 440.03" style="fill:#263238"></polygon><polygon points="118.42 440.03 123.49 432.72 117.86 437.78 117.78 437.86 116.73 430.75 115.96 438.66 108.85 431.03 115.71 441.18 115.05 447.91 119.27 447.91 118.15 440.35 118.42 440.03" style="fill:#263238"></polygon><polygon points="158.95 440.03 164.02 432.72 158.39 437.78 158.31 437.86 157.26 430.75 156.49 438.66 149.38 431.03 156.24 441.18 155.57 447.91 159.8 447.91 158.68 440.35 158.95 440.03" style="fill:#263238"></polygon><path d="M282.37,398.79s-15.16-11.28-28-8.68-16.1,13.88-24.63,18.65-23.68-5.2-34.57,6.08-8.06,21.68,2.36,26.89,21.32-3.91,34.58-1.74,34.11,7.81,48.79,3,22.26,0,34.58-1.74,18-19.08,10.89-31.22S282.37,398.79,282.37,398.79Z" style="fill:#DF0000"></path><polygon points="220.04 440.03 225.11 432.72 219.48 437.78 219.4 437.86 218.35 430.75 217.58 438.66 210.47 431.03 217.33 441.18 216.67 447.91 220.89 447.91 219.77 440.35 220.04 440.03" style="fill:#263238"></polygon><polygon points="260.57 440.03 265.64 432.72 260.01 437.78 259.93 437.86 258.88 430.75 258.11 438.66 251 431.03 257.86 441.18 257.2 447.91 261.42 447.91 260.3 440.35 260.57 440.03" style="fill:#263238"></polygon><polygon points="301.1 440.03 306.17 432.72 300.54 437.78 300.46 437.86 299.41 430.75 298.64 438.66 291.53 431.03 298.39 441.18 297.73 447.91 301.95 447.91 300.83 440.35 301.1 440.03" style="fill:#263238"></polygon><path d="M424.52,398.79s-15.16-11.28-27.94-8.68S380.47,404,371.94,408.76s-23.68-5.2-34.57,6.08-8.06,21.68,2.36,26.89,21.32-3.91,34.58-1.74,34.11,7.81,48.79,3,22.26,0,34.58-1.74,18-19.08,10.89-31.22S424.52,398.79,424.52,398.79Z" style="fill:#DF0000"></path><polygon points="362.19 440.03 367.26 432.72 361.63 437.78 361.55 437.86 360.5 430.75 359.73 438.66 352.62 431.03 359.48 441.18 358.82 447.91 363.04 447.91 361.92 440.35 362.19 440.03" style="fill:#263238"></polygon><polygon points="402.72 440.03 407.79 432.72 402.16 437.78 402.08 437.86 401.04 430.75 400.26 438.66 393.15 431.03 400.01 441.18 399.35 447.91 403.57 447.91 402.45 440.35 402.72 440.03" style="fill:#263238"></polygon><polygon points="443.25 440.03 448.32 432.72 442.69 437.78 442.61 437.86 441.56 430.75 440.79 438.66 433.68 431.03 440.54 441.18 439.88 447.91 444.1 447.91 442.98 440.35 443.25 440.03" style="fill:#263238"></polygon></g><g id="freepik--Mask--inject-2"><circle cx="351.29" cy="203.85" r="89.02" transform="translate(-41.25 308.1) rotate(-45)" style="fill:none;stroke:#263238;stroke-linecap:round;stroke-linejoin:round"></circle><line x1="211.18" y1="170.5" x2="267.59" y2="170.5" style="fill:none;stroke:#263238;stroke-linecap:round;stroke-linejoin:round"></line><path d="M212.5,170.29a1.31,1.31,0,1,0-1.31,1.31A1.3,1.3,0,0,0,212.5,170.29Z" style="fill:#fff;stroke:#263238;stroke-linecap:round;stroke-linejoin:round"></path><line x1="247.19" y1="165.64" x2="265.09" y2="165.64" style="fill:#fff;stroke:#263238;stroke-linecap:round;stroke-linejoin:round"></line><line x1="247.19" y1="160.66" x2="265.09" y2="160.66" style="fill:#fff;stroke:#263238;stroke-linecap:round;stroke-linejoin:round"></line><line x1="247.19" y1="155.69" x2="265.09" y2="155.69" style="fill:#fff;stroke:#263238;stroke-linecap:round;stroke-linejoin:round"></line><path d="M287.88,192.1s-17,11.24-25.2,25.89,1,24.18,1,24.18-7.5-8.18-2-17.37,25.54-25.88,25.54-25.88Z" style="fill:#263238;stroke:#263238;stroke-linecap:round;stroke-linejoin:round"></path><path d="M263.71,242.17S277,261.92,310,247.27l-.68-4.08s-17.59,8.34-30,5.45C269.15,246.25,263.71,242.17,263.71,242.17Z" style="fill:#263238;stroke:#263238;stroke-linecap:round;stroke-linejoin:round"></path><path d="M408.78,160.43s-28.95-8.51-44.95-18.39-24.52-17.36-30.65-14.3-29.63,28.61-35.42,32.69-8.51,5.79-8.51,9.2-3.07,25.54-1,31.67,20.77,47.34,26.9,58.57,17.71,14.65,30,13.63,49.38-17,56.87-25.89,4.09-20.43,2.72-28.6-2-17.37,1.71-26.91,11.23-21.11,9.53-25.54S408.78,160.43,408.78,160.43Z" style="fill:#263238;stroke:#263238;stroke-linecap:round;stroke-linejoin:round"></path><path d="M305.33,155.79s7.78-8.56,13.62-11.29,9.34-3.89,12.46-3.11,26.47,11.29,30.75,13.62,18.3,6.23,18.3,6.23l2.34-5.84s-26.87-10.12-36.21-14.79A130,130,0,0,0,331.41,134" style="fill:#263238;stroke:#263238;stroke-linecap:round;stroke-linejoin:round"></path><path d="M326.74,145.28s-20.64,38.54-11.68,97.32" style="fill:#263238;stroke:#263238;stroke-linecap:round;stroke-linejoin:round"></path><path d="M322.84,267.13s9.35,6.23,19.86,5.45,47.49-17.52,53.72-23.36,7.4-11.29,7.4-11.29" style="fill:#263238;stroke:#263238;stroke-linecap:round;stroke-linejoin:round"></path><path d="M314,248.48a59.65,59.65,0,0,0,2.5,9.35" style="fill:#263238;stroke:#263238;stroke-linecap:round;stroke-linejoin:round"></path><path d="M324.78,144.77c-5.5,11.73-13.63,33.23-14.08,58.57-.34,19.07,1.08,32.63,2.6,41.44" style="fill:#263238;stroke:#263238;stroke-linecap:round;stroke-linejoin:round"></path><path d="M329.77,135.23s-1.15,1.87-2.9,5.27" style="fill:#263238;stroke:#263238;stroke-linecap:round;stroke-linejoin:round"></path><path d="M392.77,237.4s19.42,15,39.51,13.62,28.26-16,28.26-16-2.72,15.33-22.81,20.1-46-10.9-46-10.9Z" style="fill:#263238;stroke:#263238;stroke-linecap:round;stroke-linejoin:round"></path><path d="M409.8,170l-2,5.11s21.79,2.72,38.48,20.09,17.37,33.37,14.3,41.55A61.3,61.3,0,0,0,464.29,217c0-10.22-11.92-26.23-21.8-32.7S409.8,170,409.8,170Z" style="fill:#263238;stroke:#263238;stroke-linecap:round;stroke-linejoin:round"></path><path d="M368.28,249.45v.91l-2.06.7v3.88l-1,.34v-9l3.56-1.22V246l-2.56.88v3.26Z" style="fill:#263238;stroke:#263238;stroke-linecap:round;stroke-linejoin:round"></path><path d="M372.64,248v.91l-2.07.7v3.88l-1,.34v-9l3.56-1.21v.91l-2.57.87v3.27Z" style="fill:#263238;stroke:#263238;stroke-linecap:round;stroke-linejoin:round"></path><path d="M375.89,242.68c1.41-.48,2,.15,2,1.51v1.07a2.81,2.81,0,0,1-2.09,2.88l-.89.3V252l-1,.34v-9Zm-.07,4.56a1.47,1.47,0,0,0,1.1-1.58v-1.19c0-.82-.3-1.13-1-.88l-1,.33v3.62Z" style="fill:#263238;stroke:#263238;stroke-linecap:round;stroke-linejoin:round"></path><path d="M382.73,242.53c0,2.71-3,4.71-3.05,6.78v.14l2.94-1v.91l-3.93,1.34v-.77c0-2.9,3-4.5,3-7,0-.92-.31-1.3-1.05-1a1.61,1.61,0,0,0-1.05,1.68v.79l-.94.32v-.73a2.91,2.91,0,0,1,2-3C382.1,240.48,382.73,241.16,382.73,242.53Z" style="fill:#263238;stroke:#263238;stroke-linecap:round;stroke-linejoin:round"></path><path d="M287.31,189.79s-17,11.24-25.2,25.88,1,24.18,1,24.18-7.49-8.17-2.05-17.36,25.55-25.89,25.55-25.89Z" style="fill:#fff;stroke:#263238;stroke-linecap:round;stroke-linejoin:round"></path><path d="M263.13,239.85s13.28,19.76,46.31,5.11l-.68-4.08s-17.59,8.33-30,5.44C268.58,243.94,263.13,239.85,263.13,239.85Z" style="fill:#fff;stroke:#263238;stroke-linecap:round;stroke-linejoin:round"></path><path d="M408.2,158.12s-28.94-8.51-44.95-18.39-24.52-17.37-30.65-14.3S303,154,297.18,158.12s-8.51,5.79-8.51,9.2-3.07,25.54-1,31.67,20.77,47.33,26.9,58.57,17.71,14.65,30,13.62,49.38-17,56.87-25.88,4.09-20.43,2.73-28.6-2.05-17.37,1.7-26.91,11.24-21.11,9.53-25.54S408.2,158.12,408.2,158.12Z" style="fill:#fff;stroke:#263238;stroke-linecap:round;stroke-linejoin:round"></path><path d="M304.75,153.48s.24-.27.68-.73" style="fill:none;stroke:#263238;stroke-linecap:round;stroke-linejoin:round"></path><path d="M306.82,151.32c2.71-2.72,7.58-7.28,11.55-9.13,5.84-2.73,9.35-3.89,12.46-3.12s26.47,11.29,30.75,13.63c3.31,1.8,12.39,4.53,16.38,5.68" style="fill:none;stroke:#263238;stroke-linecap:round;stroke-linejoin:round;stroke-dasharray:1.9963099956512451,1.9963099956512451"></path><path d="M378.92,158.66l1,.27.37-.93" style="fill:none;stroke:#263238;stroke-linecap:round;stroke-linejoin:round"></path><line x1="380.78" y1="156.67" x2="381.58" y2="154.68" style="fill:none;stroke:#263238;stroke-linecap:round;stroke-linejoin:round;stroke-dasharray:1.4297499656677246,1.4297499656677246"></line><path d="M381.85,154l.37-.93-.93-.35" style="fill:none;stroke:#263238;stroke-linecap:round;stroke-linejoin:round"></path><path d="M379.43,152c-7.12-2.72-25.91-10-33.42-13.73-6.21-3.11-10.88-5-13.31-5.94" style="fill:none;stroke:#263238;stroke-linecap:round;stroke-linejoin:round;stroke-dasharray:1.9884899854660034,1.9884899854660034"></path><path d="M331.77,132c-.62-.23-.94-.33-.94-.33" style="fill:none;stroke:#263238;stroke-linecap:round;stroke-linejoin:round"></path><path d="M326.16,143s-20.63,38.54-11.68,97.32" style="fill:none;stroke:#263238;stroke-linecap:round;stroke-linejoin:round;stroke-dasharray:2"></path><path d="M322.27,264.82s9.34,6.22,19.85,5.45,47.49-17.52,53.72-23.36,7.4-11.29,7.4-11.29" style="fill:none;stroke:#263238;stroke-linecap:round;stroke-linejoin:round;stroke-dasharray:2"></path><path d="M313.42,246.17a59.59,59.59,0,0,0,2.49,9.35" style="fill:none;stroke:#263238;stroke-linecap:round;stroke-linejoin:round"></path><path d="M324.2,142.46c-5.5,11.73-13.63,33.23-14.08,58.57-.33,19.07,1.08,32.62,2.6,41.44" style="fill:none;stroke:#263238;stroke-linecap:round;stroke-linejoin:round"></path><path d="M329.19,132.92s-1.15,1.86-2.9,5.27" style="fill:none;stroke:#263238;stroke-linecap:round;stroke-linejoin:round"></path><path d="M392.2,235.09s19.41,15,39.5,13.62,28.27-16,28.27-16-2.73,15.33-22.82,20.09-46-10.89-46-10.89Z" style="fill:#fff;stroke:#263238;stroke-linecap:round;stroke-linejoin:round"></path><path d="M409.22,167.66l-2,5.11s21.8,2.72,38.48,20.09S463,226.23,460,234.4a61.36,61.36,0,0,0,3.74-19.75c0-10.21-11.92-26.22-21.79-32.69S409.22,167.66,409.22,167.66Z" style="fill:#fff;stroke:#263238;stroke-linecap:round;stroke-linejoin:round"></path><path d="M367.7,247.14v.91l-2.06.7v3.88l-1,.34v-9l3.56-1.21v.91l-2.56.87v3.27Z" style="fill:#263238"></path><path d="M372.06,245.65v.91l-2.06.71v3.88l-1,.34v-9l3.56-1.21v.91l-2.56.87v3.27Z" style="fill:#263238"></path><path d="M375.32,240.37c1.41-.48,2,.15,2,1.5V243a2.81,2.81,0,0,1-2.09,2.88l-.88.3v3.53l-1,.34v-9Zm-.08,4.56a1.47,1.47,0,0,0,1.1-1.58v-1.19c0-.82-.29-1.13-1-.88l-1,.32v3.63Z" style="fill:#263238"></path><path d="M382.15,240.22c0,2.7-3,4.71-3,6.78v.14l2.95-1v.9l-3.94,1.34v-.76c0-2.9,3-4.5,3-7,0-.92-.31-1.31-1-1a1.6,1.6,0,0,0-1.05,1.67v.8l-.94.32v-.73a2.91,2.91,0,0,1,2-3C381.52,238.16,382.15,238.85,382.15,240.22Z" style="fill:#263238"></path></g><g id="freepik--Character--inject-2"><path d="M230.33,305.44s-1,6.73.2,8.31a15,15,0,0,1,2.18,6.73c.19,2.18-1.59,5.34.19,5.54s2.18-1,2.18-1-1.78,3-.79,3.36,5.14-3.36,5.74-6.33,1-8.51,0-11.87-3-8.51-3-8.51Z" style="fill:#fff;stroke:#263238;stroke-linecap:round;stroke-linejoin:round"></path><path d="M235.08,325a15.6,15.6,0,0,0,1-4.55c0-2-.59-7.52-.59-7.52" style="fill:none;stroke:#263238;stroke-linecap:round;stroke-linejoin:round"></path><path d="M179.6,445.94s-4.59,6.88-7.87,8.52-5.9,3.93-4.91,8.2-.33,12.78-.33,12.78l1.64.33,2-8.21s5.18,5.91,7.8,8.53,9.51,4.26,9.51,4.26-3.28-5.9-4.27-7.21-3.6-8.85-2.95-10.48S179.6,445.94,179.6,445.94Z" style="fill:#263238;stroke:#263238;stroke-linecap:round;stroke-linejoin:round"></path><path d="M217.51,370.26s-.52,24.71-1,29.65S197,429.05,190.71,438.16a50.8,50.8,0,0,0-7.8,17.43s.52,10.67,1,11.45-6.5-6.25-6.5-9.37,2.86-25.24,2.86-25.24,7.54-26.79,10.14-30.69l5.73-8.59-3.91-19S211.79,374.16,217.51,370.26Z" style="fill:#fff;stroke:#263238;stroke-linecap:round;stroke-linejoin:round"></path><path d="M170.16,467.56l1,14.43a1.12,1.12,0,0,0,1.26,1h0a1.12,1.12,0,0,0,1-1l.71-9.5Z" style="fill:#263238;stroke:#263238;stroke-linecap:round;stroke-linejoin:round"></path><path d="M188.52,373.87s-1.65,31.07-2.64,45.29-3.64,40.33-3.64,40.33,7.27,16.86,10.58,20.49,5.29,1.66,3.3,3.64-9.25,1.32-11.24.66-4.29-3.31-5.95-5.29-5.29-5-7.27-7.93-3.3-5.29-3-6.94,4-6.62,4-6.62-3.63-16.19-6.28-26.11-5-18.18-4-23.8,2.65-15.21,3-16.53-2-18.51-2-18.51Z" style="fill:#fff;stroke:#263238;stroke-linecap:round;stroke-linejoin:round"></path><path d="M196.12,483.62c1.79-1.78.36-.37-2.35-2.71a20.45,20.45,0,0,1-11.64-2.69c-3.64-2.34-9.48-20.72-9.48-20.72s-3.63,5-4,6.62,1,4,3,6.94,5.62,5.95,7.27,7.93,4,4.63,5.95,5.29S194.14,485.6,196.12,483.62Z" style="fill:#263238;stroke:#263238;stroke-linecap:round;stroke-linejoin:round"></path><path d="M157,260.12s-11,36.78-11,63a261.25,261.25,0,0,0,5.07,49.45s27.9,5.07,43.12,5.07,33-6.76,33-6.76-3.38-53.68-7.19-76.93-7.6-33.82-7.6-33.82Z" style="fill:#DF0000;stroke:#263238;stroke-linecap:round;stroke-linejoin:round"></path><path d="M190.83,309.4a276,276,0,0,1,4.9,29.91" style="fill:none;stroke:#263238;stroke-linecap:round;stroke-linejoin:round"></path><path d="M188.4,298.73s.58,2.3,1.41,6" style="fill:none;stroke:#263238;stroke-linecap:round;stroke-linejoin:round"></path><path d="M190.66,326.91s2.25,11.84,2.25,16.91" style="fill:none;stroke:#263238;stroke-linecap:round;stroke-linejoin:round"></path><polygon points="179.81 188.69 152.75 199.25 156.98 260.12 212.36 260.12 214.05 198.83 191.22 188.69 179.81 188.69" style="fill:#263238;stroke:#263238;stroke-linecap:round;stroke-linejoin:round"></polygon><path d="M195,191s10.83,25.89,12.68,41.47,9.51,85.32,9.51,85.32h9.77l-.53-9,12.68-6.07-13.21-52.57s-4.75-54.68-5.54-55.47-26.42-6.34-26.42-6.34S192.58,188.63,195,191Z" style="fill:#fff;stroke:#263238;stroke-linecap:round;stroke-linejoin:round"></path><line x1="212.36" y1="260.12" x2="225.9" y2="306.92" style="fill:none;stroke:#263238;stroke-linecap:round;stroke-linejoin:round"></line><path d="M195,191s10.83,25.89,12.68,41.47c.59,5,1.8,15.73,3.16,27.9l3.7-36.88-6.34-2.37s3.7-9,2.91-10.31c-.68-1.12-9-16.65-11.48-21.2l-5.69-1.25S192.58,188.63,195,191Z" style="fill:none;stroke:#263238;stroke-linecap:round;stroke-linejoin:round"></path><polyline points="217.32 219.87 216.88 266.02 226.39 308.81" style="fill:none;stroke:#263238;stroke-linecap:round;stroke-linejoin:round"></polyline><line x1="217.41" y1="210.55" x2="217.36" y2="215.59" style="fill:none;stroke:#263238;stroke-linecap:round;stroke-linejoin:round"></line><path d="M207.64,152.44s4.22-.53,5.54-1.59,1.06-4,1.06-4,6.87-2.38,6.87-7.66S210.28,125.49,204.73,125a102.48,102.48,0,0,0-11.89-.27s-3.43-5.28-16.64,1.59S164.05,145.57,164.84,153s2.91,7.39,2.91,7.39-2.11,1.06-5.55,6.87,1.32,12.94-.52,14.79-15.33-.26-18.5,6.34-3.43,12.94,5.82,17.17,23.24-1.32,28-6.07-2.65-18.23-3.7-22.72a26.85,26.85,0,0,1-.27-9.25s.53,1.85,4.23,3.17,14,3.17,15.58,0,.53-21.39,6.34-22.18A8.49,8.49,0,0,1,207.64,152.44Z" style="fill:#263238;stroke:#263238;stroke-linecap:round;stroke-linejoin:round"></path><path d="M174.88,166.85s2,22.5,1.18,27.25-1.18,10.11,3.84,14.6,15.06.53,16.91-4-.8-24.57-.8-24.57Z" style="fill:#fff;stroke:#263238;stroke-linecap:round;stroke-linejoin:round"></path><path d="M196.88,188.1c-.4-4.41-.87-7.93-.87-7.93l-10.8-6.81-5.68-.64S184.89,184.28,196.88,188.1Z" style="fill:#263238;stroke:#263238;stroke-linecap:round;stroke-linejoin:round"></path><path d="M195,136.92a23.65,23.65,0,0,1-7.24,9.4,77.9,77.9,0,0,0-10.12,10.12S174,168,178,171.63s13.74,11.21,18.44,11.94,9.4-4,10.85-6.15,3.62-13.74,3.62-16.64-.73-9-.73-9l-.72-5.06Z" style="fill:#fff;stroke:#263238;stroke-linecap:round;stroke-linejoin:round"></path><path d="M210.81,158.2a27.37,27.37,0,0,0-8.21-2.48c-4-.36-13.38,4-16.63,2.53a43.45,43.45,0,0,0-8.06-2.12l-.26.31-.13.43,6.28,3.55L183.43,172l-7.08-3.79a6,6,0,0,0,1.66,3.43c4,3.62,13.74,11.21,18.44,11.94s9.4-4,10.85-6.15,3.62-13.74,3.62-16.64C210.92,160.07,210.87,159.16,210.81,158.2Z" style="fill:#fff;stroke:#263238;stroke-linecap:round;stroke-linejoin:round"></path><path d="M179.11,160.89s-.53-6.6-3.7-6.34-6.07,4.23-3.43,9,6.07,3.17,6.07,3.17" style="fill:#fff;stroke:#263238;stroke-linecap:round;stroke-linejoin:round"></path><path d="M197.34,150.59s-5.29-2.91-9.25,1.06" style="fill:none;stroke:#263238;stroke-linecap:round;stroke-linejoin:round"></path><path d="M203.94,150.85a4.17,4.17,0,0,1,5,0" style="fill:none;stroke:#263238;stroke-linecap:round;stroke-linejoin:round"></path><ellipse cx="194.56" cy="154.29" rx="0.92" ry="1.58" style="fill:#263238"></ellipse><ellipse cx="206.84" cy="154.29" rx="0.92" ry="1.58" style="fill:#263238"></ellipse><path d="M202.88,156.93s1.59,2.9,1.85,9.77" style="fill:none;stroke:#263238;stroke-linecap:round;stroke-linejoin:round"></path><path d="M175.68,188.1s5.28,66.56,5.81,74-.53,58.11-.53,58.11-14.79.53-29.32.26-16.38-.79-16.38-.79,1.06-30.9,3.43-41.2,5.55-51.25,6.08-60.76-1.32-21.92-1.32-21.92Z" style="fill:#fff;stroke:#263238;stroke-linecap:round;stroke-linejoin:round"></path><path d="M164.59,190l6.34,118.36-33.39-3,6.34-63-4.23.84-8,93s11.84,4.65,23.67,5.49,18.18,1.27,19.45-2.53-.85-30.44-.85-30.44l-5.55-118.89Z" style="fill:#263238;stroke:#263238;stroke-linecap:round;stroke-linejoin:round"></path><path d="M181.48,262c-.55-7.67-5.8-73.9-5.8-73.9l-7.34,1.74-2.25,23.38,7.15,8.08-5.59,5.28Z" style="fill:#fff;stroke:#263238;stroke-linecap:round;stroke-linejoin:round"></path><path d="M167.49,295.61s6.86,4.22,9.51,5.81,6.34,6.07,7.39,8.18-.26,2.91-1.58,3.44-3.7-1.32-3.7-1.32a12.76,12.76,0,0,1-3.17,2.64,8.28,8.28,0,0,1-6.87.79c-2.9-1-6.07-5.28-6.87-6.6s-2.9-4.23-2.9-4.23Z" style="fill:#fff;stroke:#263238;stroke-linecap:round;stroke-linejoin:round"></path><line x1="179.11" y1="311.72" x2="175.84" y2="308.96" style="fill:#fff;stroke:#263238;stroke-linecap:round;stroke-linejoin:round"></line><path d="M177.52,313.28a21.56,21.56,0,0,1-4.32-1.56" style="fill:#fff;stroke:#263238;stroke-linecap:round;stroke-linejoin:round"></path><path d="M174.4,315.08s-3.72-1.32-4.92-2.64" style="fill:#fff;stroke:#263238;stroke-linecap:round;stroke-linejoin:round"></path><path d="M153.75,223.23l-5.55,44.64,21.4,27.21L156.39,310.4s-23.51-32.76-24.83-36.72-.53-9.77-.53-10.83,6.34-66.3,8.46-66.56,12.15-2.12,12.15-2.12" style="fill:#fff;stroke:#263238;stroke-linecap:round;stroke-linejoin:round"></path></g></svg>