<svg xmlns="http://www.w3.org/2000/svg" xmlns:xlink="http://www.w3.org/1999/xlink" version="1.1" x="0px" y="0px" fill='#64CCC5' viewBox="0 0 512 512" style="enable-background:new 0 0 512 512;" xml:space="preserve"><path d="M200.3,503.7c-2.2,0-4.3-0.9-5.8-2.6L150.4,452l-66.1-2.5c-2.8-0.1-5.3-1.7-6.6-4.2s-1.1-5.5,0.5-7.8l87.6-130.8  c1.3-2,3.4-3.2,5.8-3.4c2.3-0.2,4.6,0.7,6.3,2.4c2,2.1,4,4.7,6,7.7c7.9,12.3,21.2,19.6,35.8,19.6c5.2,0,10.3-0.9,15.2-2.8  c3.7-1.6,7.7-2.8,11.9-3.4c2.6-0.4,5.2,0.6,7,2.6s2.3,4.7,1.6,7.3l-47.6,161.6c-0.8,2.7-3,4.7-5.7,5.4  C201.4,503.7,200.9,503.7,200.3,503.7z M98.8,434.6l55.5,2.1c2.1,0.1,4.1,1,5.5,2.6l37,41.3l39.6-134.6c-5.5,1.7-11.1,2.5-16.8,2.5  c-18.8,0-36.2-8.9-47-24.1L98.8,434.6z"/><path d="M311.7,503.7c-0.6,0-1.1-0.1-1.7-0.2c-2.7-0.6-4.9-2.7-5.7-5.4l-47.5-161.6c-0.7-2.5-0.1-5.3,1.6-7.3s4.4-3,7-2.6  c3.9,0.6,7.7,1.6,11.7,3.1c5,1.9,10.2,2.9,15.3,2.9c14.5,0,27.9-7.3,35.8-19.6c1.8-2.8,3.9-5.4,6.1-7.7c1.6-1.7,3.9-2.6,6.3-2.4  c2.3,0.2,4.5,1.5,5.8,3.4l87.5,130.9c1.6,2.3,1.7,5.3,0.5,7.8s-3.8,4.1-6.6,4.2l-66.1,2.5l-44.1,49.3  C316,502.8,313.9,503.7,311.7,503.7z M275.6,345.7l39.6,134.8l37-41.3c1.4-1.6,3.4-2.5,5.5-2.6l55.6-2.1l-73.8-110.4  c-10.9,15.2-28.3,24.1-47.1,24.1C286.7,348.2,281.1,347.4,275.6,345.7z"/><path d="M292.4,348.2c-7,0-14.1-1.3-21-4c-9.9-3.9-20.8-3.9-30.7,0c-25.5,10-54.9,0.5-69.7-22.6c-5.7-9-14.6-15.4-24.9-18.1  c-26.5-7-44.6-31.8-43.1-59.1c0-0.1,0-0.2,0-0.3c0.6-10.5-2.7-20.8-9.3-29.1c-0.1-0.1-0.2-0.2-0.3-0.3c-17.3-21.2-17.3-52.1,0-73.3  c0.1-0.1,0.2-0.2,0.3-0.3c6.6-8.2,9.9-18.5,9.3-28.9c0-0.1,0-0.2,0-0.3c-1.4-27.3,16.7-52.1,43.1-59.1c0.2-0.1,0.4-0.1,0.6-0.1  c10.1-2.8,18.7-9.2,24.4-18C185.9,11.5,215.3,2,240.8,12c9.9,3.9,20.8,3.9,30.7,0c25.5-10,54.8-0.5,69.7,22.6  c5.7,8.8,14.4,15.2,24.4,18c0.2,0,0.4,0.1,0.5,0.1c26.4,7,44.4,31.8,43.1,59c0,0.1,0,0.2,0,0.3c-0.6,10.5,2.7,20.7,9.3,28.9  c0.1,0.1,0.2,0.2,0.3,0.3c17.3,21.2,17.3,52,0,73.3c-0.1,0.1-0.2,0.2-0.3,0.3c-6.6,8.4-10,18.8-9.4,29.3c0,0.1,0,0.2,0,0.3  c1.4,27.3-16.7,52.1-43.1,59c-0.2,0-0.4,0.1-0.6,0.1c-10.2,2.8-18.8,9.2-24.4,17.9C330.3,338.5,311.7,348.2,292.4,348.2z   M256.1,325.8c7.1,0,14.3,1.3,21,4c18.7,7.3,40.2,0.4,51.1-16.6c7.7-12.2,19.7-21,33.9-24.7c0.2-0.1,0.4-0.1,0.6-0.1  c19.1-5.2,32.1-23.3,31-43.3c0-0.1,0-0.2,0-0.3c-0.8-14.3,3.9-28.4,13-39.9c0.1-0.1,0.2-0.3,0.3-0.4c12.4-15.5,12.4-37.8,0-53.2  c-0.1-0.1-0.2-0.2-0.3-0.4c-9.1-11.2-13.7-25.2-12.9-39.6c0-0.1,0-0.2,0-0.3c1.1-19.9-12-38-31.1-43.3c-0.2,0-0.4-0.1-0.5-0.1  c-14-3.7-26-12.5-33.9-24.7c-10.9-16.9-32.4-23.9-51.1-16.6c-13.6,5.3-28.5,5.3-42.1,0C216.5,19.1,195,26,184.1,43  c-7.8,12.2-19.9,21-33.9,24.7c-0.2,0.1-0.4,0.1-0.6,0.1c-19.1,5.3-32.2,23.5-31.1,43.4c0,0.1,0,0.2,0,0.3  c0.8,14.4-3.8,28.4-12.9,39.6c-0.1,0.1-0.2,0.2-0.3,0.4c-12.4,15.5-12.4,37.8,0,53.2c0.1,0.1,0.2,0.2,0.3,0.4  c9.1,11.3,13.7,25.4,12.9,39.7c0,0.1,0,0.2,0,0.3c-1.2,20,12.1,38.3,31.5,43.5c14.1,3.7,26.1,12.5,33.9,24.7  c10.9,16.9,32.4,23.9,51.1,16.6C241.9,327.1,249,325.8,256.1,325.8z"/><path d="M256.2,286c-8.3,0-16.7-1-24.9-2.9c-57.8-13.6-93.7-71.7-80-129.5c13.6-57.8,71.7-93.7,129.5-80  c57.8,13.6,93.7,71.7,80,129.5c-6.6,28-23.7,51.7-48.2,66.8C295.4,280.5,276,286,256.2,286z M166.4,157.1  c-5.7,24-1.6,48.7,11.3,69.6c12.9,20.9,33.3,35.6,57.2,41.2c24,5.7,48.7,1.6,69.6-11.3c20.9-12.9,35.6-33.3,41.2-57.2  c11.7-49.5-19.1-99.2-68.5-110.9C227.8,76.9,178,107.7,166.4,157.1L166.4,157.1z"/><path d="M270,150.4h-27.9c-4.3,0-7.7-3.5-7.7-7.7s3.5-7.7,7.7-7.7H270c4.3,0,7.7,3.5,7.7,7.7S274.3,150.4,270,150.4z"/><path d="M303.8,186h-95.6c-4.3,0-7.7-3.5-7.7-7.7s3.5-7.7,7.7-7.7h95.6c4.3,0,7.7,3.5,7.7,7.7S308.1,186,303.8,186z"/><path d="M270,221.5h-27.9c-4.3,0-7.7-3.5-7.7-7.7s3.5-7.7,7.7-7.7H270c4.3,0,7.7,3.5,7.7,7.7S274.3,221.5,270,221.5z"/></svg>