<svg xmlns="http://www.w3.org/2000/svg" xmlns:xlink="http://www.w3.org/1999/xlink" version="1.1" x="0px" y="0px" viewBox="0 0 32 32" fill='#64CCC5' style="enable-background:new 0 0 32 32;" xml:space="preserve"><path d="M16.53,15.917l4.004-4.003c1.396-1.396,1.396-3.668,0-5.064C19.303,5.619,17.392,5.473,16,6.412  c-1.392-0.939-3.303-0.793-4.534,0.438c-1.396,1.396-1.396,3.668,0,5.064l4.004,4.004c0.146,0.146,0.338,0.22,0.53,0.22  S16.384,16.064,16.53,15.917z M12.526,10.853c-0.812-0.812-0.812-2.131,0-2.943c0.393-0.393,0.916-0.609,1.472-0.609  s1.079,0.216,1.472,0.609c0.293,0.293,0.768,0.293,1.061,0c0.785-0.786,2.158-0.786,2.943,0c0.812,0.812,0.812,2.132,0,2.943  L16,14.327L12.526,10.853z"/><path d="M2.021,30.75h27.957c0.267,0,0.514-0.142,0.648-0.373c0.134-0.231,0.136-0.516,0.004-0.748l-3.635-6.4  c-0.134-0.234-0.383-0.379-0.652-0.379h-6.628c2.449-3.722,5.44-8.977,5.44-12.444c0-5.049-4.107-9.156-9.156-9.156  s-9.156,4.107-9.156,9.156c0,3.467,2.991,8.721,5.44,12.444H5.656c-0.27,0-0.519,0.145-0.652,0.379l-3.635,6.4  c-0.132,0.232-0.13,0.517,0.004,0.748C1.508,30.608,1.755,30.75,2.021,30.75z M16,2.75c4.222,0,7.656,3.435,7.656,7.656  c0,4.397-5.765,12.578-7.656,15.144c-1.892-2.566-7.656-10.747-7.656-15.144C8.344,6.185,11.778,2.75,16,2.75z M6.093,24.35h7.203  c1.14,1.649,2.003,2.77,2.112,2.909C15.55,27.442,15.769,27.55,16,27.55s0.45-0.107,0.593-0.291c0.108-0.14,0.972-1.26,2.112-2.909  h7.203l2.783,4.9H3.31L6.093,24.35z"/></svg>