<svg xmlns:dc="http://purl.org/dc/elements/1.1/" xmlns:cc="http://creativecommons.org/ns#" xmlns:rdf="http://www.w3.org/1999/02/22-rdf-syntax-ns#" xmlns:svg="http://www.w3.org/2000/svg" xmlns="http://www.w3.org/2000/svg" xmlns:sodipodi="http://sodipodi.sourceforge.net/DTD/sodipodi-0.dtd" xmlns:inkscape="http://www.inkscape.org/namespaces/inkscape" version="1.1" x="0px" y="0px" viewBox="0 0 100 125" xml:space="preserve"><path style="font-size:medium;font-style:normal;font-variant:normal;font-weight:normal;font-stretch:normal;text-indent:0;text-align:start;text-decoration:none;line-height:normal;letter-spacing:normal;word-spacing:normal;text-transform:none;direction:ltr;block-progression:tb;writing-mode:lr-tb;text-anchor:start;baseline-shift:baseline;opacity:1;color:#000000;fill:#000000;fill-opacity:1;stroke:none;stroke-width:2;marker:none;visibility:visible;display:inline;overflow:visible;enable-background:accumulate;font-family:Sans;-inkscape-font-specification:Sans" d="M 30,12 C 22.960544,12 17.141327,14.870392 13.15625,19.5 9.1711726,24.129608 7,30.484279 7,37.4375 7,48.335154 13.337583,59.138127 21.78125,68.125 30.224917,77.111873 40.812845,84.315995 49.625,87.9375 a 1.0001,1.0001 0 0 0 0.75,0 C 59.187155,84.315995 69.775083,77.111873 78.21875,68.125 86.662417,59.138127 93,48.335154 93,37.4375 93,30.484279 90.828827,24.129608 86.84375,19.5 82.858673,14.870392 77.039456,12 70,12 61.903947,12 55.058072,16.798266 50,22.5625 44.941928,16.798265 38.09605,12 30,12 z m 0,2 c 7.664281,0 14.33446,4.763852 19.21875,10.625 a 1.0001,1.0001 0 0 0 1.5625,0 C 55.66554,18.763852 62.335716,14 70,14 76.500344,14 81.682527,16.59543 85.3125,20.8125 88.942473,25.02957 91,30.90243 91,37.4375 91,47.550788 84.98643,57.983696 76.75,66.75 68.630113,75.392263 58.401501,82.344364 50,85.875 41.598499,82.344364 31.369887,75.392263 23.25,66.75 15.01357,57.983696 9,47.550788 9,37.4375 9,30.90243 11.057527,25.02957 14.6875,20.8125 18.317473,16.59543 23.499656,14 30,14 z"/></svg>