<svg xmlns="http://www.w3.org/2000/svg" viewBox="0 0 32 32" fill='#38A3A5' x="0px" y="0px"><g data-name="Layer 18"><path d="M28.53,8.15a1,1,0,0,0-1-.05l-2.05,1A1,1,0,0,0,25,10h0a1,1,0,0,0,1,1,1,1,0,0,0,.52-.14l.53-.27V24.38l-6,3V21a1,1,0,0,0-2,0v6.38l-6-3V21a1,1,0,0,0-2,0v3.38l-6,3V13.62l1.85-.93A1,1,0,1,0,6,10.91l-2.4,1.2A1,1,0,0,0,3,13V29a1,1,0,0,0,.47.85A1,1,0,0,0,4,30a1,1,0,0,0,.45-.11L12,26.12l7.55,3.77a1,1,0,0,0,.9,0l8-4A1,1,0,0,0,29,25V9A1,1,0,0,0,28.53,8.15Z"/><path d="M19,9a3,3,0,1,0-3,3A3,3,0,0,0,19,9ZM15,9a1,1,0,1,1,1,1A1,1,0,0,1,15,9Z"/><path d="M15.36,20.77a1,1,0,0,0,1.28,0C16.9,20.55,23,15.4,23,9A7,7,0,0,0,9,9C9,15.4,15.1,20.55,15.36,20.77ZM16,4a5,5,0,0,1,5,5c0,4.33-3.52,8.21-5,9.64-1.48-1.43-5-5.3-5-9.64A5,5,0,0,1,16,4Z"/></g><text x="0" y="47" fill="#000000" font-size="5px" font-weight="bold" font-family="'Helvetica Neue', Helvetica, Arial-Unicode, Arial, Sans-serif">Created by Ahmad Roaayala</text><text x="0" y="52" fill="#000000" font-size="5px" font-weight="bold" font-family="'Helvetica Neue', Helvetica, Arial-Unicode, Arial, Sans-serif">from the Noun Project</text></svg>