<svg xmlns="http://www.w3.org/2000/svg" xmlns:xlink="http://www.w3.org/1999/xlink" version="1.0" x="0px" y="0px" fill='#64CCC5' stroke='#64CCC5' stroke-width='1.5' viewBox="0 0 100 100" enable-background="new 0 0 100 125" xml:space="preserve"><g><defs><rect id="b" width="100" height="100"/></defs><clipPath id="a"><use xlink:href="#b" overflow="visible"/></clipPath><path clip-path="url(#a)" d="M85.992,51.912c-0.003-0.067-0.023-0.132-0.04-0.198c-0.017-0.064-0.027-0.13-0.055-0.188   c-0.006-0.013-0.005-0.026-0.012-0.039l-4.401-8.387c-0.023-0.043-0.062-0.072-0.09-0.11c-0.041-0.056-0.077-0.112-0.129-0.158   c-0.049-0.045-0.104-0.076-0.162-0.11c-0.053-0.032-0.103-0.065-0.162-0.087c-0.067-0.025-0.137-0.032-0.209-0.043   c-0.046-0.006-0.086-0.027-0.134-0.027H64.244v-9.877c0-0.014-0.007-0.025-0.008-0.039c-0.003-0.067-0.023-0.132-0.04-0.199   c-0.017-0.064-0.027-0.129-0.055-0.187c-0.006-0.013-0.005-0.027-0.012-0.039l-4.401-8.388c-0.021-0.043-0.06-0.07-0.088-0.108   c-0.041-0.058-0.079-0.114-0.131-0.162c-0.048-0.043-0.103-0.072-0.157-0.106c-0.055-0.033-0.106-0.067-0.167-0.09   c-0.066-0.024-0.135-0.031-0.205-0.041c-0.047-0.006-0.088-0.027-0.137-0.027H40.741c-0.051,0-0.095,0.022-0.144,0.029   c-0.067,0.01-0.131,0.016-0.195,0.039c-0.064,0.024-0.118,0.059-0.175,0.095c-0.052,0.031-0.104,0.059-0.15,0.101   c-0.054,0.048-0.093,0.106-0.135,0.165c-0.027,0.038-0.064,0.064-0.086,0.105l-4.401,8.388c-0.006,0.012-0.005,0.026-0.011,0.038   c-0.029,0.061-0.04,0.126-0.056,0.193c-0.016,0.065-0.037,0.128-0.039,0.193c-0.001,0.014-0.009,0.026-0.009,0.04v4.729H19.401   c-0.048,0-0.09,0.021-0.137,0.028c-0.07,0.009-0.138,0.016-0.203,0.041c-0.063,0.022-0.116,0.057-0.171,0.092   c-0.054,0.032-0.107,0.06-0.154,0.103c-0.053,0.048-0.092,0.106-0.134,0.165c-0.027,0.037-0.064,0.064-0.086,0.106l-4.401,8.387   c-0.007,0.012-0.006,0.026-0.011,0.039c-0.029,0.06-0.041,0.125-0.057,0.192c-0.016,0.065-0.036,0.128-0.039,0.193   C14.007,46.777,14,46.789,14,46.802v28.897c0,0.553,0.448,1,1,1h21.34h26.904H85c0.553,0,1-0.447,1-1V51.951   C86,51.937,85.993,51.926,85.992,51.912 M79.994,44.564l3.352,6.388H64.244v-6.388H79.994z M41.346,25.301h16.892l3.352,6.386   H37.994L41.346,25.301z M35.34,45.802H16.654l3.351-6.386H35.34V45.802z M16,47.802h19.34v26.897H16V47.802z M37.34,46.802V33.687   h24.904v18.264v22.748H37.34V46.802z M84,74.699H64.244V52.951H84V74.699z"/></g><text x="0" y="527" fill="#000000" font-size="5px" font-weight="bold" font-family="'Helvetica Neue', Helvetica, Arial-Unicode, Arial, Sans-serif">Created by VINZENCE STUDIO</text><text x="0" y="532" fill="#000000" font-size="5px" font-weight="bold" font-family="'Helvetica Neue', Helvetica, Arial-Unicode, Arial, Sans-serif">from the Noun Project</text></svg>