<svg xmlns="http://www.w3.org/2000/svg" xmlns:xlink="http://www.w3.org/1999/xlink" version="1.1" x="0px" y="0px" viewBox="0 0 500 500" fill='#64CCC5' enable-background="new 0 0 512 512" xml:space="preserve"><path d="M356.71,371.85c-10.261-8.822-23.572-16.115-38.992-21.45c5.24-7.402,10.598-15.137,15.945-23.086  c47.158-70.099,71.069-122.78,71.069-156.581C404.732,88.721,338.012,22,256,22S107.267,88.721,107.267,170.733  c0,33.8,23.911,86.482,71.069,156.581c5.347,7.948,10.705,15.684,15.946,23.086c-15.42,5.336-28.732,12.629-38.992,21.45  c-14.634,12.582-22.37,27.596-22.37,43.42c0,41.905,54.063,74.73,123.08,74.73s123.08-32.825,123.08-74.73  C379.08,399.445,371.345,384.432,356.71,371.85z M127.267,170.733C127.267,99.75,185.017,42,256,42s128.732,57.75,128.732,128.733  c0,29.312-23.367,79.55-67.575,145.286c-8.029,11.939-16.083,23.388-23.712,33.927c-0.002,0.003-0.004,0.006-0.007,0.009  c-15.543,21.473-29.31,39.152-37.439,49.375c-8.123-10.216-21.879-27.878-37.418-49.345c-0.012-0.017-0.024-0.034-0.036-0.05  c-7.596-10.495-15.615-21.893-23.615-33.784C150.665,250.35,127.267,200.065,127.267,170.733z M256,470  c-55.875,0-103.08-25.063-103.08-54.73c0-19.374,21.288-38.128,53.635-47.824c23.164,31.654,41.484,53.885,41.736,54.19  c1.899,2.3,4.727,3.631,7.709,3.631s5.81-1.331,7.709-3.631c0.252-0.305,18.572-22.535,41.736-54.19  c32.347,9.696,53.635,28.451,53.635,47.824C359.08,444.937,311.875,470,256,470z M256,242.091c44.646,0,80.968-36.322,80.968-80.968  S300.646,80.155,256,80.155c-44.646,0-80.968,36.322-80.968,80.968S211.354,242.091,256,242.091z M256,100.155  c33.618,0,60.968,27.35,60.968,60.968c0,33.618-27.35,60.968-60.968,60.968s-60.968-27.35-60.968-60.968  C195.032,127.505,222.382,100.155,256,100.155z"/><text x="0" y="527" fill="#000000" font-size="5px" font-weight="bold" font-family="'Helvetica Neue', Helvetica, Arial-Unicode, Arial, Sans-serif">by Muhammad Nur Auliady Pamungkas</text><text x="0" y="532" fill="#000000" font-size="5px" font-weight="bold" font-family="'Helvetica Neue', Helvetica, Arial-Unicode, Arial, Sans-serif">from the Noun Project</text></svg>