<svg xmlns="http://www.w3.org/2000/svg" viewBox="0 0 32 32" fill='#38A3A5' stroke='#38A3A5' stroke-width='0.5' x="0px" y="0px"><title>a</title><g data-name="04 Arrow"><path d="M31.268,27.774,18.832,2.211C17.9.293,16.655.007,16,.007s-1.9.286-2.837,2.2L.732,27.773c-.8,1.636-.545,2.652-.192,3.216.625,1,2.017,1.265,3.637.7,4.281-1.376,10.773-3.313,11.808-3.313.817.014,6.663,1.7,11.814,3.305a5.034,5.034,0,0,0,1.636.312,2.27,2.27,0,0,0,2.024-1C31.811,30.426,32.065,29.41,31.268,27.774Zm-1.5,2.157c-.023.023-.22.238-1.338-.149-1.809-.565-10.909-3.386-12.444-3.406-1.72,0-10.644,2.839-12.438,3.416-1.047.364-1.286.161-1.306.139-.035-.042-.122-.432.293-1.282L14.958,3.087c.39-.8.8-1.08,1.039-1.08s.648.283,1.036,1.079L29.47,28.649C29.885,29.5,29.8,29.89,29.763,29.931Z"/></g></svg>